<svg width="891" height="863" viewBox="0 0 891 863" fill="none" xmlns="http://www.w3.org/2000/svg">
<g clip-path="url(#clip0_23_153)">
<path d="M638.143 862.058C777.319 862.058 890.143 851.647 890.143 838.805C890.143 825.963 777.319 815.552 638.143 815.552C498.967 815.552 386.143 825.963 386.143 838.805C386.143 851.647 498.967 862.058 638.143 862.058Z" fill="white"/>
<path opacity="0.1" d="M638 836.506C777.176 836.506 890 826.095 890 813.253C890 800.411 777.176 790 638 790C498.824 790 386 800.411 386 813.253C386 826.095 498.824 836.506 638 836.506Z" fill="#367CFF"/>
<path d="M219.812 493.015H139.486V516.387H219.812V493.015Z" fill="#F4F4F4"/>
<path opacity="0.05" d="M160.798 493.015H150.273V516.387H160.798V493.015Z" fill="#292A2E"/>
<path d="M209.548 498.095H165.784V511.945H209.548V498.095Z" fill="white"/>
<path d="M283.883 496.064L209.246 463.466L199.891 484.884L274.528 517.482L283.883 496.064Z" fill="#F4F4F4"/>
<path opacity="0.05" d="M283.883 496.064L209.246 463.466L199.891 484.884L274.528 517.482L283.883 496.064Z" fill="#292A2E"/>
<path d="M273.86 491.687L264.08 487.415L254.725 508.833L264.505 513.105L273.86 491.687Z" fill="white"/>
<path d="M257.413 490.047L216.75 472.287L211.206 484.979L251.87 502.739L257.413 490.047Z" fill="white"/>
<path opacity="0.05" d="M284.023 789.091H263.837V802.572H284.023V789.091Z" fill="#292A2E"/>
<path opacity="0.05" d="M77.6421 789.091H57.4561V802.572H77.6421V789.091Z" fill="#292A2E"/>
<path d="M302.527 517.483H38.9531V788.635H302.527V517.483Z" fill="#F4F4F4"/>
<path opacity="0.03" d="M302.527 517.483H38.9531V788.635H302.527V517.483Z" fill="#292A2E"/>
<path d="M351.371 517.483H87.7974V788.635H351.371V517.483Z" fill="#F4F4F4"/>
<path opacity="0.05" d="M332.867 789.091H312.681V802.572H332.867V789.091Z" fill="#292A2E"/>
<path opacity="0.05" d="M126.487 789.091H106.301V802.572H126.487V789.091Z" fill="#292A2E"/>
<path opacity="0.7" d="M341.478 530.183H97.6919V582.277H341.478V530.183Z" fill="white"/>
<path opacity="0.7" d="M341.478 595.027H97.6919V647.121H341.478V595.027Z" fill="white"/>
<path opacity="0.7" d="M341.478 659.871H97.6919V711.965H341.478V659.871Z" fill="white"/>
<path opacity="0.05" d="M219.585 563.519C223.611 563.519 226.874 560.256 226.874 556.23C226.874 552.204 223.611 548.941 219.585 548.941C215.559 548.941 212.296 552.204 212.296 556.23C212.296 560.256 215.559 563.519 219.585 563.519Z" fill="#292A2E"/>
<path opacity="0.05" d="M219.585 628.363C223.611 628.363 226.874 625.1 226.874 621.074C226.874 617.048 223.611 613.785 219.585 613.785C215.559 613.785 212.296 617.048 212.296 621.074C212.296 625.1 215.559 628.363 219.585 628.363Z" fill="#292A2E"/>
<path opacity="0.05" d="M219.585 693.208C223.611 693.208 226.874 689.945 226.874 685.919C226.874 681.893 223.611 678.63 219.585 678.63C215.559 678.63 212.296 681.893 212.296 685.919C212.296 689.945 215.559 693.208 219.585 693.208Z" fill="#292A2E"/>
<path opacity="0.7" d="M341.478 726.177H97.6919V778.271H341.478V726.177Z" fill="white"/>
<path opacity="0.05" d="M219.585 759.513C223.611 759.513 226.874 756.25 226.874 752.224C226.874 748.198 223.611 744.935 219.585 744.935C215.559 744.935 212.296 748.198 212.296 752.224C212.296 756.25 215.559 759.513 219.585 759.513Z" fill="#292A2E"/>
<path d="M132.517 248.353L288.37 248.353V45.492L132.517 45.492L132.517 248.353Z" fill="#F4F4F4"/>
<path d="M132.518 45.492H127.462V248.353H132.518V45.492Z" fill="#F4F4F4"/>
<path opacity="0.05" d="M132.518 45.492H127.462V248.353H132.518V45.492Z" fill="#292A2E"/>
<path opacity="0.05" d="M160.909 211.399H259.98V82.445H160.909V211.399Z" fill="#292A2E"/>
<path opacity="0.03" d="M160.909 211.399H166.072L166.072 82.445H160.909L160.909 211.399Z" fill="#292A2E"/>
<path d="M5.05508 426.872H132.517L132.517 298.239H5.05508L5.05508 426.872Z" fill="#F4F4F4"/>
<path opacity="0.05" d="M28.2738 403.44H109.298L109.298 321.672H28.2738L28.2738 403.44Z" fill="#292A2E"/>
<path d="M5.056 298.24H0V426.873H5.056V298.24Z" fill="#F4F4F4"/>
<path opacity="0.05" d="M5.056 298.24H0V426.873H5.056V298.24Z" fill="#292A2E"/>
<path opacity="0.03" d="M28.274 403.44H33.437L33.437 321.672H28.274L28.274 403.44Z" fill="#292A2E"/>
<path d="M782.301 45.009H457.061V370.249H782.301V45.009Z" fill="#F4F4F4"/>
<path d="M457.061 45.009H453.333V370.249H457.061V45.009Z" fill="#F4F4F4"/>
<path opacity="0.05" d="M457.061 45.009H453.333V370.249H457.061V45.009Z" fill="#292A2E"/>
<path opacity="0.05" d="M535.852 269.126V184.032H605.556V233.47H713.527V321.005H759.417V370.249H713.527H704.687H472.706V269.126H535.852Z" fill="#292A2E"/>
<path opacity="0.34" d="M596.608 193.271H545.849V202.51H596.608V193.271Z" fill="#FFFFFA"/>
<path opacity="0.34" d="M596.608 212.417H545.849V221.656H596.608V212.417Z" fill="#FFFFFA"/>
<path opacity="0.34" d="M596.608 231.563H545.849V240.802H596.608V231.563Z" fill="#FFFFFA"/>
<path opacity="0.34" d="M491.063 278.094H481.707V287.333H491.063V278.094Z" fill="#FFFFFA"/>
<path opacity="0.34" d="M491.063 297.24H481.707V306.479H491.063V297.24Z" fill="#FFFFFA"/>
<path opacity="0.34" d="M491.063 316.385H481.707V325.624H491.063V316.385Z" fill="#FFFFFA"/>
<path opacity="0.34" d="M508.371 278.094H499.015V287.333H508.371V278.094Z" fill="#FFFFFA"/>
<path opacity="0.34" d="M508.371 297.24H499.015V306.479H508.371V297.24Z" fill="#FFFFFA"/>
<path opacity="0.34" d="M508.371 316.385H499.015V325.624H508.371V316.385Z" fill="#FFFFFA"/>
<path opacity="0.34" d="M525.211 278.094H515.855V287.333H525.211V278.094Z" fill="#FFFFFA"/>
<path opacity="0.34" d="M525.211 297.24H515.855V306.479H525.211V297.24Z" fill="#FFFFFA"/>
<path opacity="0.34" d="M525.211 316.385H515.855V325.624H525.211V316.385Z" fill="#FFFFFA"/>
<path d="M457.061 205.804H522.504V45.008H527.917V205.804H704.687V45.008H710.099V205.804H782.301V211.216H710.099V370.249H704.687V211.216H527.917V370.249H522.504V211.216H457.061V205.804Z" fill="white"/>
<path d="M795.257 369.856H444.104V380.672H795.257V369.856Z" fill="#F4F4F4"/>
<path opacity="0.1" d="M795.257 369.856H444.104V380.672H795.257V369.856Z" fill="#292A2E"/>
<path opacity="0.1" d="M444.104 369.856H439.034V380.672H444.104V369.856Z" fill="#292A2E"/>
<path opacity="0.1" d="M444.104 369.856H439.034V380.672H444.104V369.856Z" fill="#292A2E"/>
<path d="M434.156 12.514H122.643C108.211 12.514 96.5122 24.2132 96.5122 38.645V416.815C96.5122 431.247 108.211 442.946 122.643 442.946H434.156C448.588 442.946 460.287 431.247 460.287 416.815V38.645C460.287 24.2132 448.588 12.514 434.156 12.514Z" fill="#DFE6F5"/>
<path d="M445.67 1H134.157C119.726 1 108.026 12.6992 108.026 27.131V405.301C108.026 419.733 119.726 431.432 134.157 431.432H445.67C460.102 431.432 471.801 419.733 471.801 405.301V27.131C471.801 12.6992 460.102 1 445.67 1Z" fill="#DEE8F5"/>
<path d="M445.67 432.432H134.157C126.964 432.424 120.068 429.563 114.981 424.476C109.895 419.39 107.034 412.493 107.026 405.3V27.131C107.034 19.9378 109.895 13.0416 114.982 7.95526C120.068 2.86893 126.964 0.00794064 134.157 0L445.67 0C452.863 0.00820527 459.759 2.86931 464.845 7.95561C469.932 13.0419 472.792 19.938 472.8 27.131V405.3C472.793 412.493 469.932 419.39 464.846 424.476C459.76 429.563 452.864 432.424 445.67 432.432V432.432ZM134.157 2C127.494 2.00741 121.107 4.65751 116.395 9.36889C111.684 14.0803 109.034 20.4681 109.026 27.131V405.3C109.034 411.963 111.684 418.351 116.395 423.062C121.107 427.773 127.494 430.424 134.157 430.431H445.67C452.333 430.424 458.721 427.773 463.432 423.062C468.143 418.351 470.793 411.963 470.8 405.3V27.131C470.793 20.4682 468.143 14.0803 463.432 9.36895C458.721 4.65755 452.333 2.00741 445.67 2H134.157Z" fill="#FFFFFA"/>
<path d="M103.83 485.544C139.661 485.544 168.707 456.498 168.707 420.667C168.707 384.836 139.661 355.79 103.83 355.79C67.9995 355.79 38.9531 384.836 38.9531 420.667C38.9531 456.498 67.9995 485.544 103.83 485.544Z" fill="#C1D8ED"/>
<path d="M90.3621 412.2C89.508 412.2 88.6889 411.861 88.0849 411.257C87.4809 410.653 87.1414 409.834 87.1411 408.98V393.389C87.1411 384.768 94.6281 377.753 103.83 377.753C113.032 377.753 120.519 384.768 120.519 393.389V407.91C120.527 408.338 120.449 408.763 120.29 409.16C120.132 409.557 119.896 409.919 119.596 410.224C119.296 410.529 118.939 410.772 118.544 410.937C118.15 411.103 117.726 411.188 117.299 411.188C116.871 411.188 116.447 411.103 116.053 410.937C115.658 410.772 115.301 410.529 115.001 410.224C114.701 409.919 114.465 409.557 114.307 409.16C114.148 408.763 114.071 408.338 114.078 407.91V393.389C114.078 388.319 109.478 384.194 103.83 384.194C98.1821 384.194 93.5821 388.319 93.5821 393.389V408.982C93.5816 409.836 93.2421 410.654 92.6383 411.258C92.0345 411.861 91.2158 412.2 90.3621 412.2V412.2Z" fill="white"/>
<path d="M124.376 406.285H83.2843C80.8879 406.285 78.9453 408.228 78.9453 410.624V449.33C78.9453 451.726 80.8879 453.669 83.2843 453.669H124.376C126.773 453.669 128.715 451.726 128.715 449.33V410.624C128.715 408.228 126.773 406.285 124.376 406.285Z" fill="white"/>
<path d="M99.7394 426.145C99.739 426.913 99.9544 427.665 100.361 428.316C100.768 428.967 101.349 429.491 102.039 429.827V436.113C102.039 436.587 102.228 437.041 102.562 437.376C102.897 437.711 103.352 437.899 103.825 437.899C104.299 437.899 104.753 437.711 105.088 437.376C105.423 437.041 105.611 436.587 105.611 436.113V429.827C106.269 429.508 106.828 429.019 107.233 428.411C107.637 427.802 107.871 427.097 107.91 426.367C107.95 425.638 107.793 424.911 107.457 424.262C107.12 423.614 106.616 423.067 105.997 422.68C105.378 422.292 104.667 422.077 103.936 422.057C103.206 422.037 102.484 422.213 101.845 422.567C101.206 422.921 100.673 423.439 100.302 424.068C99.9305 424.697 99.7346 425.414 99.7344 426.145H99.7394Z" fill="#292A2E"/>
<path d="M418.467 215.773H161.36C155.223 215.773 150.247 220.748 150.247 226.886V262.93C150.247 269.067 155.223 274.043 161.36 274.043H418.467C424.605 274.043 429.58 269.067 429.58 262.93V226.886C429.58 220.748 424.605 215.773 418.467 215.773Z" fill="white"/>
<path d="M418.466 275.042H161.36C158.149 275.038 155.07 273.761 152.799 271.49C150.528 269.219 149.251 266.14 149.247 262.929V226.886C149.251 223.674 150.528 220.596 152.799 218.325C155.07 216.054 158.149 214.776 161.36 214.772H418.466C421.678 214.776 424.757 216.053 427.028 218.324C429.299 220.595 430.576 223.674 430.58 226.886V262.929C430.576 266.141 429.299 269.22 427.028 271.49C424.757 273.761 421.678 275.039 418.466 275.042ZM161.36 216.772C158.679 216.775 156.108 217.841 154.212 219.738C152.316 221.634 151.25 224.205 151.247 226.886V262.929C151.25 265.61 152.316 268.181 154.212 270.077C156.108 271.973 158.679 273.039 161.36 273.042H418.466C421.147 273.039 423.718 271.973 425.614 270.077C427.51 268.181 428.577 265.61 428.58 262.929V226.886C428.577 224.204 427.511 221.634 425.615 219.738C423.718 217.841 421.148 216.775 418.466 216.772H161.36Z" fill="#292A2E"/>
<path d="M418.467 299.047H161.36C155.223 299.047 150.247 304.022 150.247 310.16V346.204C150.247 352.342 155.223 357.317 161.36 357.317H418.467C424.605 357.317 429.58 352.342 429.58 346.204V310.16C429.58 304.022 424.605 299.047 418.467 299.047Z" fill="white"/>
<path d="M418.466 358.316H161.36C158.148 358.312 155.069 357.035 152.798 354.763C150.527 352.492 149.25 349.412 149.247 346.2V310.16C149.251 306.949 150.528 303.87 152.799 301.599C155.07 299.328 158.149 298.051 161.36 298.047H418.466C421.678 298.05 424.757 299.328 427.028 301.599C429.299 303.869 430.576 306.948 430.58 310.16V346.2C430.577 349.412 429.3 352.492 427.029 354.763C424.758 357.035 421.678 358.313 418.466 358.316ZM161.36 300.047C158.679 300.05 156.108 301.116 154.212 303.012C152.316 304.908 151.25 307.479 151.247 310.16V346.2C151.25 348.881 152.316 351.452 154.212 353.348C156.108 355.244 158.679 356.31 161.36 356.313H418.466C421.147 356.31 423.718 355.244 425.615 353.348C427.511 351.452 428.577 348.881 428.58 346.2V310.16C428.577 307.479 427.511 304.908 425.615 303.012C423.718 301.116 421.147 300.05 418.466 300.047H161.36Z" fill="#292A2E"/>
<path d="M289.913 172.43C322.881 172.43 349.607 145.704 349.607 112.736C349.607 79.7679 322.881 53.042 289.913 53.042C256.945 53.042 230.219 79.7679 230.219 112.736C230.219 145.704 256.945 172.43 289.913 172.43Z" fill="white"/>
<path d="M289.913 173.43C277.909 173.43 266.175 169.87 256.193 163.201C246.212 156.532 238.433 147.053 233.839 135.963C229.246 124.872 228.044 112.669 230.385 100.895C232.727 89.1217 238.508 78.3071 246.996 69.8189C255.484 61.3306 266.299 55.5501 278.072 53.2082C289.846 50.8663 302.049 52.0683 313.14 56.662C324.23 61.2558 333.709 69.0351 340.378 79.0162C347.048 88.9973 350.607 100.732 350.607 112.736C350.589 128.828 344.189 144.255 332.811 155.633C321.432 167.012 306.005 173.412 289.913 173.43V173.43ZM289.913 54.042C278.305 54.042 266.957 57.4843 257.305 63.9337C247.652 70.3831 240.129 79.5498 235.687 90.2748C231.245 101 230.082 112.801 232.347 124.187C234.612 135.572 240.202 146.03 248.41 154.239C256.619 162.447 267.077 168.037 278.463 170.302C289.848 172.567 301.65 171.405 312.374 166.962C323.099 162.52 332.266 154.997 338.716 145.345C345.165 135.692 348.607 124.345 348.607 112.736C348.59 97.1747 342.4 82.2558 331.397 71.2524C320.393 60.2489 305.475 54.0595 289.913 54.042V54.042Z" fill="#292A2E"/>
<path opacity="0.5" d="M348.281 112.736C348.298 126.553 343.395 139.924 334.451 150.455C328.942 144.033 322.109 138.878 314.421 135.344C306.733 131.81 298.371 129.982 289.909 129.983C281.448 129.985 273.087 131.817 265.4 135.353C257.713 138.889 250.882 144.047 245.375 150.471C239.301 143.303 235.048 134.774 232.976 125.61C230.904 116.446 231.075 106.917 233.474 97.8326C235.873 88.7486 240.43 80.378 246.756 73.4319C253.083 66.4858 260.993 61.1696 269.814 57.935C278.635 54.7003 288.107 53.6428 297.424 54.8523C306.742 56.0618 315.629 59.5026 323.332 64.8822C331.035 70.2619 337.325 77.4215 341.669 85.7527C346.013 94.0839 348.281 103.341 348.281 112.736V112.736Z" fill="#367CFF"/>
<path d="M334.451 150.455C328.973 156.924 322.151 162.123 314.46 165.689C306.769 169.255 298.394 171.103 289.917 171.104C281.439 171.106 273.064 169.261 265.371 165.697C257.679 162.134 250.856 156.938 245.375 150.471C250.882 144.047 257.713 138.889 265.4 135.353C273.087 131.817 281.448 129.985 289.909 129.983C298.371 129.982 306.732 131.81 314.421 135.344C322.109 138.878 328.942 144.033 334.451 150.455V150.455Z" fill="white"/>
<path d="M289.914 119.093C302.944 119.093 313.507 108.53 313.507 95.5C313.507 82.4699 302.944 71.907 289.914 71.907C276.884 71.907 266.321 82.4699 266.321 95.5C266.321 108.53 276.884 119.093 289.914 119.093Z" fill="white"/>
<g opacity="0.4">
<path d="M171.889 335.278C175.808 335.278 178.985 332.101 178.985 328.182C178.985 324.263 175.808 321.086 171.889 321.086C167.97 321.086 164.793 324.263 164.793 328.182C164.793 332.101 167.97 335.278 171.889 335.278Z" fill="#292A2E"/>
<path d="M194.086 335.278C198.005 335.278 201.182 332.101 201.182 328.182C201.182 324.263 198.005 321.086 194.086 321.086C190.167 321.086 186.99 324.263 186.99 328.182C186.99 332.101 190.167 335.278 194.086 335.278Z" fill="#292A2E"/>
<path d="M216.283 335.278C220.202 335.278 223.379 332.101 223.379 328.182C223.379 324.263 220.202 321.086 216.283 321.086C212.364 321.086 209.187 324.263 209.187 328.182C209.187 332.101 212.364 335.278 216.283 335.278Z" fill="#292A2E"/>
<path d="M238.48 335.278C242.399 335.278 245.576 332.101 245.576 328.182C245.576 324.263 242.399 321.086 238.48 321.086C234.561 321.086 231.384 324.263 231.384 328.182C231.384 332.101 234.561 335.278 238.48 335.278Z" fill="#292A2E"/>
<path d="M260.676 335.278C264.595 335.278 267.772 332.101 267.772 328.182C267.772 324.263 264.595 321.086 260.676 321.086C256.757 321.086 253.58 324.263 253.58 328.182C253.58 332.101 256.757 335.278 260.676 335.278Z" fill="#292A2E"/>
<path d="M282.873 335.278C286.792 335.278 289.969 332.101 289.969 328.182C289.969 324.263 286.792 321.086 282.873 321.086C278.954 321.086 275.777 324.263 275.777 328.182C275.777 332.101 278.954 335.278 282.873 335.278Z" fill="#292A2E"/>
<path d="M305.07 335.278C308.989 335.278 312.166 332.101 312.166 328.182C312.166 324.263 308.989 321.086 305.07 321.086C301.151 321.086 297.974 324.263 297.974 328.182C297.974 332.101 301.151 335.278 305.07 335.278Z" fill="#292A2E"/>
</g>
<g opacity="0.3">
<path d="M178.927 244.48V246.88H169.814V244.48H178.927Z" fill="black"/>
<path d="M190.252 244.48V246.88H181.139V244.48H190.252Z" fill="black"/>
<path d="M201.576 244.48V246.88H192.463V244.48H201.576Z" fill="black"/>
<path d="M212.9 244.48V246.88H203.787V244.48H212.9Z" fill="black"/>
<path d="M224.226 244.48V246.88H215.112V244.48H224.226Z" fill="black"/>
<path d="M244.663 258.021C242.636 259.062 240.378 259.571 238.1 259.5C232.049 259.5 226.92 255.072 226.92 247.988C226.92 240.388 232.197 233.82 240.387 233.82C246.807 233.82 251.124 238.32 251.124 244.483C251.124 250.018 248.024 253.264 244.556 253.264C243.081 253.264 241.716 252.264 241.826 250.018H241.678C241.201 250.991 240.461 251.81 239.542 252.384C238.623 252.958 237.561 253.263 236.478 253.264C234.338 253.264 232.493 251.53 232.493 248.616C232.489 247.466 232.712 246.327 233.15 245.265C233.588 244.202 234.232 243.236 235.045 242.423C235.858 241.61 236.824 240.966 237.887 240.528C238.949 240.09 240.088 239.867 241.238 239.871C242.594 239.851 243.938 240.115 245.186 240.646L243.931 247.324C243.378 250.124 243.821 251.424 245.038 251.457C246.92 251.493 249.023 248.984 249.023 244.705C249.023 239.355 245.813 235.518 240.094 235.518C234.08 235.518 229.025 240.277 229.025 247.767C229.025 253.929 233.047 257.729 238.508 257.729C240.444 257.774 242.36 257.33 244.079 256.438L244.663 258.021ZM242.634 242.082C242.035 241.906 241.413 241.819 240.789 241.824C237.542 241.824 234.923 244.886 234.923 248.465C234.923 250.088 235.735 251.265 237.358 251.265C239.498 251.265 241.453 248.535 241.858 246.247L242.634 242.082Z" fill="black"/>
<path d="M262.737 244.48V246.88H253.624V244.48H262.737Z" fill="black"/>
<path d="M274.062 244.48V246.88H264.948V244.48H274.062Z" fill="black"/>
<path d="M285.386 244.48V246.88H276.273V244.48H285.386Z" fill="black"/>
</g>
<path d="M113.605 736.842C108.605 735.205 103.474 737.042 98.564 740.777C105.031 724.447 107.7 709.696 96.644 709.032C88.908 708.567 82.982 714.502 78.48 722.94C76.897 708.104 72.812 697.04 63.662 700.708C53.616 704.736 52.087 718.538 53.611 732.98C49.186 725.603 44.42 721.49 40.093 725.817C27.18 738.73 58.876 775.117 58.876 775.117H66.748L71.24 779.994C70.331 781.917 69.833 783.062 69.833 783.062L75.539 794.674C75.539 794.674 134.357 743.635 113.605 736.842Z" fill="#0CBC8B"/>
<path d="M99.4919 820.681H54.9419L47.4849 768.674H106.949L99.4919 820.681Z" fill="#C1D8ED"/>
<path d="M338.954 466.294C336.085 465.299 333.141 466.418 330.324 468.675C334.034 458.793 335.566 449.867 329.222 449.466C324.783 449.185 321.383 452.777 318.8 457.882C317.892 448.905 315.548 442.209 310.297 444.428C304.534 446.866 303.656 455.219 304.53 463.957C301.989 459.494 299.257 457.005 296.775 459.621C289.366 467.435 307.552 489.457 307.552 489.457H312.068L314.646 492.408C314.123 493.571 313.838 494.265 313.838 494.265L317.112 501.29C317.112 501.29 350.864 470.405 338.954 466.294Z" fill="#0CBC8B"/>
<path d="M330.859 517.028H305.298L301.019 485.557H335.138L330.859 517.028Z" fill="#C1D8ED"/>
<path d="M731.761 408.61C730.35 405.879 722.892 388.907 722.892 388.907L710.395 356.525C710.395 356.525 701.526 342.87 701.526 340.334C701.526 337.798 685.401 327.655 685.401 327.655C685.401 327.655 672.299 323.753 671.291 323.363C670.284 322.973 654.763 317.839 654.763 317.839C654.763 317.839 648.652 309.802 647.781 311.901L647.78 311.906C647.748 311.853 647.716 311.807 647.684 311.752C646.436 309.419 645.645 306.869 645.354 304.238C645.321 304.005 645.293 303.758 645.263 303.514C649.288 300.786 652.588 297.117 654.876 292.825C657.163 288.534 658.37 283.75 658.391 278.887C658.388 277.606 658.302 276.328 658.133 275.059C658.244 274.989 658.36 274.928 658.48 274.876C658.731 274.767 658.667 274.678 658.483 274.586C658.546 274.553 658.609 274.518 658.673 274.491C659.006 274.346 658.784 274.236 658.461 274.105L658.48 274.096C658.935 273.898 658.36 273.767 657.898 273.558C657.873 273.423 657.85 273.288 657.823 273.154C657.925 272.897 657.988 272.626 658.008 272.35C658.049 272.37 658.087 272.392 658.13 272.411C658.242 271.908 658.239 271.387 658.122 270.885C658.093 270.987 658.058 271.087 658.017 271.185C658.046 270.73 657.952 270.276 657.746 269.87C657.539 269.464 657.228 269.12 656.843 268.876C656.82 268.855 656.795 268.834 656.771 268.813L657.626 260.062C670.231 259.466 672.442 238.022 669.567 236.83C666.693 235.639 669.567 233.058 669.567 227.895C669.567 222.733 660.058 216.974 660.058 216.974C660.058 216.974 656.078 218.96 649.886 209.032C643.695 199.104 620.918 197.516 619.37 200.097C617.822 202.678 607.65 206.054 594.382 209.826C581.114 213.599 583.546 229.285 585.758 232.661C587.579 235.451 588.646 238.667 588.854 241.993C588.854 243.979 593.055 252.318 593.055 252.318C591.73 255.208 595.102 271.039 596.101 275.538C596.085 275.676 596.069 275.814 596.055 275.953C596.047 275.967 596.035 275.978 596.027 275.992C595.979 276.065 595.936 276.14 595.898 276.218C595.684 276.684 595.613 277.204 595.694 277.711C595.621 278.264 595.699 278.828 595.918 279.341C595.994 283.58 596.975 287.754 598.795 291.583C600.615 295.412 603.232 298.808 606.471 301.544C606.486 301.814 606.502 302.087 606.517 302.366C606.702 306.041 606.807 310.387 606.613 314.546C606.603 314.759 606.587 314.967 606.576 315.179C605.844 315.327 605.158 315.644 604.572 316.106C603.986 316.569 603.517 317.162 603.203 317.839C601.953 320.242 594.697 323.948 594.697 323.948C594.697 323.948 581.998 324.534 580.789 326.874C579.579 329.215 561.237 337.018 561.237 337.018C561.237 337.018 551.562 342.675 552.973 349.113C553.71 352.476 551.64 357.702 549.496 361.928C545.011 360.227 540.34 359.062 535.581 358.458L545.857 368.289C545.642 368.625 545.515 368.815 545.515 368.815L539.67 389.492C539.67 389.492 537.654 396.71 535.638 398.466C533.623 400.221 537.452 416.217 537.452 416.217C537.452 416.217 535.235 427.532 533.421 430.458C531.607 433.384 536.243 440.601 536.243 440.601L545.515 461.669L570.106 467.911C570.106 467.911 571.745 468.258 574.393 468.825C574.309 469.329 574.224 469.83 574.137 470.33C572.952 477.041 571.396 483.213 569.501 484.883C564.865 488.979 565.067 507.316 565.067 507.316L565.268 533.26C565.268 533.26 566.881 565.252 566.074 566.423C565.566 567.161 566.587 568.366 569.281 569.449C569.204 569.93 569.129 570.419 569.058 570.917C568.3 576.223 567.961 582.278 569.703 584.955C570.459 586.402 570.873 588.004 570.912 589.636C570.912 592.172 574.742 597.439 574.742 597.439C574.742 597.439 571.718 619.092 576.757 626.505C581.797 633.917 586.029 647.378 583.611 650.499C583.611 650.499 579.378 659.667 581.393 663.764C583.409 667.86 581.393 670.201 578.773 671.176C576.153 672.152 576.379 680.15 576.379 680.15L581.192 718.189C581.192 718.189 583.812 725.992 581.595 728.723C579.378 731.454 579.378 745.109 582.804 749.79C586.231 754.472 577.967 763.055 577.967 763.055C577.967 763.055 572.928 770.273 580.99 772.614C580.99 772.614 582.603 773.004 579.579 776.125C576.556 779.246 575.951 783.148 577.967 784.513C578.385 784.764 578.822 784.981 579.274 785.163C579.199 785.625 579.118 786.104 579.023 786.612C578.249 790.685 576.79 795.991 574.137 798.558C568.996 803.826 564.56 809.738 560.939 816.146C558.173 821.39 556.964 826.297 560.028 828.599C567.284 834.061 576.556 835.817 581.998 833.671C587.44 831.525 595.1 824.893 595.1 824.893L596.914 817.285C596.914 817.285 595.705 812.603 601.751 810.848C607.798 809.092 613.442 802.85 613.442 802.85V792.738C614.906 791.901 616.32 790.978 617.675 789.975C617.675 789.975 620.497 780.026 617.675 776.71C614.853 773.394 613.845 772.224 617.474 770.078C621.102 767.932 621.594 763.25 618.933 759.154C616.264 755.057 612.031 749.01 615.66 740.427C619.288 731.844 620.618 705.509 620.618 705.509C620.618 705.509 618.925 687.562 620.618 683.466C622.311 679.37 618.683 671.176 618.683 671.176C618.683 671.176 619.892 661.033 622.11 656.351C624.327 651.669 626.141 626.895 626.141 626.895C626.141 626.895 630.172 616.361 630.172 609.534C630.172 602.706 623.924 586.32 633.196 582.029C633.196 582.029 637.227 585.54 635.614 599.585C635.614 599.585 640.25 615.971 640.25 621.043C640.25 626.115 643.677 644.452 643.677 644.452C643.677 644.452 644.08 650.304 645.491 652.45C646.902 654.595 645.491 660.448 645.491 660.448C645.491 660.448 650.732 665.324 649.321 668.445C647.91 671.567 649.563 678.605 649.563 678.605L648.313 722.285C648.313 722.285 644.685 741.012 653.151 752.326C653.151 752.326 650.127 768.907 648.313 770.078C646.499 771.248 654.965 781.392 654.965 781.392C654.965 781.392 652.618 787.963 657.384 788.286V799.144C659.038 802.067 661.307 804.596 664.035 806.556C668.47 809.677 666.655 820.406 666.655 820.406C666.655 820.406 672.299 834.061 687.215 831.135C702.131 828.209 704.147 826.844 703.34 821.967C703.05 820.188 702.405 817.012 701.478 813.407C699.873 807.142 697.414 799.581 694.471 795.851C689.835 789.975 686.006 777.686 686.006 777.686C686.006 777.686 684.192 773.589 686.006 772.224C687.82 770.858 687.014 768.322 687.014 768.322C687.014 768.322 688.779 763.25 687.191 760.129C685.603 757.008 690.239 750.571 690.239 750.571L688.828 720.53L690.239 676.834C690.239 676.834 683.99 669.616 686.61 665.324C689.231 661.033 683.587 654.986 683.587 654.986C683.587 654.986 682.982 654.79 684.595 649.914C685.56 647.04 685.416 643.909 684.192 641.135C684.192 641.135 680.765 629.041 686.812 619.873C686.812 619.873 689.432 607.778 690.239 601.536C690.795 597.197 694.278 580.991 696.35 571.51C696.467 570.975 696.58 570.462 696.687 569.971C699.672 570.135 701.929 570.324 701.929 570.324C701.929 570.324 697.293 538.137 701.929 531.505C706.565 524.873 698.301 474.154 698.301 474.154C698.301 474.154 696.326 465.29 695.108 456.246C695.039 455.731 694.976 455.216 694.911 454.701C698.654 454.402 702.41 454.319 706.162 454.452C715.837 455.037 725.311 451.33 725.512 447.624C725.714 443.918 730.955 429.287 731.761 425.971C732.567 422.655 733.172 411.341 731.761 408.61Z" fill="url(#paint0_linear_23_153)"/>
<path d="M614.147 784.926V802.988C614.147 802.988 608.709 809.203 602.882 810.951C597.056 812.699 598.221 817.361 598.221 817.361L596.473 824.935C596.473 824.935 589.093 831.539 583.849 833.675C578.605 835.812 569.671 834.064 562.679 828.625C559.726 826.334 560.892 821.447 563.556 816.226C567.028 809.869 571.302 803.984 576.274 798.715C578.83 796.159 580.236 790.877 580.982 786.821C581.534 783.784 581.712 781.43 581.712 781.43L614.147 784.926Z" fill="#4C495A"/>
<path opacity="0.1" d="M614.147 798.405V802.988C614.147 802.988 608.709 809.203 602.882 810.951C597.056 812.699 598.221 817.361 598.221 817.361L596.473 824.935C596.473 824.935 589.093 831.539 583.849 833.675C578.605 835.812 569.671 834.064 562.679 828.625C559.726 826.334 560.892 821.447 563.556 816.226C563.432 821.711 565.056 827.872 572.972 827.654C581.517 827.383 589.751 824.389 596.473 819.109C596.473 819.109 596.279 806.29 605.213 803.377C608.479 802.299 611.51 800.612 614.147 798.405V798.405Z" fill="black"/>
<path d="M685.233 831.15C670.86 834.064 665.422 820.468 665.422 820.468C665.422 820.468 667.17 809.786 662.897 806.678C660.255 804.708 658.069 802.19 656.488 799.298V781.43L673.968 768.999L683.43 777.374L684.067 777.934C684.067 777.934 687.757 790.17 692.225 796.019C695.06 799.733 697.43 807.261 698.976 813.499C699.869 817.089 700.491 820.251 700.77 822.022C701.547 826.877 699.605 828.237 685.233 831.15Z" fill="#4C495A"/>
<path opacity="0.1" d="M685.233 831.15C670.86 834.064 665.422 820.468 665.422 820.468C665.422 820.468 667.17 809.786 662.897 806.678C660.255 804.708 658.069 802.19 656.488 799.298V792.376C659.261 795.305 664.49 800.976 665.616 803.377C667.17 806.678 667.364 818.72 674.55 820.857C681.737 822.993 695.721 824.935 696.886 819.497C697.37 817.43 698.071 815.42 698.976 813.499C699.869 817.089 700.491 820.251 700.77 822.022C701.547 826.877 699.605 828.237 685.233 831.15Z" fill="black"/>
<path opacity="0.1" d="M581.713 781.43L614.148 784.926V794.474C610.489 796.641 605.245 798.941 602.3 796.579C597.95 793.098 585.014 788.678 580.982 786.821C581.534 783.784 581.713 781.43 581.713 781.43Z" fill="black"/>
<path opacity="0.1" d="M684.067 779.487C679.6 777.934 671.637 784.731 661.149 789.004C659.691 789.691 658.099 790.047 656.488 790.045V781.43L673.968 768.999L683.43 777.374C683.576 778.097 683.789 778.804 684.067 779.487Z" fill="black"/>
<path d="M695.526 565.65C695.526 565.65 694.913 568.509 694.035 572.657C692.038 582.096 688.682 598.232 688.146 602.552C687.369 608.767 684.844 620.808 684.844 620.808C679.018 629.937 682.319 641.979 682.319 641.979C683.5 644.749 683.638 647.854 682.708 650.719C681.154 655.574 681.737 655.768 681.737 655.768C681.737 655.768 687.175 661.789 684.65 666.062C682.125 670.335 688.146 677.521 688.146 677.521L686.786 721.027L688.146 750.937C688.146 750.937 683.679 757.346 685.209 760.454C686.74 763.561 685.038 768.611 685.038 768.611C685.038 768.611 685.815 771.136 684.067 772.495C682.319 773.855 684.067 777.934 684.067 777.934C679.6 776.38 671.637 783.178 661.149 787.451C650.661 791.723 654.157 781.624 654.157 781.624C654.157 781.624 646 771.524 647.748 770.359C649.496 769.194 652.409 752.685 652.409 752.685C644.252 741.42 647.748 722.775 647.748 722.775L648.952 679.285C648.952 679.285 647.359 672.277 648.719 669.17C650.079 666.062 645.029 661.207 645.029 661.207C645.029 661.207 646.388 655.38 645.029 653.243C643.669 651.107 643.281 645.28 643.281 645.28C643.281 645.28 639.979 627.024 639.979 621.974C639.979 616.924 635.512 600.609 635.512 600.609C637.066 586.625 633.181 583.13 633.181 583.13C624.247 587.402 630.268 603.717 630.268 610.515C630.268 617.313 626.384 627.8 626.384 627.8C626.384 627.8 624.636 652.467 622.499 657.128C620.363 661.789 619.197 671.889 619.197 671.889C619.197 671.889 622.693 680.046 621.062 684.125C619.43 688.203 621.062 706.072 621.062 706.072C621.062 706.072 619.78 732.292 616.284 740.837C612.788 749.383 616.867 755.404 619.438 759.483C622.002 763.561 621.528 768.223 618.032 770.359C614.536 772.495 615.507 773.661 618.226 776.963C620.945 780.264 618.226 790.17 618.226 790.17C618.226 790.17 607.156 798.91 602.3 795.025C597.445 791.141 581.907 786.091 579.965 784.731C578.022 783.372 578.605 779.487 581.518 776.38C584.432 773.272 582.878 772.884 582.878 772.884C575.109 770.553 579.965 763.367 579.965 763.367C579.965 763.367 587.928 754.821 584.626 750.16C581.324 745.499 581.324 731.903 583.461 729.184C585.597 726.465 583.072 718.696 583.072 718.696L578.434 680.823C578.434 680.823 578.217 672.86 580.741 671.889C583.266 670.918 585.209 668.587 583.266 664.508C581.324 660.43 585.403 651.301 585.403 651.301C587.733 648.194 583.655 634.792 578.799 627.412C573.944 620.032 576.857 598.473 576.857 598.473C576.857 598.473 573.167 593.229 573.167 590.704C573.131 589.083 572.732 587.49 572.001 586.043C570.323 583.378 570.65 577.349 571.38 572.067C572.087 566.955 573.167 562.542 573.167 562.542L695.526 565.65Z" fill="#292A2E"/>
<path d="M657.459 345.597L619.197 354.531C619.197 354.531 600.358 338.605 605.019 330.059C606.619 327.122 607.326 322.111 607.567 316.813C607.754 312.672 607.653 308.345 607.474 304.686C607.202 299.395 606.767 295.488 606.767 295.488C606.767 295.488 646 273.346 644.64 295.488C644.364 299.175 644.45 302.88 644.896 306.55C645.174 309.162 645.935 311.699 647.142 314.032C649.239 317.769 651.826 317.823 651.826 317.823L657.459 345.597Z" fill="#E98862"/>
<path opacity="0.1" d="M644.897 306.55C639.367 310.517 632.656 312.492 625.86 312.153C619.063 311.815 612.582 309.182 607.474 304.686C607.202 299.395 606.767 295.488 606.767 295.488C606.767 295.488 646 273.346 644.64 295.488C644.364 299.175 644.45 302.88 644.897 306.55V306.55Z" fill="black"/>
<path d="M627.354 311.414C643.98 311.414 657.459 297.936 657.459 281.309C657.459 264.683 643.98 251.205 627.354 251.205C610.728 251.205 597.25 264.683 597.25 281.309C597.25 297.936 610.728 311.414 627.354 311.414Z" fill="#E98862"/>
<path opacity="0.1" d="M657.459 345.597L619.197 354.531C619.197 354.531 600.358 338.605 605.019 330.059C606.619 327.122 607.326 322.111 607.567 316.813C608.412 321.42 610.885 325.57 614.536 328.505C623.276 334.332 621.916 341.518 621.916 341.518L637.648 340.935C636.677 334.526 642.504 331.03 644.446 330.253C646.388 329.476 645.417 325.98 645.417 325.98L647.142 314.032C649.239 317.769 651.826 317.823 651.826 317.823L657.459 345.597Z" fill="black"/>
<path opacity="0.1" d="M695.526 565.65C695.526 565.65 694.913 568.509 694.035 572.657C689.808 572.432 684.223 572.269 681.737 572.836C677.464 573.807 660.372 574.195 660.372 574.195L618.032 575.695V574.389C613.162 574.429 608.298 574.753 603.465 575.361C596.279 576.332 585.014 574.972 577.828 573.807C575.616 573.49 573.451 572.905 571.38 572.067C572.087 566.955 573.167 562.542 573.167 562.542L695.526 565.65Z" fill="black"/>
<path d="M692.225 442.319C691.611 445.947 692.062 451.96 692.839 457.895C694.012 466.9 695.915 475.725 695.915 475.725C695.915 475.725 703.878 526.223 699.411 532.826C694.944 539.43 699.411 571.476 699.411 571.476C699.411 571.476 686.01 570.311 681.737 571.282C677.464 572.253 660.373 572.642 660.373 572.642L618.032 574.141V572.836C613.162 572.875 608.298 573.199 603.466 573.807C596.28 574.778 585.015 573.418 577.829 572.253C570.642 571.088 567.729 568.757 568.506 567.592C569.283 566.426 567.729 534.574 567.729 534.574L567.535 508.743C567.535 508.743 567.341 490.486 571.808 486.407C573.633 484.745 575.133 478.6 576.275 471.918C577.914 462.246 578.8 451.447 578.8 451.447L549.278 372.399L548.695 370.845C548.695 370.845 557.241 357.638 555.882 351.229C554.522 344.82 563.845 339.187 563.845 339.187C563.845 339.187 581.519 331.418 582.684 329.088C583.849 326.757 596.085 326.175 596.085 326.175C596.085 326.175 603.077 322.484 604.282 320.092C604.575 319.423 605.023 318.834 605.589 318.373C606.155 317.913 606.823 317.594 607.537 317.442C608.36 322.106 610.847 326.313 614.536 329.282C623.276 335.109 621.917 342.295 621.917 342.295L637.649 341.712C636.678 335.303 642.504 331.807 644.447 331.03C646.389 330.253 645.418 326.757 645.418 326.757L647.236 314.179C648.074 312.09 653.963 320.092 653.963 320.092C653.963 320.092 668.918 325.203 669.889 325.592C670.861 325.98 683.485 329.865 683.485 329.865C683.485 329.865 699.023 339.964 699.023 342.489C699.023 345.014 707.568 358.61 707.568 358.61C707.568 358.61 707.467 359.153 707.281 360.148C705.308 370.853 693.647 433.967 692.225 442.319Z" fill="#367CFF"/>
<path d="M630.074 410.855C630.074 410.855 596.474 401.921 593.172 399.784C589.87 397.648 570.448 410.078 594.143 426.975C594.143 426.975 623.117 432.996 630.869 426.975C638.62 420.955 630.074 410.855 630.074 410.855Z" fill="#E98862"/>
<path opacity="0.1" d="M702.713 357.638L706.791 357.833L718.833 390.073C718.833 390.073 726.019 406.971 727.379 409.69C728.738 412.409 728.156 423.674 727.379 426.975C726.602 430.277 721.552 444.844 721.358 448.534C721.164 452.224 712.035 455.914 702.713 455.332C693.39 454.749 671.637 457.662 671.637 457.662C671.637 457.662 648.406 455.234 634.153 462.518C634.153 462.518 625.024 443.678 625.995 408.524C625.995 408.524 642.116 407.553 646.194 409.107C650.273 410.661 670.083 415.128 672.608 412.797C675.133 410.467 686.592 417.07 686.592 417.07C687.175 415.789 687.477 414.399 687.477 412.991C687.477 411.584 687.175 410.194 686.592 408.913C684.65 404.252 681.348 389.685 685.621 385.024C689.894 380.362 702.713 357.638 702.713 357.638Z" fill="black"/>
<path opacity="0.1" d="M692.838 457.896C683.197 458.548 672.414 459.993 672.414 459.993C672.414 459.993 649.185 457.561 634.929 464.849C634.929 464.849 625.801 446.009 626.772 410.855C626.772 410.855 642.892 409.884 646.971 411.438C651.05 412.992 670.86 417.459 673.385 415.128C675.91 412.797 687.369 419.401 687.369 419.401C687.952 418.12 688.254 416.729 688.254 415.322C688.254 413.915 687.952 412.524 687.369 411.244C685.427 406.582 682.125 392.016 686.398 387.354C690.671 382.693 703.489 359.969 703.489 359.969L707.281 360.148C705.307 370.853 693.646 433.967 692.225 442.319C691.611 445.947 692.062 451.96 692.838 457.896Z" fill="black"/>
<path d="M703.49 358.415L707.568 358.609L719.61 390.85C719.61 390.85 726.796 407.748 728.156 410.467C729.515 413.186 728.933 424.451 728.156 427.752C727.379 431.054 722.329 445.621 722.135 449.311C721.941 453.001 712.812 456.691 703.49 456.109C694.167 455.526 672.414 458.439 672.414 458.439C672.414 458.439 649.183 456.011 634.929 463.295C634.929 463.295 625.801 444.455 626.772 409.301C626.772 409.301 642.892 408.33 646.971 409.884C651.05 411.438 670.86 415.905 673.385 413.574C675.91 411.244 687.369 417.847 687.369 417.847C687.952 416.566 688.254 415.176 688.254 413.768C688.254 412.361 687.952 410.97 687.369 409.69C685.427 405.028 682.125 390.462 686.398 385.801C690.671 381.139 703.49 358.415 703.49 358.415Z" fill="#367CFF"/>
<path d="M662.456 429.755L667.302 432.756L694.308 389.14L689.462 386.139L662.456 429.755Z" fill="#DFE6F5"/>
<path d="M708.156 383.233C712.929 375.525 712.416 366.562 707.009 363.215C701.603 359.867 693.35 363.402 688.578 371.11C683.805 378.819 684.318 387.781 689.725 391.129C695.131 394.476 703.383 390.941 708.156 383.233Z" fill="#DFE6F5"/>
<path opacity="0.1" d="M705.394 381.522C708.82 375.989 708.451 369.556 704.57 367.153C700.689 364.75 694.766 367.288 691.34 372.821C687.914 378.354 688.283 384.787 692.164 387.19C696.044 389.593 701.968 387.056 705.394 381.522Z" fill="black"/>
<path d="M648.653 452.048L653.499 455.049L670.303 427.91L665.457 424.909L648.653 452.048Z" fill="#53526B"/>
<path d="M620.169 453.972L632.016 450.67C632.016 450.67 690.477 452.224 670.861 428.141C670.861 428.141 660.567 418.236 639.008 426.199C617.45 434.162 611.429 435.133 611.429 435.133L620.169 453.972Z" fill="#E98862"/>
<path opacity="0.1" d="M611.428 352.394C612.716 352.394 613.759 351.351 613.759 350.064C613.759 348.777 612.716 347.733 611.428 347.733C610.141 347.733 609.098 348.777 609.098 350.064C609.098 351.351 610.141 352.394 611.428 352.394Z" fill="black"/>
<path opacity="0.1" d="M651.438 351.035C652.725 351.035 653.769 349.991 653.769 348.704C653.769 347.417 652.725 346.374 651.438 346.374C650.151 346.374 649.107 347.417 649.107 348.704C649.107 349.991 650.151 351.035 651.438 351.035Z" fill="black"/>
<path d="M611.428 351.617C612.716 351.617 613.759 350.574 613.759 349.287C613.759 348 612.716 346.956 611.428 346.956C610.141 346.956 609.098 348 609.098 349.287C609.098 350.574 610.141 351.617 611.428 351.617Z" fill="white"/>
<path opacity="0.1" d="M614.73 384.635C616.017 384.635 617.061 383.592 617.061 382.305C617.061 381.017 616.017 379.974 614.73 379.974C613.443 379.974 612.399 381.017 612.399 382.305C612.399 383.592 613.443 384.635 614.73 384.635Z" fill="black"/>
<path opacity="0.1" d="M652.603 382.305C653.89 382.305 654.934 381.261 654.934 379.974C654.934 378.687 653.89 377.643 652.603 377.643C651.316 377.643 650.272 378.687 650.272 379.974C650.272 381.261 651.316 382.305 652.603 382.305Z" fill="black"/>
<path d="M614.73 383.858C616.017 383.858 617.061 382.815 617.061 381.528C617.061 380.24 616.017 379.197 614.73 379.197C613.443 379.197 612.399 380.24 612.399 381.528C612.399 382.815 613.443 383.858 614.73 383.858Z" fill="white"/>
<path opacity="0.1" d="M651.632 494.772C652.92 494.772 653.963 493.729 653.963 492.441C653.963 491.154 652.92 490.111 651.632 490.111C650.345 490.111 649.302 491.154 649.302 492.441C649.302 493.729 650.345 494.772 651.632 494.772Z" fill="black"/>
<path opacity="0.1" d="M620.959 494.772C622.246 494.772 623.289 493.729 623.289 492.441C623.289 491.154 622.246 490.111 620.959 490.111C619.671 490.111 618.628 491.154 618.628 492.441C618.628 493.729 619.671 494.772 620.959 494.772Z" fill="black"/>
<path d="M651.632 493.995C652.92 493.995 653.963 492.952 653.963 491.664C653.963 490.377 652.92 489.334 651.632 489.334C650.345 489.334 649.302 490.377 649.302 491.664C649.302 492.952 650.345 493.995 651.632 493.995Z" fill="white"/>
<path opacity="0.1" d="M623.29 533.797C624.577 533.797 625.62 532.754 625.62 531.467C625.62 530.179 624.577 529.136 623.29 529.136C622.002 529.136 620.959 530.179 620.959 531.467C620.959 532.754 622.002 533.797 623.29 533.797Z" fill="black"/>
<path opacity="0.1" d="M652.603 531.467C653.89 531.467 654.934 530.423 654.934 529.136C654.934 527.849 653.89 526.805 652.603 526.805C651.316 526.805 650.272 527.849 650.272 529.136C650.272 530.423 651.316 531.467 652.603 531.467Z" fill="black"/>
<path d="M623.29 533.02C624.577 533.02 625.62 531.977 625.62 530.69C625.62 529.402 624.577 528.359 623.29 528.359C622.002 528.359 620.959 529.402 620.959 530.69C620.959 531.977 622.002 533.02 623.29 533.02Z" fill="white"/>
<path d="M620.959 493.995C622.246 493.995 623.289 492.952 623.289 491.664C623.289 490.377 622.246 489.334 620.959 489.334C619.671 489.334 618.628 490.377 618.628 491.664C618.628 492.952 619.671 493.995 620.959 493.995Z" fill="white"/>
<path d="M652.603 530.69C653.89 530.69 654.934 529.646 654.934 528.359C654.934 527.072 653.89 526.028 652.603 526.028C651.316 526.028 650.272 527.072 650.272 528.359C650.272 529.646 651.316 530.69 652.603 530.69Z" fill="white"/>
<path d="M651.438 350.258C652.725 350.258 653.769 349.215 653.769 347.927C653.769 346.64 652.725 345.597 651.438 345.597C650.151 345.597 649.107 346.64 649.107 347.927C649.107 349.215 650.151 350.258 651.438 350.258Z" fill="white"/>
<path d="M652.603 381.528C653.89 381.528 654.934 380.484 654.934 379.197C654.934 377.91 653.89 376.866 652.603 376.866C651.316 376.866 650.272 377.91 650.272 379.197C650.272 380.484 651.316 381.528 652.603 381.528Z" fill="white"/>
<path opacity="0.1" d="M656.1 460.964C656.1 460.964 656.488 514.181 657.653 523.698C657.653 523.698 658.076 463.473 656.1 460.964Z" fill="black"/>
<path opacity="0.1" d="M666.004 485.63C665.204 485.63 681.931 547.975 682.707 552.443C683.484 556.91 670.666 485.63 666.004 485.63Z" fill="black"/>
<path opacity="0.1" d="M679.212 475.531C679.212 476.113 688.535 509.325 693.196 511.073C697.857 512.821 679.212 475.531 679.212 475.531Z" fill="black"/>
<path opacity="0.1" d="M715.92 410.855C715.92 410.855 696.109 411.738 695.527 414.598C694.944 417.459 715.92 410.855 715.92 410.855Z" fill="black"/>
<path opacity="0.1" d="M680.96 664.12C680.96 664.12 666.782 670.141 668.918 670.529C671.054 670.918 680.96 664.12 680.96 664.12Z" fill="black"/>
<path opacity="0.1" d="M651.632 655.186C651.08 653.943 661.149 660.235 661.149 661.012C661.149 661.789 652.409 656.934 651.632 655.186Z" fill="black"/>
<path opacity="0.1" d="M664.839 675.579C664.839 675.579 675.91 675.02 676.687 679.281C677.464 683.542 664.839 675.579 664.839 675.579Z" fill="black"/>
<path opacity="0.1" d="M585.209 675.555C585.209 675.555 597.251 673.2 598.222 675.555C599.193 677.91 585.209 675.555 585.209 675.555Z" fill="black"/>
<path opacity="0.1" d="M589.676 748.8C589.676 748.8 590.465 758.706 587.545 761.036C584.626 763.367 589.676 748.8 589.676 748.8Z" fill="black"/>
<path opacity="0.1" d="M588.205 769.776C592.006 770.165 612.011 766.669 611.817 769.776C611.623 772.884 588.205 769.776 588.205 769.776Z" fill="black"/>
<path opacity="0.1" d="M679.989 757.735C679.989 757.735 673.166 756.686 674.83 761.289L679.989 757.735Z" fill="black"/>
<path opacity="0.1" d="M553.162 370.069H549.472L543.84 390.656C543.84 390.656 541.897 397.842 539.955 399.59C538.013 401.338 541.703 417.264 541.703 417.264C541.703 417.264 539.567 428.529 537.819 431.443C536.071 434.356 540.538 441.542 540.538 441.542L549.472 462.518L573.167 468.733C573.167 468.733 614.925 477.861 616.867 479.221C618.809 480.581 620.557 478.638 621.917 466.014C623.276 453.39 626.966 428.918 629.88 427.752C629.88 427.752 606.573 430.277 604.631 429.889C602.689 429.5 593.366 430.083 593.366 430.083C593.366 430.083 581.13 429.306 579.188 430.472C577.246 431.637 581.713 424.83 581.713 424.83C582.531 421.714 582.531 418.439 581.713 415.322C580.353 410.078 579.576 350.646 553.162 370.069Z" fill="black"/>
<path opacity="0.1" d="M629.102 430.083C626.189 431.248 622.499 455.72 621.139 468.345C619.78 480.969 618.032 482.911 616.09 481.552C614.512 480.448 586.677 474.218 576.274 471.918C577.913 462.246 578.799 451.447 578.799 451.447L549.277 372.399H552.385C578.799 352.977 579.576 412.409 580.935 417.653C581.753 420.77 581.753 424.045 580.935 427.162C580.935 427.162 576.468 433.967 578.411 432.802C580.353 431.637 592.589 432.414 592.589 432.414C592.589 432.414 601.911 431.831 603.854 432.219C605.796 432.608 629.102 430.083 629.102 430.083Z" fill="black"/>
<path d="M552.385 370.845H548.695L543.062 391.433C543.062 391.433 541.12 398.619 539.178 400.367C537.236 402.115 540.926 418.041 540.926 418.041C540.926 418.041 538.789 429.306 537.041 432.219C535.293 435.133 539.761 442.319 539.761 442.319L548.695 463.295L572.39 469.51C572.39 469.51 614.147 478.638 616.09 479.998C618.032 481.358 619.78 479.415 621.139 466.791C622.499 454.167 626.189 429.695 629.102 428.529C629.102 428.529 605.796 431.054 603.854 430.666C601.911 430.277 592.589 430.86 592.589 430.86C592.589 430.86 580.353 430.083 578.411 431.248C576.468 432.414 580.935 425.607 580.935 425.607C581.753 422.491 581.753 419.216 580.935 416.099C579.576 410.855 578.799 351.423 552.385 370.845Z" fill="#367CFF"/>
<path opacity="0.1" d="M563.262 419.595C564.039 419.789 577.634 422.49 577.828 423.664C578.023 424.839 563.262 419.595 563.262 419.595Z" fill="black"/>
<path opacity="0.1" d="M657.545 277.316C657.122 277.465 656.762 277.751 656.521 278.128C656.28 278.505 656.173 278.953 656.216 279.398C655.424 280.097 654.313 279.274 653.668 278.38C653.015 277.495 652.277 276.399 651.291 276.524C650.822 276.673 650.367 276.863 649.931 277.091C648.377 277.588 647.064 275.762 646.194 274.162C644.679 271.357 643.164 268.555 641.649 265.756C638.612 267.52 635.023 265.671 632.008 263.845C628.994 262.019 625.405 260.163 622.359 261.926C617.892 264.505 617.729 273.105 613.099 275.226C611.607 275.91 609.875 275.762 608.492 276.702C607.125 277.635 606.387 279.429 605.773 281.146C605.546 282.124 605.012 283.003 604.25 283.656C603.766 283.909 603.227 284.039 602.681 284.036C601.308 284.27 599.897 284.071 598.641 283.469C597.983 283.056 597.486 282.43 597.231 281.695C596.977 280.961 596.981 280.161 597.243 279.429C597.279 279.352 597.321 279.276 597.367 279.204C597.865 278.602 598.312 277.961 598.703 277.285C599.169 276.05 598.501 274.613 598.649 273.276C598.89 270.992 601.306 269.788 601.718 267.543C601.888 266.665 601.71 265.725 601.873 264.839C601.896 264.723 601.927 264.609 601.966 264.498L600.544 265.476C602.137 263.62 602.937 261.04 604.103 258.787C605.397 256.321 607.179 254.142 609.339 252.383C611.5 250.625 613.994 249.323 616.673 248.556C621.738 247.08 627.091 247.484 632.203 248.735C637.064 249.946 641.72 251.864 646.023 254.429C647.561 255.253 648.926 256.364 650.048 257.7C650.987 259.085 651.786 260.561 652.433 262.105C653.94 265.228 658.057 268.118 654.779 268.553C652.052 268.918 654.538 270.829 655.968 272.119C656.29 272.372 656.568 272.676 656.791 273.02C657.028 273.511 657.137 274.055 657.107 274.6C657.077 275.144 656.91 275.673 656.62 276.135C656.068 276.834 658.306 276.974 657.545 277.316Z" fill="black"/>
<path d="M657.544 276.539C657.122 276.688 656.761 276.974 656.521 277.351C656.28 277.729 656.172 278.176 656.216 278.621C655.423 279.321 654.312 278.497 653.667 277.604C653.015 276.718 652.277 275.623 651.29 275.747C650.822 275.896 650.367 276.086 649.931 276.314C648.377 276.811 647.064 274.986 646.194 273.385C644.679 270.581 643.164 267.779 641.649 264.979C638.611 266.743 635.022 264.894 632.008 263.068C628.994 261.242 625.404 259.386 622.359 261.149C617.892 263.728 617.729 272.329 613.098 274.449C611.607 275.133 609.874 274.986 608.491 275.926C607.124 276.858 606.386 278.652 605.772 280.369C605.545 281.347 605.012 282.226 604.25 282.879C603.766 283.132 603.227 283.263 602.68 283.259C601.308 283.493 599.896 283.294 598.641 282.692C597.982 282.279 597.485 281.653 597.231 280.918C596.977 280.184 596.981 279.384 597.242 278.652C597.279 278.575 597.32 278.5 597.366 278.427C597.864 277.825 598.311 277.184 598.703 276.508C599.169 275.273 598.501 273.836 598.648 272.499C598.889 270.215 601.305 269.011 601.717 266.766C601.888 265.888 601.709 264.948 601.872 264.062C601.895 263.946 601.926 263.832 601.966 263.721L600.544 264.7C602.137 262.843 602.937 260.264 604.102 258.011C605.397 255.544 607.178 253.365 609.339 251.607C611.499 249.848 613.994 248.546 616.672 247.779C621.737 246.303 627.09 246.707 632.202 247.958C637.063 249.169 641.72 251.087 646.023 253.652C647.56 254.477 648.926 255.587 650.047 256.923C650.987 258.308 651.785 259.784 652.432 261.328C653.939 264.451 658.057 267.341 654.778 267.776C652.052 268.141 654.538 270.052 655.967 271.342C656.289 271.595 656.568 271.899 656.791 272.243C657.028 272.734 657.137 273.278 657.107 273.823C657.077 274.368 656.909 274.896 656.619 275.358C656.068 276.058 658.305 276.197 657.544 276.539Z" fill="#292A2E"/>
<path opacity="0.1" d="M655.968 271.342L655.657 274.613C655.657 274.613 623.059 233.298 597.701 279.95C597.701 279.95 597.577 279.383 597.367 278.427C597.865 277.825 598.312 277.184 598.703 276.508C599.17 275.273 598.501 273.836 598.649 272.499C598.89 270.215 601.306 269.011 601.718 266.766C601.889 265.888 601.71 264.948 601.873 264.062C601.896 263.946 601.927 263.832 601.966 263.721L600.545 264.7C602.137 262.843 602.938 260.264 604.103 258.011C605.397 255.544 607.179 253.365 609.339 251.607C611.5 249.848 613.995 248.546 616.673 247.779C621.738 246.303 627.091 246.707 632.203 247.958C637.064 249.169 641.72 251.087 646.024 253.652C647.561 254.477 648.927 255.587 650.048 256.923C650.987 258.308 651.786 259.784 652.433 261.328C653.94 264.451 658.058 267.341 654.779 267.776C652.052 268.141 654.538 270.052 655.968 271.342Z" fill="black"/>
<g opacity="0.1">
<path d="M656.771 276.116C656.611 276.297 656.494 276.512 656.429 276.745C656.365 276.978 656.356 277.223 656.402 277.461C655.609 278.16 654.498 277.337 653.854 276.443C653.201 275.557 652.463 274.462 651.476 274.586C651.008 274.736 650.553 274.926 650.117 275.153C648.563 275.651 647.25 273.825 646.38 272.225C644.865 269.42 643.35 266.618 641.835 263.819C638.797 265.582 635.208 263.733 632.194 261.908C629.18 260.082 625.59 258.225 622.545 259.989C618.078 262.568 617.915 271.168 613.285 273.289C611.793 273.973 610.06 273.825 608.678 274.765C607.31 275.697 606.572 277.492 605.958 279.209C605.731 280.186 605.198 281.065 604.436 281.718C603.952 281.971 603.413 282.102 602.866 282.099C601.494 282.332 600.082 282.134 598.827 281.532C598.074 281.033 597.535 280.271 597.313 279.396C597.158 280.092 597.221 280.818 597.491 281.478C597.762 282.137 598.228 282.698 598.827 283.085C600.082 283.688 601.494 283.886 602.866 283.653C603.413 283.656 603.952 283.525 604.436 283.272C605.198 282.619 605.731 281.74 605.958 280.763C606.572 279.046 607.31 277.251 608.678 276.319C610.06 275.379 611.793 275.526 613.285 274.843C617.915 272.722 618.078 264.122 622.545 261.542C625.59 259.779 629.18 261.636 632.194 263.461C635.208 265.287 638.797 267.136 641.835 265.372C643.35 268.169 644.865 270.971 646.38 273.778C647.25 275.379 648.563 277.204 650.117 276.707C650.553 276.479 651.008 276.29 651.476 276.14C652.463 276.016 653.201 277.111 653.854 277.997C654.498 278.89 655.609 279.714 656.402 279.015C656.359 278.569 656.466 278.122 656.707 277.744C656.948 277.367 657.308 277.081 657.73 276.933C658.336 276.661 657.048 276.516 656.771 276.116Z" fill="black"/>
<path d="M654.231 268.354C654.466 268.26 654.713 268.198 654.964 268.169C656.41 267.977 656.416 267.308 655.843 266.352C655.571 266.499 655.272 266.588 654.964 266.615C653.405 266.824 653.553 267.539 654.231 268.354Z" fill="black"/>
<path d="M657.207 274.862C657.316 274.361 657.313 273.842 657.199 273.343C657.13 273.652 656.996 273.944 656.806 274.198C656.562 274.506 656.862 274.706 657.207 274.862Z" fill="black"/>
<path d="M598.879 272.624C598.863 272.713 598.844 272.801 598.834 272.893C598.803 273.592 598.854 274.293 598.986 274.981C599.078 274.195 599.042 273.399 598.879 272.624V272.624Z" fill="black"/>
<path d="M602.033 263.146C601.668 263.838 601.231 264.491 600.73 265.093L601.984 264.229C601.978 263.867 601.994 263.505 602.033 263.146V263.146Z" fill="black"/>
</g>
<path d="M597.699 279.173C597.699 279.173 593.011 258.217 594.503 254.857C594.503 254.857 590.454 246.553 590.454 244.576C590.258 241.278 589.232 238.082 587.471 235.285C585.341 231.924 582.997 216.306 595.781 212.55C608.566 208.794 618.368 205.433 619.859 202.863C621.351 200.293 643.298 201.875 649.264 211.759C655.23 221.644 659.065 219.667 659.065 219.667C659.065 219.667 668.228 225.4 668.228 230.54C668.228 235.68 665.458 238.25 668.228 239.436C670.998 240.623 668.867 261.974 656.721 262.567L655.656 273.835C655.656 273.835 623.055 232.517 597.699 279.173Z" fill="#367CFF"/>
<path opacity="0.1" d="M599.095 216.634C599.095 216.634 596.279 233.142 601.426 238.678L599.095 216.634Z" fill="black"/>
<path opacity="0.1" d="M612.303 212.846C612.303 212.846 605.116 230.52 606.864 233.919L612.303 212.846Z" fill="black"/>
<path opacity="0.1" d="M618.517 207.214C618.517 207.214 613.662 230.229 615.992 232.074L618.517 207.214Z" fill="black"/>
<path opacity="0.1" d="M626.869 213.429C626.869 213.429 620.848 228.19 623.276 230.229L626.869 213.429Z" fill="black"/>
<path opacity="0.1" d="M638.231 215.177C638.231 215.177 631.142 227.219 632.599 229.355L638.231 215.177Z" fill="black"/>
<path opacity="0.1" d="M652.797 226.927C652.797 226.927 645.223 228.967 646.776 231.394L652.797 226.927Z" fill="black"/>
<path opacity="0.1" d="M659.984 239.455C659.984 239.455 653.186 242.756 654.448 244.504L659.984 239.455Z" fill="black"/>
<path opacity="0.1" d="M594.503 254.857C594.503 254.857 637.921 237.22 656.721 262.567C656.721 262.567 633.902 243.165 594.503 254.857Z" fill="black"/>
<path d="M578.813 399.768L584.863 393.648L601.968 410.556L595.918 416.677L580.187 401.127L578.813 399.768Z" fill="#53526B"/>
<path d="M539.123 360.534C539.123 360.534 565.602 362.787 590.247 390.526L579.975 400.917L539.123 360.534Z" fill="#DFE6F5"/>
<path d="M618.547 410.132C618.547 410.132 593.096 400.855 590.595 398.636C588.094 396.418 573.383 409.326 591.331 426.873C591.331 426.873 613.277 433.125 619.148 426.873C625.02 420.62 618.547 410.132 618.547 410.132Z" fill="#E98862"/>
<path d="M616.647 285.366C617.655 285.366 618.472 284.548 618.472 283.541C618.472 282.533 617.655 281.716 616.647 281.716C615.639 281.716 614.822 282.533 614.822 283.541C614.822 284.548 615.639 285.366 616.647 285.366Z" fill="#0C0C0C"/>
<path d="M639.647 285.366C640.655 285.366 641.472 284.548 641.472 283.541C641.472 282.533 640.655 281.716 639.647 281.716C638.639 281.716 637.822 282.533 637.822 283.541C637.822 284.548 638.639 285.366 639.647 285.366Z" fill="#0C0C0C"/>
<path d="M618.822 295.716C618.822 295.716 624.13 298.716 628.322 298.716C632.515 298.716 637.822 295.716 637.822 295.716" stroke="black"/>
<path d="M681.009 82H665.991C665.463 82 664.957 82.2051 664.583 82.5703C664.21 82.9355 664 83.4308 664 83.9472V90.3937C664 90.9101 664.21 91.4054 664.583 91.7706C664.957 92.1358 665.463 92.3409 665.991 92.3409H668.48V102H678.52V92.3409H681.009C681.537 92.3409 682.043 92.1358 682.417 91.7706C682.79 91.4054 683 90.9101 683 90.3937V83.9472C683 83.4308 682.79 82.9355 682.417 82.5703C682.043 82.2051 681.537 82 681.009 82Z" fill="#0CBC8B"/>
<path d="M748.009 82H732.991C732.463 82 731.957 82.2051 731.583 82.5703C731.21 82.9355 731 83.4308 731 83.9472V90.3937C731 90.9101 731.21 91.4054 731.583 91.7706C731.957 92.1358 732.463 92.3409 732.991 92.3409H735.48V102H745.52V92.3409H748.009C748.537 92.3409 749.043 92.1358 749.417 91.7706C749.79 91.4054 750 90.9101 750 90.3937V83.9472C750 83.4308 749.79 82.9355 749.417 82.5703C749.043 82.2051 748.537 82 748.009 82Z" fill="#0CBC8B"/>
<path d="M748.009 82H732.991C732.463 82 731.957 82.2051 731.583 82.5703C731.21 82.9355 731 83.4308 731 83.9472V90.3937C731 90.9101 731.21 91.4054 731.583 91.7706C731.957 92.1358 732.463 92.3409 732.991 92.3409H735.48V102H745.52V92.3409H748.009C748.537 92.3409 749.043 92.1358 749.417 91.7706C749.79 91.4054 750 90.9101 750 90.3937V83.9472C750 83.4308 749.79 82.9355 749.417 82.5703C749.043 82.2051 748.537 82 748.009 82Z" fill="#0CBC8B"/>
<path d="M748.009 82H732.991C732.463 82 731.957 82.2051 731.583 82.5703C731.21 82.9355 731 83.4308 731 83.9472V90.3937C731 90.9101 731.21 91.4054 731.583 91.7706C731.957 92.1358 732.463 92.3409 732.991 92.3409H735.48V102H745.52V92.3409H748.009C748.537 92.3409 749.043 92.1358 749.417 91.7706C749.79 91.4054 750 90.9101 750 90.3937V83.9472C750 83.4308 749.79 82.9355 749.417 82.5703C749.043 82.2051 748.537 82 748.009 82Z" fill="#0CBC8B"/>
<path d="M696.367 142.579C687.071 129.032 682.318 112.903 682.791 96.5025C682.799 96.1241 682.676 95.7544 682.442 95.4563C682.207 95.1581 681.877 94.9499 681.506 94.8669V92H665.475V94.8271H665.255C665.028 94.8274 664.805 94.8741 664.598 94.9643C664.391 95.0545 664.204 95.1863 664.051 95.3514C663.897 95.5165 663.779 95.7114 663.704 95.9239C663.63 96.1364 663.6 96.362 663.616 96.5866C664.879 114.119 660.615 129.841 650.823 143.754C650.259 144.554 649.971 145.514 650.002 146.49L651.755 200.488C651.797 201.693 652.305 202.835 653.172 203.675C654.039 204.516 655.199 204.99 656.409 205H692.668C693.891 204.99 695.063 204.505 695.933 203.647C696.803 202.789 697.302 201.628 697.324 200.409L697.999 147.981C698.019 146.057 697.45 144.172 696.367 142.579V142.579Z" fill="#DFE6F5"/>
<path d="M763.367 142.579C754.071 129.032 749.318 112.903 749.791 96.5025C749.799 96.1241 749.676 95.7544 749.442 95.4563C749.207 95.1581 748.877 94.9499 748.506 94.8669V92H732.475V94.8271H732.255C732.028 94.8274 731.805 94.8741 731.598 94.9643C731.391 95.0545 731.204 95.1863 731.051 95.3514C730.897 95.5165 730.779 95.7114 730.704 95.9239C730.63 96.1364 730.6 96.362 730.616 96.5866C731.879 114.119 727.615 129.841 717.823 143.754C717.259 144.554 716.971 145.514 717.002 146.49L718.755 200.488C718.797 201.693 719.305 202.835 720.172 203.675C721.039 204.516 722.199 204.99 723.409 205H759.668C760.891 204.99 762.063 204.505 762.933 203.647C763.803 202.789 764.302 201.628 764.324 200.409L764.999 147.981C765.019 146.057 764.45 144.172 763.367 142.579V142.579Z" fill="#DFE6F5"/>
<path d="M763.367 142.579C754.071 129.032 749.318 112.903 749.791 96.5025C749.799 96.1241 749.676 95.7544 749.442 95.4563C749.207 95.1581 748.877 94.9499 748.506 94.8669V92H732.475V94.8271H732.255C732.028 94.8274 731.805 94.8741 731.598 94.9643C731.391 95.0545 731.204 95.1863 731.051 95.3514C730.897 95.5165 730.779 95.7114 730.704 95.9239C730.63 96.1364 730.6 96.362 730.616 96.5866C731.879 114.119 727.615 129.841 717.823 143.754C717.259 144.554 716.971 145.514 717.002 146.49L718.755 200.488C718.797 201.693 719.305 202.835 720.172 203.675C721.039 204.516 722.199 204.99 723.409 205H759.668C760.891 204.99 762.063 204.505 762.933 203.647C763.803 202.789 764.302 201.628 764.324 200.409L764.999 147.981C765.019 146.057 764.45 144.172 763.367 142.579V142.579Z" fill="#DFE6F5"/>
<path d="M763.367 142.579C754.071 129.032 749.318 112.903 749.791 96.5025C749.799 96.1241 749.676 95.7544 749.442 95.4563C749.207 95.1581 748.877 94.9499 748.506 94.8669V92H732.475V94.8271H732.255C732.028 94.8274 731.805 94.8741 731.598 94.9643C731.391 95.0545 731.204 95.1863 731.051 95.3514C730.897 95.5165 730.779 95.7114 730.704 95.9239C730.63 96.1364 730.6 96.362 730.616 96.5866C731.879 114.119 727.615 129.841 717.823 143.754C717.259 144.554 716.971 145.514 717.002 146.49L718.755 200.488C718.797 201.693 719.305 202.835 720.172 203.675C721.039 204.516 722.199 204.99 723.409 205H759.668C760.891 204.99 762.063 204.505 762.933 203.647C763.803 202.789 764.302 201.628 764.324 200.409L764.999 147.981C765.019 146.057 764.45 144.172 763.367 142.579V142.579Z" fill="#DFE6F5"/>
<path opacity="0.2" d="M678 84C678 85.3261 677.526 86.5979 676.682 87.5355C675.838 88.4732 674.693 89 673.5 89C672.307 89 671.162 88.4732 670.318 87.5355C669.474 86.5979 669 85.3261 669 84" fill="black"/>
<path opacity="0.2" d="M745 84C745 85.3261 744.526 86.5979 743.682 87.5355C742.838 88.4732 741.693 89 740.5 89C739.307 89 738.162 88.4732 737.318 87.5355C736.474 86.5979 736 85.3261 736 84" fill="black"/>
<path opacity="0.2" d="M745 84C745 85.3261 744.526 86.5979 743.682 87.5355C742.838 88.4732 741.693 89 740.5 89C739.307 89 738.162 88.4732 737.318 87.5355C736.474 86.5979 736 85.3261 736 84" fill="black"/>
<path opacity="0.2" d="M745 84C745 85.3261 744.526 86.5979 743.682 87.5355C742.838 88.4732 741.693 89 740.5 89C739.307 89 738.162 88.4732 737.318 87.5355C736.474 86.5979 736 85.3261 736 84" fill="black"/>
<path d="M689.848 160.439H685.578C685.17 157.811 683.829 155.414 681.797 153.683C679.765 151.952 677.177 151 674.5 151C671.823 151 669.235 151.952 667.203 153.683C665.171 155.414 663.83 157.811 663.422 160.439H659.152C658.697 160.439 658.248 160.537 657.835 160.725C657.422 160.914 657.056 161.189 656.76 161.531C656.464 161.874 656.246 162.276 656.121 162.71C655.996 163.144 655.968 163.6 656.037 164.046L660.675 194H687.312L692.946 164.147C693.031 163.695 693.015 163.229 692.899 162.784C692.783 162.339 692.569 161.924 692.274 161.57C691.978 161.216 691.607 160.932 691.188 160.736C690.769 160.54 690.311 160.439 689.848 160.439Z" fill="#C1D8ED"/>
<path d="M756.848 160.439H752.578C752.17 157.811 750.829 155.414 748.797 153.683C746.765 151.952 744.177 151 741.5 151C738.823 151 736.235 151.952 734.203 153.683C732.171 155.414 730.83 157.811 730.422 160.439H726.152C725.697 160.439 725.248 160.537 724.835 160.725C724.422 160.914 724.056 161.189 723.76 161.531C723.464 161.874 723.246 162.276 723.121 162.71C722.996 163.144 722.968 163.6 723.037 164.046L727.675 194H754.312L759.946 164.147C760.031 163.695 760.015 163.229 759.899 162.784C759.783 162.339 759.569 161.924 759.274 161.57C758.978 161.216 758.607 160.932 758.188 160.736C757.769 160.54 757.311 160.439 756.848 160.439Z" fill="#C1D8ED"/>
<path d="M756.848 160.439H752.578C752.17 157.811 750.829 155.414 748.797 153.683C746.765 151.952 744.177 151 741.5 151C738.823 151 736.235 151.952 734.203 153.683C732.171 155.414 730.83 157.811 730.422 160.439H726.152C725.697 160.439 725.248 160.537 724.835 160.725C724.422 160.914 724.056 161.189 723.76 161.531C723.464 161.874 723.246 162.276 723.121 162.71C722.996 163.144 722.968 163.6 723.037 164.046L727.675 194H754.312L759.946 164.147C760.031 163.695 760.015 163.229 759.899 162.784C759.783 162.339 759.569 161.924 759.274 161.57C758.978 161.216 758.607 160.932 758.188 160.736C757.769 160.54 757.311 160.439 756.848 160.439Z" fill="#C1D8ED"/>
<path d="M756.848 160.439H752.578C752.17 157.811 750.829 155.414 748.797 153.683C746.765 151.952 744.177 151 741.5 151C738.823 151 736.235 151.952 734.203 153.683C732.171 155.414 730.83 157.811 730.422 160.439H726.152C725.697 160.439 725.248 160.537 724.835 160.725C724.422 160.914 724.056 161.189 723.76 161.531C723.464 161.874 723.246 162.276 723.121 162.71C722.996 163.144 722.968 163.6 723.037 164.046L727.675 194H754.312L759.946 164.147C760.031 163.695 760.015 163.229 759.899 162.784C759.783 162.339 759.569 161.924 759.274 161.57C758.978 161.216 758.607 160.932 758.188 160.736C757.769 160.54 757.311 160.439 756.848 160.439Z" fill="#C1D8ED"/>
</g>
<defs>
<linearGradient id="paint0_linear_23_153" x1="632.804" y1="834.56" x2="632.804" y2="199" gradientUnits="userSpaceOnUse">
<stop stop-color="#808080" stop-opacity="0.25"/>
<stop offset="0.53514" stop-color="#808080" stop-opacity="0.12"/>
<stop offset="1" stop-color="#808080" stop-opacity="0.1"/>
</linearGradient>
<clipPath id="clip0_23_153">
<rect width="890.143" height="862.058" fill="white"/>
</clipPath>
</defs>
</svg>
