<svg width="1400" height="513" viewBox="0 0 1400 513" fill="none" xmlns="http://www.w3.org/2000/svg">
<path opacity="0.1" d="M566.703 364.765C558.541 286.828 475.217 217.499 465.184 136.143C442.961 31.77 340.524 6.20059 268.962 44.0854C155.572 104.115 268.117 131.907 43.2023 277.907C-12.3342 313.957 -12.3376 495.563 154.401 469.169C244.132 454.964 271.076 454.287 310.857 454.24C411.124 454.123 580.406 495.591 566.703 364.765Z" fill="#367CFF"/>
<path d="M298.5 348C285.167 348 272.833 345.833 261.5 341.5C250.333 337 240.583 330.75 232.25 322.75C224.083 314.583 217.667 305.083 213 294.25C208.333 283.417 206 271.5 206 258.5C206 245.5 208.333 233.583 213 222.75C217.667 211.917 224.167 202.5 232.5 194.5C240.833 186.333 250.583 180.083 261.75 175.75C273.083 171.25 285.417 169 298.75 169C312.25 169 324.667 171.333 336 176C347.5 180.5 357.25 187.25 365.25 196.25L349 212C342.333 205 334.833 199.833 326.5 196.5C318.167 193 309.25 191.25 299.75 191.25C289.917 191.25 280.75 192.917 272.25 196.25C263.917 199.583 256.667 204.25 250.5 210.25C244.333 216.25 239.5 223.417 236 231.75C232.667 239.917 231 248.833 231 258.5C231 268.167 232.667 277.167 236 285.5C239.5 293.667 244.333 300.75 250.5 306.75C256.667 312.75 263.917 317.417 272.25 320.75C280.75 324.083 289.917 325.75 299.75 325.75C309.25 325.75 318.167 324.083 326.5 320.75C334.833 317.25 342.333 311.917 349 304.75L365.25 320.5C357.25 329.5 347.5 336.333 336 341C324.667 345.667 312.167 348 298.5 348ZM477.955 346V318L476.705 312.75V265C476.705 254.833 473.705 247 467.705 241.5C461.872 235.833 453.038 233 441.205 233C433.372 233 425.705 234.333 418.205 237C410.705 239.5 404.372 242.917 399.205 247.25L389.205 229.25C396.038 223.75 404.205 219.583 413.705 216.75C423.372 213.75 433.455 212.25 443.955 212.25C462.122 212.25 476.122 216.667 485.955 225.5C495.788 234.333 500.705 247.833 500.705 266V346H477.955ZM434.455 347.5C424.622 347.5 415.955 345.833 408.455 342.5C401.122 339.167 395.455 334.583 391.455 328.75C387.455 322.75 385.455 316 385.455 308.5C385.455 301.333 387.122 294.833 390.455 289C393.955 283.167 399.538 278.5 407.205 275C415.038 271.5 425.538 269.75 438.705 269.75H480.705V287H439.705C427.705 287 419.622 289 415.455 293C411.288 297 409.205 301.833 409.205 307.5C409.205 314 411.788 319.25 416.955 323.25C422.122 327.083 429.288 329 438.455 329C447.455 329 455.288 327 461.955 323C468.788 319 473.705 313.167 476.705 305.5L481.455 322C478.288 329.833 472.705 336.083 464.705 340.75C456.705 345.25 446.622 347.5 434.455 347.5ZM615.369 347.5C604.369 347.5 594.286 345 585.119 340C576.119 334.833 568.869 327.25 563.369 317.25C558.036 307.25 555.369 294.75 555.369 279.75C555.369 264.75 557.952 252.25 563.119 242.25C568.452 232.25 575.619 224.75 584.619 219.75C593.786 214.75 604.036 212.25 615.369 212.25C628.369 212.25 639.869 215.083 649.869 220.75C659.869 226.417 667.786 234.333 673.619 244.5C679.452 254.5 682.369 266.25 682.369 279.75C682.369 293.25 679.452 305.083 673.619 315.25C667.786 325.417 659.869 333.333 649.869 339C639.869 344.667 628.369 347.5 615.369 347.5ZM545.119 394.5V213.5H568.119V249.25L566.619 280L569.119 310.75V394.5H545.119ZM613.369 326.5C621.869 326.5 629.452 324.583 636.119 320.75C642.952 316.917 648.286 311.5 652.119 304.5C656.119 297.333 658.119 289.083 658.119 279.75C658.119 270.25 656.119 262.083 652.119 255.25C648.286 248.25 642.952 242.833 636.119 239C629.452 235.167 621.869 233.25 613.369 233.25C605.036 233.25 597.452 235.167 590.619 239C583.952 242.833 578.619 248.25 574.619 255.25C570.786 262.083 568.869 270.25 568.869 279.75C568.869 289.083 570.786 297.333 574.619 304.5C578.619 311.5 583.952 316.917 590.619 320.75C597.452 324.583 605.036 326.5 613.369 326.5ZM753.529 347.5C742.529 347.5 732.029 346 722.029 343C712.196 340 704.446 336.333 698.779 332L708.779 313C714.446 316.833 721.446 320.083 729.779 322.75C738.113 325.417 746.613 326.75 755.279 326.75C766.446 326.75 774.446 325.167 779.279 322C784.279 318.833 786.779 314.417 786.779 308.75C786.779 304.583 785.279 301.333 782.279 299C779.279 296.667 775.279 294.917 770.279 293.75C765.446 292.583 760.029 291.583 754.029 290.75C748.029 289.75 742.029 288.583 736.029 287.25C730.029 285.75 724.529 283.75 719.529 281.25C714.529 278.583 710.529 275 707.529 270.5C704.529 265.833 703.029 259.667 703.029 252C703.029 244 705.279 237 709.779 231C714.279 225 720.613 220.417 728.779 217.25C737.113 213.917 746.946 212.25 758.279 212.25C766.946 212.25 775.696 213.333 784.529 215.5C793.529 217.5 800.863 220.417 806.529 224.25L796.279 243.25C790.279 239.25 784.029 236.5 777.529 235C771.029 233.5 764.529 232.75 758.029 232.75C747.529 232.75 739.696 234.5 734.529 238C729.363 241.333 726.779 245.667 726.779 251C726.779 255.5 728.279 259 731.279 261.5C734.446 263.833 738.446 265.667 743.279 267C748.279 268.333 753.779 269.5 759.779 270.5C765.779 271.333 771.779 272.5 777.779 274C783.779 275.333 789.196 277.25 794.029 279.75C799.029 282.25 803.029 285.75 806.029 290.25C809.196 294.75 810.779 300.75 810.779 308.25C810.779 316.25 808.446 323.167 803.779 329C799.113 334.833 792.529 339.417 784.029 342.75C775.529 345.917 765.363 347.5 753.529 347.5ZM886.273 347.5C872.94 347.5 862.607 343.917 855.273 336.75C847.94 329.583 844.273 319.333 844.273 306V184.5H868.273V305C868.273 312.167 870.023 317.667 873.523 321.5C877.19 325.333 882.357 327.25 889.023 327.25C896.523 327.25 902.773 325.167 907.773 321L915.273 338.25C911.607 341.417 907.19 343.75 902.023 345.25C897.023 346.75 891.773 347.5 886.273 347.5ZM821.773 233.25V213.5H906.273V233.25H821.773ZM996.645 347.5C983.311 347.5 971.478 344.583 961.145 338.75C950.811 332.917 942.645 324.917 936.645 314.75C930.645 304.417 927.645 292.75 927.645 279.75C927.645 266.583 930.645 254.917 936.645 244.75C942.645 234.583 950.811 226.667 961.145 221C971.478 215.167 983.311 212.25 996.645 212.25C1009.81 212.25 1021.56 215.167 1031.89 221C1042.39 226.667 1050.56 234.583 1056.39 244.75C1062.39 254.75 1065.39 266.417 1065.39 279.75C1065.39 292.917 1062.39 304.583 1056.39 314.75C1050.56 324.917 1042.39 332.917 1031.89 338.75C1021.56 344.583 1009.81 347.5 996.645 347.5ZM996.645 326.5C1005.14 326.5 1012.73 324.583 1019.39 320.75C1026.23 316.917 1031.56 311.5 1035.39 304.5C1039.23 297.333 1041.14 289.083 1041.14 279.75C1041.14 270.25 1039.23 262.083 1035.39 255.25C1031.56 248.25 1026.23 242.833 1019.39 239C1012.73 235.167 1005.14 233.25 996.645 233.25C988.145 233.25 980.561 235.167 973.895 239C967.228 242.833 961.895 248.25 957.895 255.25C953.895 262.083 951.895 270.25 951.895 279.75C951.895 289.083 953.895 297.333 957.895 304.5C961.895 311.5 967.228 316.917 973.895 320.75C980.561 324.583 988.145 326.5 996.645 326.5ZM1169.34 212.25C1180.17 212.25 1189.67 214.333 1197.84 218.5C1206.17 222.667 1212.67 229 1217.34 237.5C1222 246 1224.34 256.75 1224.34 269.75V346H1200.34V272.5C1200.34 259.667 1197.17 250 1190.84 243.5C1184.67 237 1175.92 233.75 1164.59 233.75C1156.09 233.75 1148.67 235.417 1142.34 238.75C1136 242.083 1131.09 247 1127.59 253.5C1124.25 260 1122.59 268.083 1122.59 277.75V346H1098.59V213.5H1121.59V249.25L1117.84 239.75C1122.17 231.083 1128.84 224.333 1137.84 219.5C1146.84 214.667 1157.34 212.25 1169.34 212.25ZM1327.75 347.5C1313.59 347.5 1301.09 344.583 1290.25 338.75C1279.59 332.917 1271.25 324.917 1265.25 314.75C1259.42 304.583 1256.5 292.917 1256.5 279.75C1256.5 266.583 1259.34 254.917 1265 244.75C1270.84 234.583 1278.75 226.667 1288.75 221C1298.92 215.167 1310.34 212.25 1323 212.25C1335.84 212.25 1347.17 215.083 1357 220.75C1366.84 226.417 1374.5 234.417 1380 244.75C1385.67 254.917 1388.5 266.833 1388.5 280.5C1388.5 281.5 1388.42 282.667 1388.25 284C1388.25 285.333 1388.17 286.583 1388 287.75H1275.25V270.5H1375.5L1365.75 276.5C1365.92 268 1364.17 260.417 1360.5 253.75C1356.84 247.083 1351.75 241.917 1345.25 238.25C1338.92 234.417 1331.5 232.5 1323 232.5C1314.67 232.5 1307.25 234.417 1300.75 238.25C1294.25 241.917 1289.17 247.167 1285.5 254C1281.84 260.667 1280 268.333 1280 277V281C1280 289.833 1282 297.75 1286 304.75C1290.17 311.583 1295.92 316.917 1303.25 320.75C1310.59 324.583 1319 326.5 1328.5 326.5C1336.34 326.5 1343.42 325.167 1349.75 322.5C1356.25 319.833 1361.92 315.833 1366.75 310.5L1380 326C1374 333 1366.5 338.333 1357.5 342C1348.67 345.667 1338.75 347.5 1327.75 347.5Z" fill="#0CBC8B"/>
</svg>
