<svg width="1379" height="464" viewBox="0 0 1379 464" fill="none" xmlns="http://www.w3.org/2000/svg">
<path opacity="0.1" d="M555.536 315.371C540.293 238.505 450.989 177.071 433.571 96.9709C401.914 -4.93805 297.57 -21.05 229.765 23.209C122.328 93.3379 236.941 110.741 26.2919 276.662C-25.7221 317.631 -9.14807 498.479 154.485 456.975C242.545 434.639 269.315 431.505 308.925 427.827C408.763 418.558 581.123 444.4 555.536 315.371Z" fill="#367CFF"/>
<path d="M277.5 344C264.167 344 251.833 341.833 240.5 337.5C229.333 333 219.583 326.75 211.25 318.75C203.083 310.583 196.667 301.083 192 290.25C187.333 279.417 185 267.5 185 254.5C185 241.5 187.333 229.583 192 218.75C196.667 207.917 203.167 198.5 211.5 190.5C219.833 182.333 229.583 176.083 240.75 171.75C252.083 167.25 264.417 165 277.75 165C291.25 165 303.667 167.333 315 172C326.5 176.5 336.25 183.25 344.25 192.25L328 208C321.333 201 313.833 195.833 305.5 192.5C297.167 189 288.25 187.25 278.75 187.25C268.917 187.25 259.75 188.917 251.25 192.25C242.917 195.583 235.667 200.25 229.5 206.25C223.333 212.25 218.5 219.417 215 227.75C211.667 235.917 210 244.833 210 254.5C210 264.167 211.667 273.167 215 281.5C218.5 289.667 223.333 296.75 229.5 302.75C235.667 308.75 242.917 313.417 251.25 316.75C259.75 320.083 268.917 321.75 278.75 321.75C288.25 321.75 297.167 320.083 305.5 316.75C313.833 313.25 321.333 307.917 328 300.75L344.25 316.5C336.25 325.5 326.5 332.333 315 337C303.667 341.667 291.167 344 277.5 344ZM456.955 342V314L455.705 308.75V261C455.705 250.833 452.705 243 446.705 237.5C440.872 231.833 432.038 229 420.205 229C412.372 229 404.705 230.333 397.205 233C389.705 235.5 383.372 238.917 378.205 243.25L368.205 225.25C375.038 219.75 383.205 215.583 392.705 212.75C402.372 209.75 412.455 208.25 422.955 208.25C441.122 208.25 455.122 212.667 464.955 221.5C474.788 230.333 479.705 243.833 479.705 262V342H456.955ZM413.455 343.5C403.622 343.5 394.955 341.833 387.455 338.5C380.122 335.167 374.455 330.583 370.455 324.75C366.455 318.75 364.455 312 364.455 304.5C364.455 297.333 366.122 290.833 369.455 285C372.955 279.167 378.538 274.5 386.205 271C394.038 267.5 404.538 265.75 417.705 265.75H459.705V283H418.705C406.705 283 398.622 285 394.455 289C390.288 293 388.205 297.833 388.205 303.5C388.205 310 390.788 315.25 395.955 319.25C401.122 323.083 408.288 325 417.455 325C426.455 325 434.288 323 440.955 319C447.788 315 452.705 309.167 455.705 301.5L460.455 318C457.288 325.833 451.705 332.083 443.705 336.75C435.705 341.25 425.622 343.5 413.455 343.5ZM594.369 343.5C583.369 343.5 573.286 341 564.119 336C555.119 330.833 547.869 323.25 542.369 313.25C537.036 303.25 534.369 290.75 534.369 275.75C534.369 260.75 536.952 248.25 542.119 238.25C547.452 228.25 554.619 220.75 563.619 215.75C572.786 210.75 583.036 208.25 594.369 208.25C607.369 208.25 618.869 211.083 628.869 216.75C638.869 222.417 646.786 230.333 652.619 240.5C658.452 250.5 661.369 262.25 661.369 275.75C661.369 289.25 658.452 301.083 652.619 311.25C646.786 321.417 638.869 329.333 628.869 335C618.869 340.667 607.369 343.5 594.369 343.5ZM524.119 390.5V209.5H547.119V245.25L545.619 276L548.119 306.75V390.5H524.119ZM592.369 322.5C600.869 322.5 608.452 320.583 615.119 316.75C621.952 312.917 627.286 307.5 631.119 300.5C635.119 293.333 637.119 285.083 637.119 275.75C637.119 266.25 635.119 258.083 631.119 251.25C627.286 244.25 621.952 238.833 615.119 235C608.452 231.167 600.869 229.25 592.369 229.25C584.036 229.25 576.452 231.167 569.619 235C562.952 238.833 557.619 244.25 553.619 251.25C549.786 258.083 547.869 266.25 547.869 275.75C547.869 285.083 549.786 293.333 553.619 300.5C557.619 307.5 562.952 312.917 569.619 316.75C576.452 320.583 584.036 322.5 592.369 322.5ZM732.529 343.5C721.529 343.5 711.029 342 701.029 339C691.196 336 683.446 332.333 677.779 328L687.779 309C693.446 312.833 700.446 316.083 708.779 318.75C717.113 321.417 725.613 322.75 734.279 322.75C745.446 322.75 753.446 321.167 758.279 318C763.279 314.833 765.779 310.417 765.779 304.75C765.779 300.583 764.279 297.333 761.279 295C758.279 292.667 754.279 290.917 749.279 289.75C744.446 288.583 739.029 287.583 733.029 286.75C727.029 285.75 721.029 284.583 715.029 283.25C709.029 281.75 703.529 279.75 698.529 277.25C693.529 274.583 689.529 271 686.529 266.5C683.529 261.833 682.029 255.667 682.029 248C682.029 240 684.279 233 688.779 227C693.279 221 699.613 216.417 707.779 213.25C716.113 209.917 725.946 208.25 737.279 208.25C745.946 208.25 754.696 209.333 763.529 211.5C772.529 213.5 779.863 216.417 785.529 220.25L775.279 239.25C769.279 235.25 763.029 232.5 756.529 231C750.029 229.5 743.529 228.75 737.029 228.75C726.529 228.75 718.696 230.5 713.529 234C708.363 237.333 705.779 241.667 705.779 247C705.779 251.5 707.279 255 710.279 257.5C713.446 259.833 717.446 261.667 722.279 263C727.279 264.333 732.779 265.5 738.779 266.5C744.779 267.333 750.779 268.5 756.779 270C762.779 271.333 768.196 273.25 773.029 275.75C778.029 278.25 782.029 281.75 785.029 286.25C788.196 290.75 789.779 296.75 789.779 304.25C789.779 312.25 787.446 319.167 782.779 325C778.113 330.833 771.529 335.417 763.029 338.75C754.529 341.917 744.363 343.5 732.529 343.5ZM865.273 343.5C851.94 343.5 841.607 339.917 834.273 332.75C826.94 325.583 823.273 315.333 823.273 302V180.5H847.273V301C847.273 308.167 849.023 313.667 852.523 317.5C856.19 321.333 861.357 323.25 868.023 323.25C875.523 323.25 881.773 321.167 886.773 317L894.273 334.25C890.607 337.417 886.19 339.75 881.023 341.25C876.023 342.75 870.773 343.5 865.273 343.5ZM800.773 229.25V209.5H885.273V229.25H800.773ZM975.645 343.5C962.311 343.5 950.478 340.583 940.145 334.75C929.811 328.917 921.645 320.917 915.645 310.75C909.645 300.417 906.645 288.75 906.645 275.75C906.645 262.583 909.645 250.917 915.645 240.75C921.645 230.583 929.811 222.667 940.145 217C950.478 211.167 962.311 208.25 975.645 208.25C988.811 208.25 1000.56 211.167 1010.89 217C1021.39 222.667 1029.56 230.583 1035.39 240.75C1041.39 250.75 1044.39 262.417 1044.39 275.75C1044.39 288.917 1041.39 300.583 1035.39 310.75C1029.56 320.917 1021.39 328.917 1010.89 334.75C1000.56 340.583 988.811 343.5 975.645 343.5ZM975.645 322.5C984.145 322.5 991.728 320.583 998.395 316.75C1005.23 312.917 1010.56 307.5 1014.39 300.5C1018.23 293.333 1020.14 285.083 1020.14 275.75C1020.14 266.25 1018.23 258.083 1014.39 251.25C1010.56 244.25 1005.23 238.833 998.395 235C991.728 231.167 984.145 229.25 975.645 229.25C967.145 229.25 959.561 231.167 952.895 235C946.228 238.833 940.895 244.25 936.895 251.25C932.895 258.083 930.895 266.25 930.895 275.75C930.895 285.083 932.895 293.333 936.895 300.5C940.895 307.5 946.228 312.917 952.895 316.75C959.561 320.583 967.145 322.5 975.645 322.5ZM1148.34 208.25C1159.17 208.25 1168.67 210.333 1176.84 214.5C1185.17 218.667 1191.67 225 1196.34 233.5C1201 242 1203.34 252.75 1203.34 265.75V342H1179.34V268.5C1179.34 255.667 1176.17 246 1169.84 239.5C1163.67 233 1154.92 229.75 1143.59 229.75C1135.09 229.75 1127.67 231.417 1121.34 234.75C1115 238.083 1110.09 243 1106.59 249.5C1103.25 256 1101.59 264.083 1101.59 273.75V342H1077.59V209.5H1100.59V245.25L1096.84 235.75C1101.17 227.083 1107.84 220.333 1116.84 215.5C1125.84 210.667 1136.34 208.25 1148.34 208.25ZM1306.75 343.5C1292.59 343.5 1280.09 340.583 1269.25 334.75C1258.59 328.917 1250.25 320.917 1244.25 310.75C1238.42 300.583 1235.5 288.917 1235.5 275.75C1235.5 262.583 1238.34 250.917 1244 240.75C1249.84 230.583 1257.75 222.667 1267.75 217C1277.92 211.167 1289.34 208.25 1302 208.25C1314.84 208.25 1326.17 211.083 1336 216.75C1345.84 222.417 1353.5 230.417 1359 240.75C1364.67 250.917 1367.5 262.833 1367.5 276.5C1367.5 277.5 1367.42 278.667 1367.25 280C1367.25 281.333 1367.17 282.583 1367 283.75H1254.25V266.5H1354.5L1344.75 272.5C1344.92 264 1343.17 256.417 1339.5 249.75C1335.84 243.083 1330.75 237.917 1324.25 234.25C1317.92 230.417 1310.5 228.5 1302 228.5C1293.67 228.5 1286.25 230.417 1279.75 234.25C1273.25 237.917 1268.17 243.167 1264.5 250C1260.84 256.667 1259 264.333 1259 273V277C1259 285.833 1261 293.75 1265 300.75C1269.17 307.583 1274.92 312.917 1282.25 316.75C1289.59 320.583 1298 322.5 1307.5 322.5C1315.34 322.5 1322.42 321.167 1328.75 318.5C1335.25 315.833 1340.92 311.833 1345.75 306.5L1359 322C1353 329 1345.5 334.333 1336.5 338C1327.67 341.667 1317.75 343.5 1306.75 343.5Z" fill="#0CBC8B"/>
</svg>
