<svg width="559" height="476" viewBox="0 0 559 476" fill="none" xmlns="http://www.w3.org/2000/svg">
<path opacity="0.1" d="M555.536 328.048C540.293 251.182 450.989 189.748 433.571 109.648C401.914 7.73895 297.57 -8.37305 229.765 35.886C122.328 106.015 236.941 123.418 26.2919 289.339C-25.7221 330.308 -9.14807 511.156 154.485 469.652C242.545 447.316 269.315 444.182 308.925 440.504C408.763 431.235 581.123 457.078 555.536 328.048Z" fill="#367CFF"/>
<path d="M436.267 347.313L281.957 428.812L127.88 347.313V224.243H436.267V347.313Z" fill="white"/>
<path d="M281.957 430.062C281.753 430.062 281.552 430.012 281.372 429.916L127.3 348.417C127.1 348.311 126.932 348.153 126.814 347.959C126.697 347.766 126.635 347.544 126.634 347.317V224.243C126.634 223.912 126.766 223.594 127 223.359C127.234 223.125 127.552 222.993 127.884 222.993H436.267C436.598 222.993 436.916 223.125 437.151 223.359C437.385 223.594 437.517 223.912 437.517 224.243V347.313C437.516 347.54 437.454 347.762 437.336 347.955C437.219 348.149 437.051 348.307 436.851 348.413L282.541 429.913C282.361 430.01 282.161 430.061 281.957 430.062V430.062ZM129.13 346.562L281.957 427.399L435.017 346.56V225.493H129.13V346.562Z" fill="#262626"/>
<path d="M436.267 197.834L281.957 116.335L351.298 82.9121L505.608 164.412L436.267 197.834Z" fill="white"/>
<path d="M436.267 199.084C436.064 199.084 435.863 199.035 435.683 198.94L281.373 117.44C281.169 117.332 280.998 117.169 280.881 116.97C280.763 116.771 280.703 116.543 280.707 116.311C280.712 116.08 280.78 115.855 280.905 115.66C281.029 115.465 281.206 115.309 281.414 115.208L350.755 81.7851C350.931 81.6996 351.125 81.657 351.321 81.6606C351.517 81.6643 351.709 81.7141 351.882 81.8061L506.192 163.306C506.396 163.414 506.567 163.577 506.684 163.776C506.802 163.975 506.862 164.203 506.858 164.434C506.853 164.665 506.785 164.891 506.66 165.086C506.536 165.28 506.359 165.437 506.151 165.537L436.81 198.96C436.641 199.042 436.455 199.084 436.267 199.084V199.084ZM284.73 116.384L436.293 196.432L502.835 164.359L351.272 84.3131L284.73 116.384Z" fill="#262626"/>
<path d="M127.88 197.834L282.19 116.335L212.849 82.9121L58.5389 164.412L127.88 197.834Z" fill="white"/>
<path d="M127.88 199.084C127.692 199.084 127.506 199.042 127.337 198.96L57.9999 165.537C57.7917 165.437 57.6153 165.28 57.4906 165.086C57.3658 164.891 57.2975 164.665 57.2932 164.434C57.289 164.203 57.349 163.975 57.4665 163.776C57.584 163.577 57.7545 163.414 57.9589 163.306L212.269 81.8061C212.442 81.7141 212.634 81.6643 212.83 81.6606C213.026 81.657 213.22 81.6996 213.396 81.7851L282.737 115.208C282.945 115.309 283.121 115.465 283.246 115.66C283.371 115.855 283.439 116.08 283.443 116.311C283.448 116.543 283.388 116.771 283.27 116.97C283.153 117.169 282.982 117.332 282.778 117.44L128.468 198.94C128.287 199.035 128.085 199.085 127.88 199.084ZM61.3119 164.361L127.854 196.434L279.417 116.386L212.875 84.3131L61.3119 164.361Z" fill="#262626"/>
<path d="M127.88 197.834L282.19 279.334L202.849 322.756L48.5389 241.257L127.88 197.834Z" fill="white"/>
<path d="M202.849 324.006C202.645 324.006 202.445 323.957 202.265 323.861L47.9549 242.361C47.7557 242.255 47.5888 242.098 47.4718 241.905C47.3549 241.712 47.2923 241.491 47.2906 241.266C47.289 241.04 47.3484 240.819 47.4625 240.624C47.5766 240.43 47.7413 240.27 47.9389 240.161L127.28 196.738C127.461 196.639 127.664 196.586 127.871 196.585C128.078 196.583 128.281 196.633 128.464 196.73L282.774 278.23C282.973 278.336 283.14 278.493 283.257 278.686C283.374 278.879 283.437 279.1 283.438 279.325C283.44 279.551 283.38 279.773 283.266 279.967C283.152 280.162 282.988 280.322 282.79 280.43L203.449 323.853C203.265 323.954 203.059 324.006 202.849 324.006V324.006ZM51.1789 241.237L202.838 321.337L279.551 279.353L127.891 199.253L51.1789 241.237Z" fill="#262626"/>
<path d="M436.267 197.834L281.957 279.334L361.298 322.756L515.608 241.257L436.267 197.834Z" fill="white"/>
<path d="M361.3 324.006C361.09 324.006 360.884 323.953 360.7 323.853L281.359 280.43C281.161 280.322 280.997 280.162 280.882 279.967C280.768 279.773 280.709 279.551 280.711 279.325C280.712 279.1 280.775 278.879 280.892 278.686C281.009 278.493 281.176 278.336 281.375 278.23L435.685 196.73C435.867 196.633 436.071 196.583 436.278 196.585C436.485 196.586 436.688 196.639 436.869 196.738L516.21 240.161C516.408 240.27 516.572 240.43 516.686 240.624C516.8 240.819 516.86 241.04 516.858 241.266C516.857 241.491 516.794 241.712 516.677 241.905C516.56 242.098 516.393 242.255 516.194 242.361L361.884 323.861C361.704 323.957 361.503 324.006 361.3 324.006V324.006ZM284.6 279.353L361.312 321.337L512.972 241.237L436.259 199.253L284.6 279.353Z" fill="#262626"/>
<path d="M282.19 116.335L127.88 197.834L281.957 279.334L436.267 197.834L282.19 116.335Z" fill="#535461"/>
<path d="M283.207 279.333H280.707V428.812H283.207V279.333Z" fill="#262626"/>
<path d="M195.5 190.435C195.293 190.435 195.091 190.37 194.923 190.25C194.707 190.097 194.56 189.864 194.515 189.602C194.471 189.341 194.532 189.072 194.685 188.856C194.87 188.595 212.943 162.467 192.767 138.647C189.196 134.409 184.741 131.003 179.715 128.669C174.689 126.334 169.214 125.126 163.672 125.131H163.4C165.316 131.787 164.974 137.705 162.261 142.245C161.105 144.296 159.399 145.984 157.335 147.119C155.272 148.253 152.932 148.789 150.581 148.665C148.634 148.506 146.777 147.782 145.235 146.583C143.693 145.383 142.535 143.761 141.902 141.913C139.683 136.125 142.002 130.513 148.114 126.896C151.986 124.761 156.288 123.523 160.703 123.275C159.267 119.467 157.399 115.837 155.137 112.454C147.852 101.328 134.575 93.6259 118.709 91.3229C105.263 89.3719 92.3769 91.6699 85.8759 97.1759C85.6734 97.3473 85.4112 97.4311 85.1468 97.4091C84.8825 97.3871 84.6378 97.2609 84.4664 97.0584C84.2951 96.856 84.2112 96.5937 84.2333 96.3294C84.2553 96.065 84.3814 95.8203 84.5839 95.6489C91.5019 89.7899 105.009 87.3129 118.996 89.3489C135.429 91.7349 149.211 99.7579 156.811 111.363C159.275 115.043 161.279 119.012 162.779 123.179C168.757 123.035 174.691 124.235 180.145 126.689C185.598 129.143 190.431 132.789 194.288 137.359C215.481 162.378 196.505 189.744 196.311 190.018C196.218 190.147 196.097 190.252 195.956 190.324C195.815 190.397 195.658 190.435 195.5 190.435ZM161.352 125.204C157.072 125.386 152.891 126.555 149.137 128.618C143.861 131.74 141.907 136.326 143.774 141.198C144.28 142.691 145.21 144.004 146.45 144.976C147.691 145.949 149.188 146.539 150.758 146.674C152.735 146.763 154.698 146.299 156.427 145.336C158.156 144.373 159.583 142.948 160.549 141.22C163.039 137.05 163.267 131.507 161.349 125.204H161.352Z" fill="#0CBC8B"/>
<path d="M68.6169 113.299C66.9175 113.81 65.086 113.637 63.5123 112.817C61.9386 111.997 60.7471 110.596 60.1914 108.91C59.6357 107.225 59.7597 105.39 60.5371 103.795C61.3145 102.2 62.6838 100.971 64.3535 100.371C66.0231 99.7703 67.8613 99.8453 69.4765 100.58C71.0917 101.314 72.3564 102.65 73.0012 104.303C73.6461 105.956 73.6202 107.796 72.9291 109.43C72.2379 111.064 70.9361 112.364 69.3009 113.053C69.0775 113.147 68.8492 113.23 68.6169 113.299V113.299ZM65.2919 102.187C65.1299 102.236 64.9707 102.293 64.8149 102.359C63.6643 102.844 62.7486 103.759 62.2627 104.91C61.7769 106.06 61.7594 107.355 62.2139 108.518C62.6684 109.681 63.559 110.62 64.6961 111.136C65.8331 111.652 67.1267 111.704 68.3014 111.281C69.4761 110.857 70.4389 109.992 70.9849 108.869C71.531 107.746 71.617 106.454 71.2246 105.268C70.8323 104.083 69.9927 103.098 68.8845 102.522C67.7764 101.946 66.4873 101.826 65.2919 102.187Z" fill="#0CBC8B"/>
<path d="M68.6049 97.629C66.9974 98.1089 65.2692 97.9778 63.7526 97.2606C62.2359 96.5435 61.038 95.291 60.3889 93.744V93.744C59.8685 92.5038 59.7276 91.1371 59.984 89.8167C60.2404 88.4964 60.8826 87.2818 61.8293 86.3265C62.776 85.3711 63.9848 84.718 65.3027 84.4497C66.6207 84.1814 67.9886 84.3099 69.2335 84.8191C70.4784 85.3282 71.5443 86.1951 72.2965 87.31C73.0487 88.425 73.4533 89.738 73.4593 91.083C73.4652 92.428 73.0721 93.7445 72.3298 94.866C71.5875 95.9876 70.5293 96.8639 69.2889 97.384C69.0653 97.4775 68.837 97.5593 68.6049 97.629V97.629ZM65.2839 86.516C65.12 86.5651 64.9588 86.6229 64.8009 86.689C63.6278 87.1817 62.6983 88.1201 62.2168 89.2979C61.7352 90.4757 61.741 91.7965 62.2329 92.97V92.97C62.5917 93.8254 63.1906 94.5586 63.9572 95.0808C64.7239 95.603 65.6254 95.8919 66.5528 95.9125C67.4801 95.9331 68.3936 95.6846 69.1827 95.1969C69.9718 94.7093 70.6027 94.0035 70.9991 93.1648C71.3955 92.3262 71.5404 91.3907 71.4163 90.4714C71.2922 89.5521 70.9043 88.6885 70.2997 87.985C69.6951 87.2815 68.8996 86.7683 68.0095 86.5074C67.1193 86.2465 66.1726 86.2492 65.2839 86.515V86.516Z" fill="#0CBC8B"/>
<path d="M66.6639 104.701C71.5748 104.701 75.5559 102.042 75.5559 98.762C75.5559 95.482 71.5748 92.823 66.6639 92.823C61.753 92.823 57.7719 95.482 57.7719 98.762C57.7719 102.042 61.753 104.701 66.6639 104.701Z" fill="white"/>
<path d="M70.5999 105.138C69.325 105.515 68.0023 105.705 66.6729 105.702C61.1249 105.702 56.7729 102.662 56.7729 98.7711C56.7729 94.8801 61.1119 91.8291 66.6579 91.8231C69.0758 91.7767 71.4548 92.437 73.5029 93.7231C74.4227 94.2023 75.1937 94.9244 75.732 95.811C76.2704 96.6975 76.5555 97.7147 76.5564 98.7519C76.5574 99.7891 76.2741 100.807 75.7373 101.694C75.2006 102.582 74.4309 103.305 73.5119 103.786C72.6135 104.378 71.6321 104.834 70.5999 105.138V105.138ZM63.3379 94.2991C60.6659 95.0991 58.7719 96.8261 58.7729 98.7661C58.7729 101.443 62.3899 103.702 66.6729 103.698C68.6961 103.741 70.6879 103.193 72.4049 102.122C73.0489 101.825 73.5942 101.35 73.9763 100.753C74.3584 100.156 74.5611 99.4617 74.5605 98.7527C74.5599 98.0437 74.3559 97.3498 73.9728 96.7532C73.5896 96.1567 73.0434 95.6825 72.3989 95.3871C70.6806 94.3184 68.6879 93.7741 66.6649 93.8211C65.5386 93.8182 64.4178 93.9792 63.3379 94.2991V94.2991Z" fill="#0CBC8B"/>
<path d="M68.8449 104.52L68.6349 92.97L65.7629 92.854L65.5619 104.655L68.8449 104.52Z" fill="#0CBC8B"/>
<path d="M54.8669 101.275C55.3739 101.275 55.7849 100.864 55.7849 100.357C55.7849 99.85 55.3739 99.439 54.8669 99.439C54.3599 99.439 53.9489 99.85 53.9489 100.357C53.9489 100.864 54.3599 101.275 54.8669 101.275Z" fill="#0CBC8B"/>
<path d="M55.5839 96.3629C56.0909 96.3629 56.5019 95.9519 56.5019 95.4449C56.5019 94.9379 56.0909 94.5269 55.5839 94.5269C55.0769 94.5269 54.6659 94.9379 54.6659 95.4449C54.6659 95.9519 55.0769 96.3629 55.5839 96.3629Z" fill="#0CBC8B"/>
<path d="M352.625 132.765C352.411 132.765 352.202 132.696 352.03 132.569C351.858 132.442 351.732 132.263 351.669 132.058C348.352 119.672 347.467 106.76 349.063 94.037C351.648 75.437 361.906 51.026 396.093 40.337C400.903 38.7904 405.837 37.6592 410.841 36.956C412.452 26.895 418.58 15.981 432.285 8.45098C464.847 -9.44102 486.842 6.61198 487.06 6.77598C487.272 6.93511 487.412 7.17201 487.45 7.43456C487.487 7.69711 487.419 7.9638 487.26 8.17598C487.101 8.38815 486.864 8.52842 486.601 8.56593C486.339 8.60343 486.072 8.53511 485.86 8.37598C485.652 8.21998 464.632 -7.04102 433.249 10.205C420.443 17.242 414.581 27.342 412.914 36.718C427.993 35.233 435.214 40.263 438.455 44.062C440.46 46.3465 441.749 49.1706 442.16 52.1823C442.572 55.1941 442.088 58.2603 440.769 60.999C439.727 63.2126 438.037 65.058 435.924 66.2915C433.811 67.5251 431.374 68.0887 428.934 67.908C420.513 67.414 413.544 60.33 411.182 49.86C410.403 46.3157 410.195 42.6697 410.568 39.06C405.862 39.7361 401.22 40.8035 396.691 42.251C370.046 50.582 354.691 68.101 351.043 94.318C349.48 106.752 350.342 119.372 353.581 131.478C353.627 131.628 353.637 131.786 353.61 131.94C353.584 132.094 353.522 132.24 353.429 132.365C353.336 132.491 353.215 132.593 353.075 132.664C352.935 132.734 352.781 132.771 352.625 132.771V132.765ZM412.607 38.81C412.19 42.3509 412.368 45.9366 413.133 49.419C415.294 58.997 421.542 65.47 429.051 65.911C431.097 66.0576 433.141 65.5822 434.912 64.5472C436.684 63.5122 438.102 61.9658 438.979 60.111C440.122 57.7228 440.538 55.051 440.173 52.4284C439.809 49.8058 438.682 47.3483 436.931 45.362C432.255 39.875 423.722 37.659 412.607 38.81V38.81Z" fill="#0CBC8B"/>
<path d="M510.354 16.8829C509.007 16.88 507.688 16.4964 506.55 15.7763C505.412 15.0561 504.501 14.0288 503.921 12.8129C503.342 11.5969 503.118 10.242 503.276 8.90436C503.434 7.56675 503.967 6.30101 504.813 5.25322C505.659 4.20543 506.784 3.41832 508.059 2.98271C509.333 2.54711 510.705 2.48077 512.016 2.79136C513.326 3.10196 514.522 3.77681 515.466 4.73805C516.409 5.69928 517.062 6.90771 517.348 8.22386V8.22386C517.572 9.26718 517.56 10.3474 517.313 11.3855C517.065 12.4236 516.589 13.3932 515.918 14.2233C515.248 15.0535 514.4 15.7231 513.437 16.1833C512.475 16.6435 511.421 16.8825 510.354 16.8829V16.8829ZM510.369 4.59886C509.305 4.59884 508.268 4.92871 507.4 5.54301C506.531 6.15731 505.875 7.02579 505.521 8.02877C505.167 9.03174 505.133 10.1198 505.423 11.1431C505.713 12.1663 506.314 13.0743 507.142 13.7419C507.97 14.4095 508.984 14.8039 510.046 14.8707C511.107 14.9375 512.164 14.6734 513.069 14.1148C513.974 13.5562 514.683 12.7306 515.1 11.7519C515.516 10.7731 515.618 9.6893 515.393 8.64986C515.149 7.49983 514.516 6.46901 513.601 5.7311C512.686 4.99319 511.544 4.59331 510.369 4.59886V4.59886Z" fill="#0CBC8B"/>
<path d="M507.343 33.2039C505.51 33.2038 503.747 32.501 502.417 31.2402C501.086 29.9794 500.29 28.2566 500.192 26.4264C500.093 24.5962 500.7 22.798 501.888 21.4018C503.075 20.0057 504.753 19.1179 506.575 18.9212C508.397 18.7246 510.226 19.2341 511.683 20.3447C513.141 21.4554 514.118 23.0828 514.412 24.8918C514.707 26.7008 514.296 28.5539 513.266 30.0694C512.235 31.585 510.662 32.6478 508.872 33.0389C508.37 33.1486 507.857 33.2039 507.343 33.2039V33.2039ZM507.368 20.9189C506.998 20.9191 506.629 20.959 506.268 21.0379C504.99 21.3184 503.869 22.0779 503.135 23.16C502.4 24.2421 502.108 25.5646 502.319 26.8553C502.53 28.146 503.228 29.3068 504.269 30.0988C505.309 30.8909 506.614 31.2539 507.914 31.1132C509.215 30.9726 510.411 30.3389 511.259 29.3426C512.106 28.3464 512.539 27.0633 512.469 25.7573C512.399 24.4513 511.831 23.2219 510.882 22.3219C509.933 21.4219 508.676 20.9198 507.368 20.9189V20.9189Z" fill="#0CBC8B"/>
<path d="M518.082 19.8043C518.713 16.3886 515.078 12.8546 509.964 11.911C504.85 10.9673 500.193 12.9713 499.563 16.3869C498.933 19.8026 502.568 23.3365 507.682 24.2802C512.796 25.2239 517.452 23.2199 518.082 19.8043Z" fill="white"/>
<path d="M510.2 25.5148C509.294 25.5133 508.39 25.4297 507.5 25.2648C504.985 24.8475 502.646 23.7055 500.771 21.9788C499.95 21.2784 499.319 20.3824 498.936 19.3735C498.553 18.3646 498.43 17.2755 498.58 16.2068C498.822 15.1552 499.325 14.1816 500.043 13.3759C500.761 12.5701 501.67 11.9583 502.687 11.5968C505.066 10.6984 507.645 10.4674 510.145 10.9288C512.646 11.3903 514.973 12.5265 516.874 14.2148C517.695 14.9152 518.326 15.8112 518.709 16.8201C519.092 17.829 519.214 18.9181 519.065 19.9868C518.823 21.0384 518.32 22.012 517.602 22.8177C516.884 23.6235 515.975 24.2353 514.958 24.5968C513.45 25.2208 511.832 25.5331 510.2 25.5148V25.5148ZM507.438 12.6768C506.08 12.6595 504.733 12.917 503.477 13.4338C502.766 13.6717 502.126 14.083 501.615 14.6306C501.103 15.1781 500.736 15.8447 500.547 16.5698C500.465 17.3147 500.57 18.0682 500.852 18.7623C501.135 19.4564 501.586 20.069 502.165 20.5448C503.782 21.9566 505.75 22.9072 507.861 23.2969C509.973 23.6866 512.15 23.5011 514.165 22.7598C514.876 22.5219 515.516 22.1106 516.027 21.563C516.539 21.0155 516.906 20.3489 517.095 19.6238V19.6238C517.178 18.8789 517.073 18.1252 516.79 17.431C516.508 16.7368 516.056 16.1242 515.477 15.6488C513.885 14.1966 511.904 13.2399 509.777 12.8958C509.007 12.7524 508.225 12.6791 507.442 12.6768H507.438Z" fill="#0CBC8B"/>
<path d="M507.668 11.6809L505.657 23.7469L508.624 24.4229L511.112 12.1739L507.668 11.6809Z" fill="#0CBC8B"/>
<path d="M519.723 24.6618C520.26 24.6618 520.695 24.2266 520.695 23.6898C520.695 23.153 520.26 22.7178 519.723 22.7178C519.186 22.7178 518.751 23.153 518.751 23.6898C518.751 24.2266 519.186 24.6618 519.723 24.6618Z" fill="#0CBC8B"/>
<path d="M521.417 19.6859C521.954 19.6859 522.389 19.2508 522.389 18.7139C522.389 18.1771 521.954 17.7419 521.417 17.7419C520.88 17.7419 520.445 18.1771 520.445 18.7139C520.445 19.2508 520.88 19.6859 521.417 19.6859Z" fill="#0CBC8B"/>
</svg>
