<svg width="559" height="464" viewBox="0 0 559 464" fill="none" xmlns="http://www.w3.org/2000/svg">
<path opacity="0.1" d="M555.536 315.371C540.293 238.505 450.989 177.071 433.571 96.9709C401.914 -4.93805 297.57 -21.05 229.765 23.209C122.328 93.3379 236.941 110.741 26.2919 276.662C-25.7221 317.631 -9.14807 498.479 154.485 456.975C242.545 434.639 269.315 431.505 308.925 427.827C408.763 418.558 581.123 444.4 555.536 315.371Z" fill="#367CFF"/>
<path d="M369.941 381.105H147.923C137.787 381.105 127.978 377.522 120.228 370.989C112.479 364.456 107.288 355.395 105.573 345.405L75.063 167.679H442.8L412.29 345.405C410.576 355.395 405.385 364.456 397.635 370.989C389.886 377.522 380.077 381.105 369.941 381.105Z" fill="#0CBC8B"/>
<path d="M443.596 150.536H74.268C65.5137 150.536 58.417 157.633 58.417 166.387C58.417 175.141 65.5137 182.238 74.268 182.238H443.596C452.35 182.238 459.447 175.141 459.447 166.387C459.447 157.633 452.35 150.536 443.596 150.536Z" fill="white"/>
<path d="M443.6 183.489H74.268C69.7328 183.489 65.3833 181.687 62.1764 178.48C58.9696 175.274 57.168 170.924 57.168 166.389C57.168 161.854 58.9696 157.504 62.1764 154.297C65.3833 151.091 69.7328 149.289 74.268 149.289H443.6C448.135 149.289 452.485 151.091 455.691 154.297C458.898 157.504 460.7 161.854 460.7 166.389C460.7 170.924 458.898 175.274 455.691 178.48C452.485 181.687 448.135 183.489 443.6 183.489V183.489ZM74.272 151.789C70.3998 151.789 66.6862 153.327 63.9482 156.065C61.2102 158.803 59.672 162.517 59.672 166.389C59.672 170.261 61.2102 173.975 63.9482 176.713C66.6862 179.451 70.3998 180.989 74.272 180.989H443.6C447.472 180.989 451.186 179.451 453.924 176.713C456.662 173.975 458.2 170.261 458.2 166.389C458.2 162.517 456.662 158.803 453.924 156.065C451.186 153.327 447.472 151.789 443.6 151.789H74.272Z" fill="#C1D8ED"/>
<path d="M307.836 156.66C303.707 161.851 304.568 169.406 309.759 173.535C314.95 177.664 322.505 176.803 326.634 171.612L397.318 82.7472C401.447 77.5561 400.586 70.0007 395.395 65.8717C390.204 61.7427 382.649 62.6036 378.52 67.7947L307.836 156.66Z" fill="white"/>
<path d="M317.206 177.4C314.216 177.402 311.313 176.384 308.978 174.515V174.515C306.23 172.324 304.462 169.131 304.064 165.638C303.666 162.146 304.67 158.638 306.855 155.884L377.538 67.0179C378.623 65.6552 379.964 64.5192 381.487 63.675C383.011 62.8308 384.685 62.2949 386.415 62.0978C388.145 61.9007 389.897 62.0463 391.571 62.5263C393.245 63.0064 394.808 63.8114 396.171 64.8955C397.534 65.9795 398.67 67.3214 399.514 68.8444C400.358 70.3675 400.894 72.0419 401.091 73.7721C401.288 75.5023 401.143 77.2544 400.663 78.9283C400.183 80.6022 399.378 82.1652 398.293 83.528L327.611 172.393C326.531 173.759 325.189 174.898 323.666 175.742C322.142 176.587 320.466 177.12 318.734 177.313C318.227 177.371 317.717 177.4 317.206 177.4V177.4ZM310.534 172.559C311.64 173.439 312.909 174.092 314.267 174.481C315.626 174.871 317.047 174.989 318.451 174.829C319.855 174.669 321.214 174.234 322.45 173.549C323.686 172.864 324.775 171.942 325.654 170.836L396.336 81.97C397.216 80.8642 397.87 79.5959 398.259 78.2376C398.649 76.8792 398.768 75.4574 398.608 74.0534C398.448 72.6493 398.013 71.2905 397.328 70.0544C396.643 68.8183 395.722 67.7293 394.616 66.8495C393.51 65.9696 392.242 65.3162 390.884 64.9264C389.525 64.5367 388.103 64.4184 386.699 64.5781C385.295 64.7379 383.936 65.1727 382.7 65.8576C381.464 66.5425 380.375 67.4642 379.495 68.5699L308.812 157.435C307.039 159.669 306.224 162.516 306.547 165.351C306.87 168.185 308.304 170.775 310.534 172.554V172.559Z" fill="#C1D8ED"/>
<path d="M316.429 169.674C318.929 169.674 320.955 167.648 320.955 165.148C320.955 162.648 318.929 160.622 316.429 160.622C313.93 160.622 311.903 162.648 311.903 165.148C311.903 167.648 313.93 169.674 316.429 169.674Z" fill="white"/>
<path d="M316.442 170.925C315.588 170.926 314.744 170.737 313.971 170.372C313.198 170.008 312.516 169.476 311.973 168.817C311.43 168.157 311.04 167.385 310.831 166.556C310.622 165.728 310.599 164.863 310.763 164.025V164.025C310.976 162.953 311.49 161.963 312.243 161.17C312.997 160.378 313.959 159.816 315.02 159.549C316.08 159.283 317.195 159.323 318.233 159.664C319.272 160.006 320.192 160.636 320.887 161.48C321.582 162.324 322.023 163.348 322.158 164.433C322.294 165.518 322.119 166.619 321.653 167.609C321.188 168.598 320.451 169.435 319.528 170.022C318.606 170.609 317.536 170.922 316.442 170.925V170.925ZM313.216 164.511C313.069 165.255 313.183 166.027 313.541 166.695C313.899 167.364 314.477 167.888 315.177 168.178C315.878 168.468 316.657 168.506 317.383 168.285C318.108 168.065 318.735 167.6 319.156 166.969C319.577 166.339 319.766 165.582 319.692 164.827C319.617 164.073 319.283 163.367 318.747 162.831C318.21 162.295 317.505 161.962 316.75 161.888C315.996 161.814 315.239 162.004 314.608 162.426C313.887 162.909 313.386 163.659 313.216 164.511V164.511Z" fill="#C1D8ED"/>
<path d="M139.346 67.7952C135.217 62.6041 127.662 61.7431 122.471 65.8722C117.279 70.0012 116.419 77.5566 120.548 82.7476L191.231 171.612C195.36 176.804 202.916 177.664 208.107 173.535C213.298 169.406 214.159 161.851 210.03 156.66L139.346 67.7952Z" fill="white"/>
<path d="M200.644 177.392C198.647 177.396 196.675 176.948 194.876 176.082C193.076 175.217 191.496 173.955 190.253 172.392L119.569 83.5269C117.38 80.7746 116.373 77.2653 116.771 73.7711C117.169 70.2768 118.939 67.0838 121.691 64.8944C124.444 62.705 127.953 61.6987 131.447 62.0967C134.942 62.4948 138.135 64.2646 140.324 67.0169L211.008 155.883C212.561 157.834 213.532 160.183 213.81 162.661C214.088 165.139 213.661 167.645 212.579 169.891C211.496 172.138 209.802 174.033 207.691 175.36C205.58 176.687 203.137 177.391 200.644 177.392V177.392ZM129.936 64.5159C127.913 64.5174 125.931 65.0894 124.218 66.1662C122.506 67.243 121.131 68.781 120.253 70.6035C119.375 72.4261 119.029 74.4594 119.254 76.4699C119.479 78.4804 120.266 80.3867 121.526 81.9699L192.209 170.835C193.987 173.066 196.578 174.5 199.412 174.823C202.247 175.146 205.093 174.331 207.328 172.558V172.558C208.434 171.678 209.356 170.59 210.041 169.354C210.726 168.118 211.161 166.759 211.321 165.355C211.481 163.951 211.363 162.53 210.973 161.171C210.584 159.813 209.931 158.545 209.051 157.439L138.368 68.5739C137.359 67.3057 136.077 66.2819 134.617 65.5792C133.157 64.8765 131.556 64.513 129.936 64.5159V64.5159Z" fill="#C1D8ED"/>
<path d="M201.434 169.674C203.934 169.674 205.96 167.648 205.96 165.148C205.96 162.648 203.934 160.622 201.434 160.622C198.935 160.622 196.908 162.648 196.908 165.148C196.908 167.648 198.935 169.674 201.434 169.674Z" fill="white"/>
<path d="M201.422 170.925C200.328 170.923 199.257 170.61 198.334 170.024C197.41 169.437 196.673 168.6 196.206 167.61C195.74 166.62 195.564 165.519 195.7 164.433C195.835 163.347 196.276 162.322 196.971 161.478C197.666 160.633 198.587 160.003 199.626 159.661C200.665 159.319 201.78 159.279 202.841 159.545C203.902 159.812 204.866 160.375 205.62 161.168C206.373 161.961 206.886 162.952 207.099 164.025V164.025C207.264 164.863 207.241 165.728 207.032 166.556C206.823 167.385 206.434 168.156 205.891 168.816C205.348 169.476 204.666 170.007 203.893 170.372C203.12 170.737 202.276 170.925 201.422 170.925V170.925ZM201.441 161.871C200.766 161.869 200.106 162.077 199.553 162.464C199 162.852 198.58 163.402 198.351 164.037C198.122 164.673 198.095 165.364 198.274 166.015C198.453 166.666 198.829 167.246 199.351 167.676C199.872 168.105 200.514 168.363 201.188 168.414C201.861 168.464 202.534 168.306 203.114 167.959C203.694 167.613 204.152 167.095 204.427 166.478C204.701 165.861 204.778 165.174 204.647 164.511V164.511C204.5 163.768 204.1 163.1 203.515 162.619C202.931 162.137 202.198 161.873 201.441 161.871Z" fill="#C1D8ED"/>
<path d="M268.29 237.982C268.29 232.813 264.1 228.623 258.931 228.623C253.763 228.623 249.573 232.813 249.573 237.982V326.463C249.573 331.632 253.763 335.822 258.931 335.822C264.1 335.822 268.29 331.632 268.29 326.463V237.982Z" fill="white"/>
<path d="M178.826 237.071C178.032 231.963 173.248 228.467 168.14 229.261C163.033 230.055 159.537 234.839 160.331 239.946L173.925 327.377C174.719 332.484 179.503 335.981 184.611 335.187C189.718 334.393 193.214 329.609 192.42 324.501L178.826 237.071Z" fill="white"/>
<path d="M327.375 324.5C326.581 329.608 330.078 334.392 335.185 335.186C340.292 335.98 345.076 332.483 345.87 327.376L359.464 239.945C360.259 234.838 356.762 230.054 351.655 229.26C346.548 228.466 341.764 231.962 340.97 237.07L327.375 324.5Z" fill="white"/>
<path d="M411.372 417.352C441.874 417.352 466.6 392.626 466.6 362.124C466.6 331.622 441.874 306.896 411.372 306.896C380.87 306.896 356.144 331.622 356.144 362.124C356.144 392.626 380.87 417.352 411.372 417.352Z" fill="white"/>
<path d="M411.371 418.6C400.201 418.6 389.281 415.287 379.994 409.081C370.706 402.875 363.467 394.054 359.193 383.734C354.918 373.414 353.8 362.058 355.979 351.103C358.159 340.147 363.538 330.084 371.437 322.185C379.336 314.287 389.399 308.908 400.355 306.729C411.31 304.55 422.666 305.669 432.986 309.943C443.306 314.218 452.127 321.457 458.332 330.745C464.538 340.033 467.85 350.953 467.85 362.123C467.833 377.097 461.877 391.452 451.289 402.04C440.7 412.628 426.345 418.583 411.371 418.6V418.6ZM411.371 308.144C400.695 308.144 390.259 311.31 381.383 317.241C372.506 323.173 365.588 331.603 361.503 341.466C357.417 351.329 356.348 362.182 358.431 372.653C360.514 383.123 365.655 392.741 373.204 400.29C380.753 407.839 390.371 412.98 400.841 415.063C411.312 417.146 422.165 416.077 432.028 411.991C441.891 407.906 450.321 400.988 456.253 392.111C462.184 383.235 465.35 372.799 465.35 362.123C465.334 347.812 459.641 334.092 449.522 323.973C439.402 313.854 425.682 308.162 411.371 308.146V308.144Z" fill="white"/>
<path d="M411.33 390.416C408.654 390.475 406.008 389.836 403.653 388.562C401.299 387.288 399.317 385.422 397.902 383.149C394.614 378.305 392.971 371.294 392.972 362.115C392.974 352.936 394.617 346.009 397.902 341.334C399.409 339.166 401.419 337.396 403.759 336.175C406.1 334.953 408.702 334.318 411.342 334.322C413.982 334.326 416.581 334.97 418.918 336.198C421.255 337.427 423.259 339.203 424.759 341.376C428.044 346.08 429.687 352.993 429.688 362.115C429.688 371.293 428.045 378.304 424.759 383.149C423.344 385.422 421.362 387.287 419.007 388.561C416.653 389.835 414.007 390.475 411.33 390.416ZM411.33 382.768C412.612 382.774 413.868 382.405 414.942 381.705C416.198 380.814 417.184 379.594 417.79 378.178C418.699 376.147 419.327 374.003 419.659 371.803C420.157 368.598 420.384 365.358 420.339 362.115C420.384 358.914 420.156 355.715 419.659 352.553C419.333 350.393 418.704 348.289 417.79 346.305C417.183 344.936 416.194 343.77 414.942 342.948C413.846 342.308 412.599 341.971 411.33 341.971C410.061 341.971 408.814 342.308 407.718 342.948C406.466 343.769 405.477 344.935 404.871 346.305C403.955 348.289 403.326 350.392 403.001 352.553C402.504 355.715 402.276 358.914 402.321 362.115C402.275 365.357 402.503 368.596 403 371.8C403.33 374 403.96 376.145 404.87 378.175C405.475 379.591 406.46 380.812 407.717 381.702C408.791 382.403 410.047 382.774 411.33 382.768Z" fill="#C1D8ED"/>
</svg>
