<svg width="933" height="660" viewBox="0 0 933 660" fill="none" xmlns="http://www.w3.org/2000/svg">
<g clip-path="url(#clip0_67_2)">
<path d="M932.323 659.343H0C10.216 633.291 29.078 611.191 55.677 604.634C94.577 595.056 135.752 621.393 174.569 611.49C196.623 605.87 213.985 589.49 232.229 575.89C301.057 524.574 395.378 509.407 476.823 536.569C519.395 550.759 558.186 575.575 601.796 586.126C658.188 599.774 717.162 588.456 775.155 586.591C831.635 584.777 912.56 607.79 932.323 659.343Z" fill="#F3F5FD"/>
<path d="M640.063 81.7471H394.664C375.872 81.7471 360.638 96.981 360.638 115.773V616.493C360.638 635.285 375.872 650.519 394.664 650.519H640.063C658.855 650.519 674.089 635.285 674.089 616.493V115.773C674.089 96.981 658.855 81.7471 640.063 81.7471Z" fill="white"/>
<path d="M640.062 659.343H394.662C383.302 659.33 372.41 654.811 364.377 646.778C356.344 638.745 351.825 627.854 351.812 616.493V115.773C351.826 104.413 356.344 93.5217 364.377 85.4888C372.41 77.456 383.302 72.9373 394.662 72.9241H640.062C651.422 72.9373 662.314 77.456 670.347 85.4888C678.38 93.5217 682.898 104.413 682.912 115.773V616.493C682.899 627.854 678.38 638.745 670.347 646.778C662.314 654.811 651.422 659.33 640.062 659.343ZM394.664 90.5701C387.983 90.5783 381.578 93.2359 376.854 97.96C372.13 102.684 369.472 109.089 369.464 115.77V616.49C369.472 623.171 372.129 629.576 376.854 634.3C381.578 639.025 387.983 641.682 394.664 641.69H640.064C646.745 641.682 653.15 639.025 657.874 634.3C662.599 629.576 665.256 623.171 665.264 616.49V115.773C665.256 109.092 662.598 102.687 657.874 97.963C653.15 93.2389 646.745 90.5813 640.064 90.5731L394.664 90.5701Z" fill="#DEE8F5"/>
<path d="M463.632 81.7471H571.094V102.6C571.092 106.738 569.447 110.706 566.521 113.631C563.594 116.556 559.626 118.2 555.488 118.2H479.238C475.1 118.2 471.132 116.556 468.205 113.631C465.279 110.706 463.634 106.738 463.632 102.6V81.7471Z" fill="#DEE8F5"/>
<path d="M536.293 240.106C529.883 240.106 523.617 238.206 518.287 234.645C512.957 231.084 508.803 226.022 506.349 220.1C503.896 214.178 503.254 207.661 504.505 201.375C505.755 195.088 508.842 189.313 513.375 184.78C517.908 180.248 523.683 177.161 529.97 175.911C536.257 174.66 542.773 175.302 548.695 177.756C554.617 180.209 559.679 184.364 563.24 189.694C566.8 195.024 568.701 201.29 568.7 207.7C568.69 216.292 565.272 224.528 559.197 230.603C553.121 236.678 544.885 240.096 536.293 240.106ZM536.293 183.289C531.465 183.289 526.746 184.72 522.732 187.402C518.718 190.083 515.589 193.895 513.741 198.355C511.893 202.815 511.409 207.723 512.351 212.458C513.292 217.193 515.617 221.543 519.03 224.956C522.443 228.37 526.792 230.695 531.527 231.638C536.262 232.58 541.17 232.097 545.63 230.25C550.09 228.403 553.903 225.274 556.585 221.261C559.268 217.247 560.7 212.528 560.7 207.7C560.693 201.229 558.12 195.024 553.544 190.448C548.969 185.871 542.765 183.297 536.293 183.289Z" fill="#0CBC8B"/>
<g opacity="0.12">
<path d="M536.292 240.106C529.882 240.106 523.616 238.206 518.286 234.644C512.956 231.083 508.802 226.022 506.349 220.099C503.896 214.177 503.254 207.661 504.505 201.374C505.756 195.087 508.842 189.312 513.375 184.78C517.908 180.247 523.683 177.161 529.97 175.911C536.257 174.66 542.773 175.302 548.695 177.756C554.617 180.209 559.679 184.364 563.24 189.694C566.8 195.024 568.701 201.29 568.7 207.7C568.69 216.292 565.272 224.529 559.197 230.604C553.121 236.679 544.884 240.096 536.292 240.106ZM536.292 183.289C531.464 183.289 526.745 184.72 522.731 187.402C518.717 190.084 515.588 193.896 513.741 198.356C511.893 202.816 511.409 207.724 512.351 212.459C513.292 217.194 515.617 221.543 519.03 224.957C522.444 228.371 526.793 230.696 531.528 231.638C536.262 232.58 541.17 232.097 545.63 230.25C550.091 228.403 553.903 225.274 556.585 221.261C559.268 217.247 560.7 212.528 560.7 207.7C560.694 201.228 558.12 195.023 553.544 190.447C548.968 185.871 542.764 183.296 536.292 183.289Z" fill="black"/>
</g>
<path d="M605.749 208.116H466.836V366.134H605.749V208.116Z" fill="#0CBC8B"/>
<g opacity="0.12">
<path d="M605.749 208.116H466.836V366.134H605.749V208.116Z" fill="black"/>
</g>
<path d="M567.89 208.116H428.977V366.134H567.89V208.116Z" fill="#0CBC8B"/>
<path d="M498.433 240.106C492.023 240.106 485.757 238.205 480.427 234.644C475.097 231.083 470.944 226.021 468.491 220.099C466.038 214.177 465.396 207.66 466.647 201.373C467.898 195.087 470.985 189.312 475.517 184.779C480.05 180.247 485.825 177.161 492.112 175.91C498.399 174.66 504.915 175.303 510.837 177.756C516.759 180.209 521.821 184.364 525.381 189.694C528.942 195.024 530.843 201.29 530.842 207.7C530.832 216.292 527.414 224.529 521.338 230.604C515.262 236.679 507.025 240.097 498.433 240.106ZM498.433 183.289C493.605 183.289 488.886 184.721 484.872 187.403C480.858 190.085 477.73 193.897 475.882 198.357C474.035 202.817 473.551 207.724 474.493 212.459C475.434 217.194 477.759 221.543 481.172 224.957C484.586 228.371 488.935 230.696 493.67 231.638C498.404 232.58 503.312 232.097 507.772 230.25C512.233 228.402 516.045 225.274 518.727 221.26C521.41 217.247 522.842 212.528 522.842 207.7C522.836 201.228 520.262 195.023 515.686 190.447C511.11 185.87 504.905 183.296 498.433 183.289Z" fill="#0CBC8B"/>
<path d="M517.363 572.494C554.554 572.494 584.704 542.344 584.704 505.153C584.704 467.962 554.554 437.812 517.363 437.812C480.172 437.812 450.022 467.962 450.022 505.153C450.022 542.344 480.172 572.494 517.363 572.494Z" fill="#C1D8ED"/>
<path d="M505.816 541.92C504.413 541.92 503.063 541.383 502.042 540.42L476.462 516.283C475.924 515.791 475.489 515.196 475.183 514.534C474.877 513.872 474.706 513.156 474.679 512.427C474.653 511.699 474.771 510.972 475.028 510.289C475.285 509.607 475.675 508.982 476.175 508.452C476.676 507.921 477.276 507.495 477.943 507.199C478.609 506.903 479.328 506.743 480.057 506.727C480.786 506.712 481.511 506.841 482.19 507.108C482.869 507.375 483.487 507.775 484.01 508.283L505.51 528.571L550.416 479.087C550.901 478.55 551.487 478.113 552.14 477.803C552.794 477.493 553.503 477.314 554.225 477.278C554.948 477.242 555.671 477.349 556.352 477.592C557.033 477.836 557.66 478.212 558.196 478.698C558.732 479.184 559.166 479.772 559.475 480.426C559.783 481.081 559.96 481.79 559.994 482.513C560.028 483.235 559.919 483.958 559.673 484.638C559.427 485.319 559.05 485.945 558.562 486.479L509.888 540.116C509.397 540.658 508.802 541.096 508.139 541.405C507.477 541.714 506.759 541.888 506.028 541.916C505.958 541.919 505.886 541.92 505.816 541.92Z" fill="white"/>
<path d="M758.411 559.574H748.269V659.343H758.411V559.574Z" fill="#C1D8ED"/>
<path d="M750.065 559.574H739.923V659.343H750.065V559.574Z" fill="#DEE8F5"/>
<path d="M884.733 559.574H874.591V659.343H884.733V559.574Z" fill="#C1D8ED"/>
<path d="M876.386 559.574H866.244V659.343H876.386V559.574Z" fill="#DEE8F5"/>
<path d="M786.227 559.574H776.085V659.343H786.227V559.574Z" fill="#C1D8ED"/>
<path d="M777.881 559.574H767.739V659.343H777.881V559.574Z" fill="#DEE8F5"/>
<path d="M912.549 559.574H902.407V659.343H912.549V559.574Z" fill="#C1D8ED"/>
<path d="M904.203 559.574H894.061V659.343H904.203V559.574Z" fill="#DEE8F5"/>
<path d="M912.548 495.712H776.148V561.966H912.548V495.712Z" fill="#C1D8ED"/>
<path d="M876.323 495.712H739.923V561.966H876.323V495.712Z" fill="#DEE8F5"/>
<g opacity="0.53">
<path d="M868.984 505.13H747.26V552.254H868.984V505.13Z" fill="#F3F5FD"/>
</g>
<path d="M808.122 534.098C811.107 534.098 813.528 531.678 813.528 528.692C813.528 525.706 811.107 523.286 808.122 523.286C805.136 523.286 802.716 525.706 802.716 528.692C802.716 531.678 805.136 534.098 808.122 534.098Z" fill="white"/>
<g filter="url(#filter0_d_67_2)">
<path d="M203.203 647.132C225.254 642.712 246.842 636.367 267.922 615.504C272.248 611.23 276.459 605.649 274.836 599.997C273.614 595.743 269.212 592.734 264.551 591.685C262.814 591.312 261.036 591.126 259.252 591.132C259.242 591.132 259.233 591.132 259.231 591.132C256.485 591.174 253.748 591.447 251.055 591.947L250.287 592.084C237.448 594.367 225.046 598.378 213.482 603.985C212.434 604.49 211.231 604.654 210.069 604.451C208.907 604.247 207.855 603.688 207.083 602.865C206.311 602.042 205.865 601.004 205.818 599.918C205.771 598.833 206.126 597.765 206.824 596.888C208.099 595.3 209.546 593.834 211.143 592.515C213.496 590.612 216.038 588.915 218.735 587.446C222.327 585.447 226.115 583.717 229.838 581.926C243.663 575.294 256.887 567.655 269.383 559.083C278.309 552.958 287.11 546.075 291.94 536.855C294.158 532.614 295.455 527.627 293.694 523.21C290.784 515.954 280.877 513.208 272.491 514.004C257.795 515.404 245.337 524.229 234.189 533.121C224.937 540.512 214.595 548.687 202.343 548.216C200.246 548.23 198.191 547.68 196.431 546.633C193.13 544.423 192.656 539.867 194.229 536.403C195.801 532.939 198.939 530.319 201.966 527.806C219.556 513.212 236.95 497.95 249.226 479.332C261.503 460.714 268.276 438.122 262.942 416.906C261.376 410.708 258.723 404.578 254.138 399.8C249.553 395.022 242.806 391.72 235.872 392.019C226.425 392.413 218.713 399.099 213.28 406.199C194.613 430.567 192.671 462.072 185.342 491.093C183.29 499.217 180.635 507.506 174.674 513.856C174.121 514.469 173.432 514.965 172.652 515.312C168.044 517.3 164.544 512.282 163.268 508.157C158.237 491.839 158.301 473.636 147.873 459.636C143.893 454.307 137.988 449.648 130.975 449.14C122.407 448.519 114.462 454.509 111.259 461.835C108.057 469.162 108.789 477.449 110.767 485.127C114.442 499.369 122.186 512.511 131.659 524.277C136.654 530.487 142.364 536.815 143.32 544.479C143.59 547.079 143.131 549.699 141.988 552.091C140.845 554.483 139.055 556.566 136.789 558.144C135.732 558.853 134.53 559.36 133.256 559.635C131.981 559.91 130.66 559.947 129.37 559.744C126.581 559.286 124.162 557.769 121.831 556.296C120.852 555.677 119.872 555.05 118.884 554.433C114.992 551.972 111.099 549.506 107.206 547.036C97.3096 540.764 85.2638 534.203 73.9853 538.039C68.2247 540.003 64.1655 544.437 61.9547 549.718C59.9713 554.512 59.4853 559.72 60.5515 564.754C62.8255 575.23 80.5166 605.278 88.2246 613.276C97.2084 622.617 127.749 662.256 203.203 647.132Z" fill="#0CBC8B"/>
</g>
<path d="M863.347 391.826C857.45 389.79 851.399 392.075 845.608 396.721C853.235 376.409 856.383 358.06 843.344 357.234C834.22 356.656 827.231 364.038 821.921 374.534C820.054 356.08 815.236 342.318 804.445 346.88C792.597 351.891 790.793 369.059 792.591 387.023C787.372 377.847 781.751 372.73 776.648 378.113C761.418 394.175 798.8 439.435 798.8 439.435H808.085L813.382 445.502C812.31 447.894 811.723 449.318 811.723 449.318L818.453 463.762C818.453 463.762 887.822 400.276 863.347 391.826Z" fill="#0CBC8B"/>
<path d="M846.703 496.111H794.161L785.366 431.421H855.497L846.703 496.111Z" fill="#C1D8ED"/>
</g>
<defs>
<filter id="filter0_d_67_2" x="56" y="392" width="242.515" height="266.535" filterUnits="userSpaceOnUse" color-interpolation-filters="sRGB">
<feFlood flood-opacity="0" result="BackgroundImageFix"/>
<feColorMatrix in="SourceAlpha" type="matrix" values="0 0 0 0 0 0 0 0 0 0 0 0 0 0 0 0 0 0 127 0" result="hardAlpha"/>
<feOffset dy="4"/>
<feGaussianBlur stdDeviation="2"/>
<feComposite in2="hardAlpha" operator="out"/>
<feColorMatrix type="matrix" values="0 0 0 0 0 0 0 0 0 0 0 0 0 0 0 0 0 0 0.25 0"/>
<feBlend mode="normal" in2="BackgroundImageFix" result="effect1_dropShadow_67_2"/>
<feBlend mode="normal" in="SourceGraphic" in2="effect1_dropShadow_67_2" result="shape"/>
</filter>
<clipPath id="clip0_67_2">
<rect width="932.323" height="659.343" fill="white"/>
</clipPath>
</defs>
</svg>
