<svg width="992" height="553" viewBox="0 0 992 553" fill="none" xmlns="http://www.w3.org/2000/svg">
<g clip-path="url(#clip0_18_47)">
<path d="M966.101 214.045L955.592 240.933L963.043 243.845L973.553 216.957L966.101 214.045Z" fill="#367CFF"/>
<path d="M309.591 148.112L303.632 153.449L322.892 174.954L328.851 169.617L309.591 148.112Z" fill="#0CBC8B"/>
<path d="M397.892 244.364L374.786 261.672L379.583 268.075L402.689 250.768L397.892 244.364Z" fill="#367CFF"/>
<path d="M665.134 45.757L659.652 51.5831L680.677 71.3676L686.159 65.5415L665.134 45.757Z" fill="#367CFF"/>
<path d="M512.257 52.1904L497.869 77.2192L504.804 81.2064L519.193 56.1776L512.257 52.1904Z" fill="#0CBC8B"/>
<path d="M721.197 266.227L714.432 270.497L729.838 294.911L736.604 290.642L721.197 266.227Z" fill="#0CBC8B"/>
<path d="M407.485 385.113L400.328 388.688L413.23 414.514L420.387 410.939L407.485 385.113Z" fill="#0CBC8B"/>
<path d="M302.781 317.161L294.491 344.815L302.153 347.112L310.443 319.458L302.781 317.161Z" fill="#367CFF"/>
<path d="M803.579 403.332L779.603 419.411L784.058 426.055L808.035 409.976L803.579 403.332Z" fill="#367CFF"/>
<path d="M807.17 0.00210945L792.783 25.0303L799.718 29.0173L814.106 3.98916L807.17 0.00210945Z" fill="#0CBC8B"/>
<path d="M7.45043 204.76L-0.000610352 207.672L10.5091 234.561L17.9601 231.648L7.45043 204.76Z" fill="#0CBC8B"/>
<path d="M780.918 171.543L776.121 177.946L799.227 195.254L804.024 188.85L780.918 171.543Z" fill="#0CBC8B"/>
<path d="M131.88 53.5859L110.855 73.3705L116.337 79.1966L137.362 59.4121L131.88 53.5859Z" fill="#367CFF"/>
<path d="M364.755 30.0258L357.819 34.0129L372.208 59.0418L379.144 55.0546L364.755 30.0258Z" fill="#367CFF"/>
<path d="M81.8672 344.275L66.4606 368.689L73.2261 372.959L88.6327 348.544L81.8672 344.275Z" fill="#0CBC8B"/>
<path d="M13.6265 411.154L9.17053 417.802L33.1607 433.882L37.6167 427.234L13.6265 411.154Z" fill="#367CFF"/>
<path d="M939.182 92.3337L932.246 96.3207L946.634 121.349L953.57 117.362L939.182 92.3337Z" fill="#367CFF"/>
<path d="M638.608 160.541L619.348 182.046L625.307 187.384L644.567 165.879L638.608 160.541Z" fill="#367CFF"/>
<path d="M469.526 402.939L456.624 428.764L463.78 432.339L476.682 406.514L469.526 402.939Z" fill="#0CBC8B"/>
<path d="M574.233 334.989L566.571 337.286L574.861 364.939L582.523 362.642L574.233 334.989Z" fill="#367CFF"/>
<path d="M576.813 350.77L549.546 330.043C548.947 329.588 548.259 329.262 547.527 329.087C546.795 328.912 546.035 328.892 545.295 329.027C544.554 329.161 543.85 329.449 543.227 329.871C542.604 330.293 542.075 330.84 541.675 331.477C540.973 332.677 540.741 334.094 541.025 335.455C541.309 336.816 542.087 338.023 543.21 338.842L549.057 343.286L524.257 337.75C521.511 337.086 517.715 338.029 517.174 341.159C516.887 342.35 517.012 343.603 517.529 344.714C518.046 345.824 518.923 346.727 520.019 347.275C520.006 347.299 519.996 347.325 519.989 347.351C519.988 347.372 519.988 347.392 519.989 347.413L515.753 346.39C514.968 346.201 514.151 346.189 513.362 346.356C512.572 346.522 511.829 346.863 511.188 347.353C510.547 347.843 510.023 348.47 509.654 349.189C509.286 349.907 509.083 350.698 509.059 351.505C509.047 352.776 509.472 354.013 510.263 355.008C511.054 356.003 512.162 356.697 513.403 356.973L515.203 357.408C515.215 357.466 515.237 357.521 515.267 357.572C513.981 357.561 512.733 358.007 511.746 358.832C510.759 359.656 510.097 360.805 509.879 362.072C509.681 363.466 510.016 364.883 510.816 366.041C511.617 367.198 512.825 368.012 514.199 368.318L518.677 369.4C518.603 369.429 518.538 369.476 518.486 369.536C518.433 369.596 518.396 369.667 518.377 369.744C518.359 369.837 518.369 369.933 518.404 370.021C517.256 370.329 516.24 371.005 515.514 371.946C514.788 372.887 514.391 374.041 514.384 375.23C514.403 376.479 514.842 377.684 515.631 378.652C516.42 379.62 517.513 380.293 518.732 380.563L556.506 389.689C561.791 390.965 567.336 390.634 572.431 388.738C577.527 386.843 581.94 383.469 585.106 379.05V379.05C587.836 375.239 588.971 370.514 588.272 365.879C587.573 361.243 585.094 357.063 581.362 354.227L576.813 350.77Z" fill="#E98862"/>
<g opacity="0.2">
<path d="M544.54 352.877C544.509 353.004 544.429 353.113 544.317 353.182C544.206 353.25 544.073 353.273 543.945 353.244L520.365 347.944C520.301 347.929 520.24 347.903 520.187 347.865C520.133 347.827 520.087 347.779 520.052 347.723C520.017 347.668 519.993 347.606 519.982 347.541C519.971 347.476 519.973 347.41 519.987 347.346C520.002 347.282 520.028 347.221 520.066 347.168C520.104 347.114 520.152 347.068 520.208 347.033C520.263 346.998 520.325 346.974 520.39 346.963C520.455 346.952 520.521 346.953 520.585 346.968L544.164 352.268C544.228 352.282 544.289 352.309 544.343 352.347C544.397 352.385 544.443 352.434 544.478 352.489C544.513 352.545 544.537 352.607 544.548 352.672C544.559 352.737 544.557 352.804 544.542 352.868L544.54 352.877Z" fill="#0C0C0C"/>
</g>
<g opacity="0.2">
<path d="M542.491 363.341C542.46 363.469 542.379 363.579 542.266 363.648C542.154 363.717 542.019 363.738 541.891 363.708L515.576 357.798C515.512 357.784 515.451 357.757 515.397 357.719C515.343 357.681 515.297 357.632 515.262 357.577C515.227 357.521 515.203 357.459 515.192 357.394C515.181 357.329 515.183 357.262 515.198 357.198C515.231 357.071 515.312 356.96 515.423 356.89C515.535 356.82 515.669 356.795 515.798 356.82L542.113 362.73C542.177 362.744 542.238 362.771 542.292 362.809C542.346 362.847 542.392 362.896 542.427 362.951C542.462 363.007 542.486 363.069 542.497 363.134C542.508 363.199 542.506 363.266 542.491 363.33V363.341Z" fill="#0C0C0C"/>
</g>
<g opacity="0.2">
<path d="M540.338 374.687C540.306 374.814 540.226 374.923 540.115 374.992C540.004 375.06 539.87 375.083 539.743 375.054L518.752 370.34C518.623 370.311 518.51 370.232 518.439 370.12C518.368 370.008 518.344 369.872 518.373 369.742C518.402 369.613 518.482 369.5 518.594 369.429C518.706 369.358 518.842 369.335 518.971 369.364L539.962 374.078C540.026 374.092 540.087 374.119 540.141 374.157C540.195 374.195 540.241 374.243 540.276 374.299C540.312 374.355 540.335 374.417 540.347 374.482C540.358 374.547 540.356 374.614 540.341 374.678L540.338 374.687Z" fill="#0C0C0C"/>
</g>
<path d="M447.36 208.206L462.584 177.525C462.919 176.851 463.39 176.254 463.968 175.772C464.545 175.29 465.217 174.933 465.941 174.725C466.664 174.517 467.423 174.462 468.168 174.563C468.914 174.664 469.63 174.92 470.272 175.313C471.435 176.075 472.273 177.242 472.624 178.588C472.975 179.933 472.814 181.361 472.172 182.594L468.907 189.173L488.666 173.2C490.832 171.385 494.651 170.544 496.526 173.108C497.312 174.047 497.756 175.226 497.787 176.45C497.817 177.675 497.432 178.874 496.693 179.851C496.715 179.867 496.736 179.886 496.754 179.906C496.765 179.924 496.775 179.942 496.783 179.961L500.124 177.161C500.743 176.643 501.47 176.27 502.251 176.068C503.033 175.867 503.849 175.842 504.642 175.996C505.434 176.15 506.182 176.479 506.831 176.959C507.48 177.439 508.013 178.058 508.393 178.77C508.968 179.904 509.137 181.2 508.87 182.443C508.604 183.686 507.919 184.8 506.93 185.599L505.508 186.79C505.524 186.847 505.529 186.906 505.523 186.965C506.67 186.383 507.986 186.229 509.237 186.529C510.488 186.828 511.591 187.563 512.349 188.602C513.145 189.763 513.474 191.182 513.27 192.575C513.066 193.968 512.345 195.233 511.249 196.117L507.718 199.074C507.797 199.067 507.877 199.079 507.951 199.109C508.025 199.14 508.09 199.187 508.142 199.248C508.199 199.324 508.234 199.414 508.242 199.509C509.407 199.274 510.618 199.429 511.686 199.95C512.755 200.47 513.623 201.328 514.157 202.39C514.695 203.517 514.837 204.792 514.56 206.01C514.283 207.228 513.603 208.316 512.63 209.099L482.84 234.053C478.673 237.544 473.558 239.711 468.151 240.276C462.744 240.841 457.291 239.778 452.492 237.224C448.355 235.022 445.239 231.293 443.806 226.831C442.374 222.368 442.737 217.523 444.82 213.324L447.36 208.206Z" fill="#E98862"/>
<g opacity="0.2">
<path d="M477.211 195.758C477.296 195.859 477.417 195.922 477.548 195.934C477.679 195.946 477.809 195.906 477.911 195.823L496.685 180.605C496.788 180.521 496.854 180.4 496.867 180.268C496.881 180.137 496.842 180.005 496.759 179.901C496.675 179.798 496.554 179.733 496.422 179.719C496.29 179.705 496.158 179.744 496.055 179.828L477.281 195.046C477.179 195.129 477.114 195.25 477.1 195.381C477.086 195.512 477.125 195.643 477.207 195.746L477.211 195.758Z" fill="#0C0C0C"/>
</g>
<g opacity="0.2">
<path d="M483.694 204.224C483.779 204.325 483.9 204.388 484.031 204.4C484.162 204.412 484.292 204.371 484.394 204.288L505.346 187.305C505.448 187.221 505.513 187.101 505.527 186.97C505.54 186.839 505.502 186.708 505.419 186.605C505.333 186.506 505.213 186.444 505.084 186.43C504.954 186.417 504.823 186.453 504.719 186.531L483.76 203.511C483.658 203.594 483.593 203.715 483.579 203.846C483.565 203.977 483.604 204.108 483.686 204.211L483.694 204.224Z" fill="#0C0C0C"/>
</g>
<g opacity="0.2">
<path d="M490.663 213.432C490.748 213.533 490.869 213.596 491 213.608C491.131 213.62 491.261 213.58 491.363 213.497L508.076 199.95C508.179 199.866 508.245 199.745 508.258 199.613C508.272 199.481 508.233 199.349 508.149 199.246C508.066 199.143 507.945 199.078 507.813 199.064C507.681 199.05 507.549 199.089 507.446 199.173L490.729 212.72C490.627 212.803 490.562 212.924 490.548 213.055C490.534 213.186 490.573 213.317 490.655 213.42L490.663 213.432Z" fill="#0C0C0C"/>
</g>
<path d="M105.7 181.9C105.7 181.9 103.553 214.115 96.3061 225.8C75.4401 259.448 69.3951 297.3 90.2901 317.077C111.185 336.854 244.46 337.128 254.557 291.642C263.057 253.347 244.816 249.229 240.377 217.642C238.369 203.348 232.844 173.375 232.844 173.375" fill="#0A0A0A"/>
<path d="M220.064 284.973C219.834 284.943 217.281 327.304 168.07 323.611C134.002 321.058 121.855 284.911 121.075 284.911C124.748 284.13 130.933 282.995 132.564 282.124C137.929 279.242 144.564 276.242 146.296 265.824C147.296 259.824 145.601 229.102 146.122 223.024L198.416 234.7C197.685 247.531 192.571 277.275 210.496 282.539C213.478 283.412 216.691 284.213 220.064 284.973Z" fill="#E98862"/>
<path opacity="0.5" d="M199.149 270.385C198.33 267.745 197.803 265.024 197.576 262.269C197.002 255.983 197.116 249.653 197.918 243.392C187.29 241.957 177.277 237.57 169.018 230.729C168.047 234.315 162.706 249.985 164.185 253.393C166.978 259.836 180.111 270.385 199.149 270.385Z" fill="#0C0C0C"/>
<path d="M192.387 257.188C171.769 259.188 145.093 250.936 139.567 223.479L134.581 198.705C129.055 171.249 138.996 146.089 164.847 140.886C190.699 135.686 214.501 154.051 220.027 181.508L222.235 192.476C224.355 203.011 229.172 253.628 192.387 257.188Z" fill="#E98862"/>
<path opacity="0.1" d="M179.281 221.208C182.674 220.803 185.184 218.458 184.887 215.969C184.59 213.481 181.599 211.791 178.206 212.196C174.813 212.601 172.303 214.947 172.6 217.435C172.897 219.924 175.888 221.613 179.281 221.208Z" fill="#0C0C0C"/>
<path opacity="0.1" d="M215.133 211.259C215.433 213.744 218.428 215.431 221.821 215.031C222.407 214.961 222.985 214.83 223.544 214.64C223.702 211.677 223.711 208.827 223.625 206.188C222.683 205.952 221.704 205.895 220.741 206.019C217.348 206.419 214.839 208.764 215.133 211.259Z" fill="#0C0C0C"/>
<path opacity="0.5" d="M200.141 218.94C200.158 218.938 200.175 218.936 200.191 218.932C201.239 218.714 202.274 218.437 203.291 218.105C204.809 217.597 206.791 216.763 206.519 215.39C206.205 213.826 198.519 197.809 197.647 195.99C197.611 195.908 197.559 195.834 197.494 195.772C197.429 195.711 197.353 195.663 197.269 195.631C197.185 195.6 197.095 195.586 197.006 195.59C196.917 195.594 196.829 195.616 196.748 195.655C196.667 195.694 196.595 195.749 196.536 195.816C196.477 195.883 196.432 195.962 196.404 196.047C196.376 196.132 196.365 196.221 196.373 196.311C196.38 196.4 196.405 196.487 196.447 196.566C199.724 203.387 205.002 214.602 205.214 215.655C205.048 216.146 202.53 217.105 199.931 217.629C199.845 217.643 199.762 217.674 199.688 217.719C199.614 217.765 199.549 217.825 199.498 217.896C199.447 217.967 199.41 218.047 199.39 218.132C199.37 218.217 199.367 218.305 199.381 218.391C199.394 218.478 199.425 218.56 199.471 218.635C199.517 218.709 199.577 218.773 199.648 218.825C199.719 218.876 199.799 218.912 199.884 218.932C199.969 218.953 200.057 218.956 200.143 218.942L200.141 218.94Z" fill="#0C0C0C"/>
<path d="M113.954 207.6L137.13 203.073C154.637 195.752 159.604 165.241 159.604 165.241C159.604 165.241 181.21 185.818 232.848 173.375C232.848 173.375 221.631 101.289 145.383 123.175C120.798 130.23 103.383 155.29 105.973 188.482C107.788 211.736 113.954 207.6 113.954 207.6Z" fill="#0A0A0A"/>
<path d="M142.856 231.521C135 233.102 126.94 225.979 125.356 218.121C123.772 210.263 129.272 204.651 137.128 203.069L142.236 207.519L149.609 230.16L142.856 231.521Z" fill="#E98862"/>
<path d="M203.216 183.217C205.182 181.827 207.48 180.982 209.878 180.769C211.083 180.653 212.298 180.721 213.483 180.969C214.678 181.212 215.837 181.605 216.934 182.137L216.968 182.153C217.09 182.207 217.227 182.211 217.352 182.164C217.476 182.118 217.578 182.024 217.634 181.904C217.691 181.784 217.698 181.646 217.654 181.52C217.611 181.395 217.52 181.291 217.401 181.232C216.239 180.618 215.004 180.153 213.725 179.848C212.438 179.535 211.11 179.417 209.788 179.499C207.109 179.647 204.52 180.51 202.288 181.999C202.205 182.055 202.134 182.128 202.078 182.212C202.023 182.295 201.985 182.389 201.966 182.488C201.947 182.587 201.948 182.688 201.968 182.787C201.989 182.885 202.028 182.979 202.085 183.062C202.141 183.145 202.214 183.216 202.298 183.271C202.382 183.326 202.476 183.364 202.575 183.382C202.674 183.401 202.775 183.4 202.873 183.379C202.972 183.359 203.065 183.319 203.148 183.262L203.166 183.25L203.216 183.217Z" fill="#0C0C0C"/>
<path d="M182.045 186.143C179.413 185.619 176.689 185.812 174.157 186.7C172.906 187.131 171.726 187.748 170.657 188.529C169.593 189.3 168.63 190.203 167.791 191.215C167.706 191.316 167.664 191.445 167.673 191.576C167.681 191.708 167.741 191.83 167.838 191.919C167.935 192.008 168.063 192.055 168.194 192.052C168.326 192.048 168.451 191.994 168.543 191.9L168.57 191.872C169.379 190.96 170.3 190.154 171.31 189.472C172.31 188.79 173.407 188.263 174.564 187.909C176.861 187.187 179.308 187.087 181.656 187.619L181.714 187.634C181.911 187.682 182.119 187.649 182.292 187.544C182.465 187.438 182.589 187.268 182.637 187.071C182.685 186.874 182.652 186.666 182.547 186.493C182.441 186.32 182.271 186.196 182.074 186.148L182.045 186.143Z" fill="#0C0C0C"/>
<path d="M137.146 202.691C152.725 196.891 157.895 186.133 159.487 178.127C160.517 172.788 160.421 167.292 159.204 161.992L158.722 162.125C159.921 167.356 160.013 172.779 158.994 178.048C157.422 185.923 152.326 196.509 136.971 202.224L137.146 202.691Z" fill="#0C0C0C"/>
<path d="M260.143 290.012L408.07 339.459L364.639 358.764L438.4 207.444L498.683 235.538L430.246 389.338C426.785 397.116 420.641 403.388 412.936 407.009C405.232 410.631 396.482 411.359 388.285 409.061L386.814 408.644L236.648 366.484L260.143 290.012Z" fill="#367CFF"/>
<path d="M167.152 313.021C133.06 311.414 131.625 282.478 131.625 282.478C131.625 282.478 114.733 283.57 103.504 285.089C85.1201 287.576 72.9921 293.81 63.3401 303.461C54.3621 312.44 48.8961 322.154 54.6801 384.172C58.8681 429.078 55.9211 527.851 55.9211 527.851H263.671C263.671 527.851 278.178 385.151 279.898 364.94C283.18 326.351 292.453 317.832 273.665 297.954C260.04 283.538 224.865 282.478 210.707 282.48C210.476 282.48 213.58 315.21 167.152 313.021Z" fill="#367CFF"/>
<path d="M207.052 224.352C200.353 227.758 192.71 228.835 185.331 227.413C185.076 227.365 184.812 227.391 184.57 227.487C184.329 227.584 184.12 227.747 183.968 227.958C183.816 228.168 183.727 228.418 183.711 228.678C183.696 228.937 183.754 229.196 183.88 229.423C186.08 233.299 191.298 239.923 200.25 237.223C206.03 235.479 208.215 229.533 209.025 225.854C209.08 225.599 209.062 225.335 208.972 225.09C208.882 224.846 208.724 224.632 208.517 224.474C208.31 224.317 208.062 224.221 207.802 224.2C207.543 224.178 207.283 224.231 207.052 224.352Z" fill="white"/>
<path d="M207.471 194.56C209.259 194.56 210.708 193.111 210.708 191.323C210.708 189.535 209.259 188.086 207.471 188.086C205.683 188.086 204.234 189.535 204.234 191.323C204.234 193.111 205.683 194.56 207.471 194.56Z" fill="#0C0C0C"/>
<path d="M176.367 200.005C178.155 200.005 179.604 198.556 179.604 196.768C179.604 194.98 178.155 193.531 176.367 193.531C174.579 193.531 173.13 194.98 173.13 196.768C173.13 198.556 174.579 200.005 176.367 200.005Z" fill="#0C0C0C"/>
<path d="M279.436 379C279.415 379.001 279.394 379.001 279.373 379C279.242 378.984 279.122 378.916 279.041 378.811C278.96 378.707 278.923 378.574 278.939 378.443L282.156 352.365C282.163 352.299 282.183 352.236 282.215 352.178C282.247 352.121 282.29 352.07 282.342 352.03C282.394 351.989 282.454 351.959 282.518 351.942C282.581 351.926 282.648 351.922 282.713 351.931C282.778 351.939 282.841 351.96 282.898 351.992C282.956 352.025 283.006 352.068 283.046 352.12C283.087 352.172 283.116 352.231 283.134 352.294C283.151 352.358 283.156 352.424 283.148 352.489L279.931 378.566C279.915 378.686 279.856 378.796 279.765 378.876C279.674 378.956 279.557 379 279.436 379V379Z" fill="#0C0C0C"/>
<path d="M805.3 177.778C805.3 177.778 792.908 163.861 794.345 137.798C795.458 117.618 811.024 133.938 811.024 133.938C811.024 133.938 811.967 119.415 821.991 122.873C832.015 126.331 834.83 142.345 834.83 142.345" fill="#0C0C0C"/>
<path d="M874.946 135.149C874.946 135.149 925 150.828 892.696 216.449L888.11 215.849L878.8 214.634" fill="#0C0C0C"/>
<path d="M803.741 284.867C803.971 284.837 806.515 327.057 855.563 323.377C889.518 320.833 901.625 284.808 902.403 284.808C898.742 284.029 892.577 282.898 890.951 282.03C885.604 279.157 878.989 276.168 877.265 265.785C876.272 259.8 877.957 229.185 877.439 223.129L825.317 234.762C826.046 247.55 831.143 277.196 813.277 282.443C810.305 283.311 807.1 284.109 803.741 284.867Z" fill="#E98862"/>
<path opacity="0.52" d="M824.587 270.328C825.403 267.697 825.928 264.984 826.154 262.238C826.728 255.973 826.614 249.663 825.814 243.423C836.408 241.993 846.388 237.621 854.621 230.803C855.588 234.377 860.911 249.995 859.437 253.392C856.652 259.813 843.561 270.328 824.587 270.328Z" fill="#0C0C0C"/>
<path d="M830.837 256.03C851.363 258.241 878.037 250.31 883.844 223.006L889.081 198.369C894.881 171.069 885.25 145.882 859.541 140.417C833.833 134.952 809.912 153.002 804.108 180.306L801.789 191.213C801.058 194.972 800.584 198.776 800.371 202.599C799.732 212.699 798.8 228.064 803.461 239.512C807.86 250.32 817.723 254.617 830.837 256.03Z" fill="#E98862"/>
<path d="M814.532 193.128C816.32 193.128 817.769 191.679 817.769 189.891C817.769 188.103 816.32 186.654 814.532 186.654C812.744 186.654 811.295 188.103 811.295 189.891C811.295 191.679 812.744 193.128 814.532 193.128Z" fill="#0C0C0C"/>
<path d="M845.276 196.365C847.064 196.365 848.513 194.916 848.513 193.128C848.513 191.34 847.064 189.891 845.276 189.891C843.488 189.891 842.039 191.34 842.039 193.128C842.039 194.916 843.488 196.365 845.276 196.365Z" fill="#0C0C0C"/>
<path d="M880.478 230.985C888.291 232.646 896.401 225.634 898.062 217.821C899.723 210.008 894.305 204.354 886.493 202.693L881.354 207.072L873.761 229.557L880.478 230.985Z" fill="#E98862"/>
<path d="M875.2 216.846C875.2 216.846 880.276 177.585 869.007 172.852C861.507 169.7 840.322 177.014 823.419 170.161C816.025 167.161 808.348 167.611 806.882 171.094C806.301 172.473 805.631 150.859 820.794 137.579C832.866 127.005 864.932 129.732 878.385 136.67C915.635 155.879 887.773 204.721 887.773 204.721L883.349 217.721L875.2 216.846Z" fill="#0C0C0C"/>
<g opacity="0.52">
<path d="M822.953 219.655L822.902 219.647C820.383 219.118 816.217 217.947 816.61 216.066C816.939 214.505 824.749 198.547 825.64 196.733C825.716 196.577 825.852 196.458 826.016 196.401C826.181 196.345 826.361 196.356 826.517 196.433C826.673 196.51 826.792 196.645 826.849 196.809C826.905 196.974 826.893 197.154 826.817 197.31C823.352 204.376 818.117 215.274 817.893 216.335C818.048 216.835 820.563 217.816 823.17 218.363C823.334 218.4 823.477 218.498 823.571 218.637C823.665 218.776 823.701 218.946 823.674 219.112C823.646 219.277 823.555 219.426 823.421 219.527C823.287 219.628 823.12 219.674 822.953 219.655V219.655Z" fill="#0C0C0C"/>
</g>
<path d="M822.372 179.765C819.897 178.516 817.131 177.957 814.365 178.148C813.006 178.233 811.667 178.522 810.394 179.005C809.134 179.476 807.939 180.105 806.837 180.877C806.653 180.994 806.522 181.179 806.473 181.392C806.424 181.605 806.461 181.829 806.575 182.015C806.69 182.201 806.873 182.335 807.085 182.387C807.297 182.439 807.521 182.406 807.709 182.294L807.767 182.261C808.778 181.634 809.863 181.137 810.998 180.781C812.117 180.423 813.283 180.238 814.457 180.23C816.778 180.196 819.066 180.776 821.091 181.911L821.167 181.956C821.309 182.04 821.466 182.096 821.629 182.119C821.792 182.143 821.959 182.134 822.119 182.093C822.278 182.052 822.429 181.979 822.56 181.88C822.692 181.781 822.803 181.657 822.886 181.514C822.97 181.372 823.024 181.214 823.047 181.051C823.069 180.888 823.059 180.721 823.017 180.562C822.975 180.402 822.901 180.253 822.801 180.121C822.701 179.99 822.576 179.88 822.433 179.798L822.372 179.765Z" fill="#0C0C0C"/>
<path d="M840.881 184.768C843.129 184.191 845.49 184.218 847.725 184.847C848.857 185.157 849.936 185.636 850.925 186.268C851.93 186.904 852.851 187.664 853.667 188.529L853.712 188.574C853.866 188.723 854.072 188.808 854.287 188.809C854.501 188.81 854.708 188.729 854.864 188.581C855.02 188.433 855.113 188.231 855.124 188.017C855.134 187.802 855.062 187.592 854.921 187.43C854.054 186.402 853.061 185.487 851.965 184.707C850.858 183.914 849.638 183.291 848.347 182.859C845.724 181.963 842.907 181.79 840.194 182.359C840.033 182.394 839.881 182.46 839.746 182.554C839.612 182.648 839.496 182.767 839.408 182.905C839.228 183.185 839.167 183.524 839.238 183.848C839.309 184.172 839.505 184.455 839.784 184.634C840.064 184.814 840.403 184.875 840.727 184.804L840.791 184.788L840.881 184.768Z" fill="#0C0C0C"/>
<path d="M818.992 225.712C826.283 227.534 833.973 226.874 840.847 223.836C841.085 223.732 841.348 223.698 841.605 223.738C841.862 223.778 842.102 223.89 842.297 224.062C842.493 224.233 842.635 224.456 842.709 224.706C842.782 224.955 842.783 225.22 842.711 225.47C841.432 229.741 837.831 237.37 828.502 236.738C822.478 236.332 819.018 231.025 817.402 227.621C817.29 227.385 817.248 227.122 817.281 226.863C817.314 226.604 817.42 226.359 817.587 226.159C817.754 225.958 817.975 225.809 818.224 225.73C818.473 225.651 818.74 225.645 818.992 225.712V225.712Z" fill="white"/>
<path d="M847.923 143.173C851.407 134.995 849.727 126.447 844.171 124.08C838.615 121.713 831.287 126.423 827.803 134.601C824.319 142.779 825.999 151.327 831.555 153.694C837.111 156.061 844.439 151.351 847.923 143.173Z" fill="#0C0C0C"/>
<path d="M856.326 313.021C890.417 311.414 891.852 282.478 891.852 282.478C891.852 282.478 908.744 283.57 919.974 285.089C938.358 287.576 950.486 293.81 960.137 303.461C969.116 312.44 974.581 322.154 968.797 384.172C964.609 429.078 967.557 527.851 967.557 527.851H759.807C759.807 527.851 745.3 385.155 743.58 364.94C740.297 326.351 731.025 317.832 749.812 297.954C763.437 283.538 798.612 282.478 812.771 282.48C813 282.48 809.9 315.21 856.326 313.021Z" fill="#367CFF"/>
<path d="M743.089 306.891L689.376 420.763L583.451 341.107L541.379 397.053L681.64 502.529C682.895 503.462 684.206 504.317 685.566 505.089C689.574 507.334 693.985 508.768 698.546 509.309C703.108 509.85 707.732 509.487 712.154 508.241C716.575 506.995 720.708 504.89 724.316 502.046C727.924 499.203 730.937 495.677 733.182 491.669L733.79 490.586L815.737 344.317L743.089 306.891Z" fill="#367CFF"/>
<path d="M975.528 528.851H29.4451C29.1799 528.851 28.9255 528.746 28.738 528.558C28.5504 528.371 28.4451 528.116 28.4451 527.851C28.4451 527.586 28.5504 527.331 28.738 527.144C28.9255 526.956 29.1799 526.851 29.4451 526.851H975.528C975.793 526.851 976.048 526.956 976.235 527.144C976.423 527.331 976.528 527.586 976.528 527.851C976.528 528.116 976.423 528.371 976.235 528.558C976.048 528.746 975.793 528.851 975.528 528.851Z" fill="#292A2E"/>
<path d="M769.748 379.11H263.129V552.281H769.748V379.11Z" fill="white"/>
<path d="M770.247 552.782H262.629V378.61H770.247V552.782ZM263.629 551.782H769.247V379.61H263.629V551.782Z" fill="#0C0C0C"/>
<path d="M238.113 432.034L269.386 418.067C270.073 417.76 270.817 417.6 271.569 417.596C272.322 417.593 273.067 417.746 273.757 418.046C274.448 418.346 275.068 418.786 275.578 419.339C276.089 419.892 276.479 420.545 276.723 421.257C277.134 422.585 277.036 424.018 276.45 425.278C275.864 426.539 274.83 427.536 273.55 428.078L266.844 431.078L292.255 431.34C295.081 431.319 298.561 433.102 298.375 436.273C298.383 437.498 297.976 438.69 297.22 439.654C296.464 440.617 295.403 441.296 294.211 441.58C294.218 441.606 294.222 441.634 294.223 441.661C294.22 441.682 294.216 441.702 294.21 441.722L298.568 441.691C299.375 441.686 300.172 441.861 300.903 442.203C301.633 442.544 302.278 443.045 302.791 443.668C303.303 444.29 303.671 445.019 303.866 445.802C304.062 446.584 304.08 447.4 303.92 448.191C303.642 449.432 302.947 450.539 301.95 451.328C300.953 452.117 299.715 452.54 298.444 452.526L296.59 452.539C296.566 452.593 296.532 452.642 296.49 452.684C297.745 452.966 298.858 453.685 299.632 454.712C300.405 455.739 300.787 457.008 300.711 458.292C300.587 459.695 299.939 460.999 298.895 461.944C297.852 462.89 296.49 463.407 295.082 463.392L290.476 463.425C290.541 463.47 290.594 463.53 290.632 463.599C290.669 463.669 290.69 463.746 290.692 463.825C290.688 463.92 290.657 464.011 290.602 464.088C291.65 464.649 292.485 465.539 292.977 466.621C293.47 467.703 293.594 468.917 293.329 470.076C293.026 471.287 292.324 472.361 291.335 473.123C290.346 473.885 289.129 474.291 287.881 474.276L249.021 474.553C243.585 474.592 238.262 473.006 233.732 470C229.203 466.994 225.675 462.703 223.6 457.679V457.679C221.811 453.346 221.781 448.487 223.518 444.133C225.255 439.779 228.62 436.274 232.9 434.362L238.113 432.034Z" fill="#E98862"/>
<g opacity="0.2">
<path d="M269.057 441.441C269.059 441.572 269.112 441.698 269.206 441.79C269.3 441.882 269.426 441.934 269.557 441.934L293.723 442.151C293.856 442.152 293.983 442.101 294.078 442.008C294.173 441.915 294.226 441.788 294.228 441.655C294.229 441.523 294.177 441.395 294.084 441.301C293.991 441.206 293.865 441.152 293.732 441.151L269.566 440.933C269.434 440.933 269.306 440.986 269.213 441.079C269.119 441.173 269.066 441.3 269.066 441.433L269.057 441.441Z" fill="#0C0C0C"/>
</g>
<g opacity="0.2">
<path d="M268.667 452.1C268.669 452.231 268.722 452.357 268.816 452.449C268.91 452.541 269.036 452.593 269.167 452.593L296.136 452.836C296.269 452.836 296.396 452.783 296.49 452.69C296.583 452.596 296.636 452.469 296.636 452.336C296.632 452.205 296.578 452.08 296.485 451.987C296.392 451.895 296.267 451.841 296.136 451.836L269.167 451.593C269.101 451.592 269.035 451.605 268.974 451.63C268.913 451.654 268.857 451.691 268.81 451.738C268.763 451.784 268.726 451.84 268.701 451.901C268.675 451.962 268.662 452.027 268.662 452.093L268.667 452.1Z" fill="#0C0C0C"/>
</g>
<g opacity="0.2">
<path d="M268.178 463.634C268.18 463.765 268.234 463.891 268.327 463.983C268.421 464.075 268.547 464.127 268.678 464.127L290.191 464.321C290.324 464.322 290.451 464.271 290.546 464.178C290.641 464.085 290.695 463.958 290.696 463.825C290.697 463.693 290.645 463.565 290.552 463.471C290.46 463.376 290.333 463.322 290.2 463.321L268.687 463.127C268.555 463.127 268.427 463.18 268.334 463.273C268.24 463.367 268.187 463.494 268.187 463.627L268.178 463.634Z" fill="#0C0C0C"/>
</g>
<path d="M247.064 487.717L73.6771 527.132C67.9171 527.759 62.0902 527.043 56.6536 525.039C51.2169 523.036 46.3184 519.8 42.3425 515.585C38.3665 511.371 35.4212 506.292 33.7376 500.748C32.054 495.204 31.678 489.346 32.6391 483.632L52.4811 324.032C54.1313 314.224 59.61 305.474 67.7121 299.705C75.8141 293.937 85.8758 291.623 95.6836 293.273C105.491 294.924 114.242 300.402 120.01 308.504C125.779 316.606 128.092 326.668 126.442 336.476L116.887 450.711L237.351 423.449L247.064 487.717Z" fill="#367CFF"/>
<path d="M92.51 455.2C92.3845 455.199 92.2639 455.151 92.1723 455.065C92.0807 454.979 92.0247 454.862 92.0155 454.737C92.0063 454.611 92.0446 454.487 92.1227 454.389C92.2008 454.291 92.313 454.225 92.437 454.206L116.598 449.047C116.663 449.036 116.729 449.039 116.793 449.054C116.857 449.07 116.918 449.098 116.971 449.137C117.024 449.176 117.068 449.226 117.102 449.282C117.135 449.339 117.157 449.402 117.166 449.467C117.186 449.598 117.152 449.731 117.074 449.838C116.995 449.944 116.877 450.015 116.746 450.035L92.585 455.194C92.5602 455.198 92.5352 455.2 92.51 455.2V455.2Z" fill="#0C0C0C"/>
<path d="M78.879 527.851C78.7464 527.86 78.6158 527.815 78.5159 527.728C78.4161 527.64 78.3551 527.516 78.3465 527.383C78.3379 527.251 78.3823 527.12 78.47 527.02C78.5577 526.921 78.6814 526.86 78.814 526.851L245.976 487.48L236.504 424.18L116.759 450.03C116.682 450.04 116.603 450.031 116.529 450.006C116.456 449.98 116.389 449.938 116.334 449.882C116.279 449.826 116.239 449.757 116.216 449.682C116.192 449.608 116.187 449.528 116.2 449.451L122.917 384.181C122.927 384.116 122.95 384.053 122.985 383.997C123.019 383.941 123.065 383.893 123.118 383.854C123.172 383.816 123.233 383.789 123.297 383.775C123.362 383.76 123.428 383.759 123.493 383.771C123.624 383.793 123.74 383.866 123.817 383.974C123.894 384.082 123.925 384.216 123.903 384.347L117.303 448.947L236.737 423.077C236.801 423.059 236.868 423.055 236.935 423.063C237.001 423.072 237.064 423.093 237.122 423.127C237.179 423.161 237.23 423.206 237.27 423.259C237.31 423.313 237.339 423.373 237.355 423.438L247.068 487.711C247.099 487.837 247.079 487.971 247.013 488.083C246.947 488.195 246.84 488.276 246.715 488.311L78.944 527.847C78.9225 527.85 78.9007 527.851 78.879 527.851V527.851Z" fill="#0C0C0C"/>
<path d="M785.364 462.034L754.091 448.067C753.404 447.76 752.66 447.6 751.908 447.596C751.155 447.593 750.41 447.746 749.72 448.046C749.03 448.346 748.41 448.786 747.9 449.339C747.389 449.892 746.999 450.545 746.755 451.257C746.344 452.585 746.442 454.018 747.028 455.279C747.614 456.539 748.648 457.537 749.928 458.078L756.634 461.078L731.222 461.34C728.397 461.319 724.916 463.102 725.103 466.273C725.095 467.498 725.502 468.69 726.258 469.654C727.014 470.618 728.075 471.297 729.267 471.58C729.26 471.606 729.255 471.634 729.254 471.661C729.257 471.682 729.261 471.702 729.267 471.722L724.91 471.691C724.103 471.686 723.306 471.86 722.575 472.202C721.845 472.544 721.2 473.044 720.687 473.667C720.174 474.29 719.807 475.019 719.611 475.801C719.416 476.584 719.397 477.4 719.557 478.191C719.835 479.431 720.531 480.539 721.528 481.328C722.524 482.117 723.762 482.54 725.033 482.526L726.888 482.539C726.913 482.593 726.947 482.642 726.988 482.684C725.733 482.966 724.62 483.685 723.847 484.712C723.073 485.739 722.691 487.008 722.767 488.292C722.891 489.695 723.54 490.999 724.584 491.944C725.627 492.89 726.989 493.407 728.397 493.392L733.003 493.425C732.938 493.47 732.885 493.529 732.847 493.599C732.809 493.669 732.789 493.746 732.787 493.825C732.79 493.919 732.821 494.011 732.876 494.088C731.828 494.649 730.994 495.54 730.501 496.621C730.008 497.703 729.885 498.917 730.149 500.076C730.452 501.287 731.155 502.361 732.143 503.123C733.132 503.885 734.35 504.292 735.598 504.276L774.458 504.553C779.894 504.592 785.218 503.006 789.747 499.999C794.277 496.992 797.805 492.701 799.879 487.676V487.676C801.668 483.343 801.698 478.484 799.961 474.13C798.225 469.776 794.859 466.271 790.579 464.359L785.364 462.034Z" fill="#E98862"/>
<g opacity="0.2">
<path d="M754.42 471.441C754.418 471.572 754.365 471.698 754.271 471.79C754.178 471.882 754.051 471.934 753.92 471.934L729.754 472.151C729.688 472.152 729.623 472.139 729.562 472.115C729.501 472.09 729.446 472.054 729.399 472.008C729.352 471.962 729.315 471.907 729.289 471.846C729.264 471.786 729.25 471.721 729.25 471.655C729.249 471.59 729.261 471.525 729.286 471.464C729.31 471.403 729.347 471.347 729.393 471.301C729.439 471.254 729.494 471.216 729.554 471.191C729.614 471.165 729.679 471.152 729.745 471.151L753.911 470.933C754.044 470.933 754.171 470.986 754.265 471.079C754.358 471.173 754.411 471.3 754.411 471.433L754.42 471.441Z" fill="#0C0C0C"/>
</g>
<g opacity="0.2">
<path d="M754.81 482.1C754.808 482.231 754.755 482.355 754.663 482.447C754.57 482.539 754.446 482.592 754.315 482.593L727.345 482.836C727.212 482.836 727.085 482.783 726.991 482.69C726.898 482.596 726.845 482.469 726.845 482.336C726.849 482.205 726.903 482.08 726.996 481.987C727.089 481.894 727.214 481.84 727.345 481.836L754.314 481.593C754.447 481.593 754.574 481.646 754.668 481.739C754.761 481.833 754.814 481.96 754.814 482.093L754.81 482.1Z" fill="#0C0C0C"/>
</g>
<g opacity="0.2">
<path d="M755.3 493.634C755.298 493.765 755.245 493.891 755.151 493.983C755.058 494.075 754.931 494.127 754.8 494.127L733.287 494.321C733.221 494.322 733.156 494.309 733.095 494.285C733.034 494.26 732.979 494.224 732.932 494.178C732.885 494.132 732.848 494.077 732.822 494.016C732.797 493.956 732.783 493.891 732.782 493.825C732.782 493.76 732.794 493.695 732.819 493.634C732.843 493.573 732.88 493.517 732.926 493.471C732.972 493.424 733.027 493.386 733.087 493.361C733.147 493.335 733.212 493.322 733.278 493.321L754.791 493.127C754.924 493.127 755.051 493.18 755.145 493.273C755.238 493.367 755.291 493.494 755.291 493.627L755.3 493.634Z" fill="#0C0C0C"/>
</g>
<path d="M786.413 517.717L949.8 527.132C955.56 527.759 961.387 527.043 966.824 525.039C972.26 523.036 977.159 519.8 981.135 515.585C985.111 511.371 988.056 506.292 989.74 500.748C991.423 495.204 991.799 489.346 990.838 483.632L971 324.027C970.183 319.171 968.417 314.523 965.804 310.349C963.191 306.175 959.781 302.556 955.769 299.7C951.757 296.844 947.222 294.806 942.423 293.702C937.624 292.599 932.654 292.451 927.798 293.268C922.941 294.086 918.293 295.851 914.119 298.464C909.945 301.078 906.327 304.488 903.471 308.499C900.615 312.511 898.577 317.046 897.473 321.845C896.369 326.645 896.222 331.615 897.039 336.471L906.594 457.706L787.13 453.444L786.413 517.717Z" fill="#367CFF"/>
<path d="M930.967 457.2C931.093 457.199 931.213 457.151 931.305 457.065C931.397 456.98 931.453 456.862 931.463 456.737C931.472 456.612 931.434 456.488 931.356 456.389C931.278 456.291 931.165 456.225 931.041 456.206L906.88 456.047C906.815 456.036 906.749 456.039 906.685 456.054C906.62 456.07 906.56 456.098 906.507 456.137C906.454 456.176 906.409 456.226 906.376 456.282C906.342 456.339 906.32 456.402 906.311 456.467C906.292 456.598 906.325 456.732 906.404 456.838C906.483 456.945 906.601 457.015 906.732 457.035L930.893 457.194C930.918 457.198 930.942 457.2 930.967 457.2Z" fill="#0C0C0C"/>
<path d="M944.6 527.851C944.733 527.859 944.863 527.815 944.963 527.727C945.063 527.639 945.124 527.516 945.132 527.383C945.141 527.25 945.096 527.12 945.008 527.02C944.92 526.92 944.797 526.859 944.664 526.851L787.5 517.484L787.971 454.184L906.716 457.034C906.794 457.044 906.872 457.035 906.946 457.01C907.02 456.984 907.086 456.942 907.141 456.886C907.196 456.83 907.236 456.761 907.259 456.686C907.283 456.612 907.288 456.532 907.275 456.455L900.559 384.185C900.549 384.12 900.526 384.057 900.491 384.001C900.457 383.945 900.411 383.897 900.357 383.859C900.304 383.82 900.243 383.793 900.179 383.779C900.114 383.765 900.048 383.763 899.983 383.775C899.918 383.786 899.856 383.809 899.8 383.844C899.745 383.879 899.696 383.924 899.658 383.978C899.62 384.031 899.593 384.092 899.578 384.156C899.563 384.22 899.561 384.286 899.572 384.351L906.177 455.951L787.743 453.081C787.679 453.063 787.612 453.058 787.546 453.067C787.479 453.076 787.416 453.097 787.358 453.131C787.301 453.165 787.25 453.21 787.21 453.263C787.17 453.317 787.141 453.377 787.125 453.442L786.411 517.715C786.38 517.841 786.4 517.975 786.466 518.087C786.532 518.199 786.639 518.28 786.764 518.315L944.531 527.841C944.554 527.846 944.577 527.849 944.6 527.851V527.851Z" fill="#0C0C0C"/>
<path d="M333.578 454L321.925 413.273H331.331L338.073 441.571H338.411L345.848 413.273H353.902L361.32 441.631H361.678L368.419 413.273H377.826L366.172 454H357.78L350.025 427.372H349.706L341.971 454H333.578ZM382.434 454V413.273H409.877V420.372H391.045V430.077H408.466V437.176H391.045V446.901H409.957V454H382.434ZM416.723 454V413.273H425.334V446.901H442.794V454H416.723ZM482.846 427.531H474.135C473.976 426.404 473.651 425.403 473.161 424.528C472.67 423.64 472.041 422.884 471.272 422.261C470.503 421.638 469.614 421.161 468.607 420.83C467.613 420.498 466.532 420.332 465.365 420.332C463.257 420.332 461.421 420.856 459.857 421.903C458.292 422.937 457.079 424.449 456.218 426.438C455.356 428.413 454.925 430.812 454.925 433.636C454.925 436.54 455.356 438.979 456.218 440.955C457.093 442.93 458.312 444.421 459.877 445.429C461.441 446.437 463.251 446.94 465.306 446.94C466.459 446.94 467.526 446.788 468.507 446.483C469.502 446.178 470.383 445.734 471.152 445.151C471.921 444.554 472.558 443.831 473.061 442.983C473.578 442.134 473.936 441.167 474.135 440.08L482.846 440.119C482.62 441.989 482.057 443.792 481.155 445.528C480.267 447.252 479.067 448.796 477.556 450.162C476.058 451.514 474.268 452.588 472.186 453.384C470.118 454.166 467.778 454.557 465.167 454.557C461.534 454.557 458.286 453.735 455.422 452.091C452.572 450.447 450.318 448.067 448.661 444.952C447.017 441.836 446.195 438.064 446.195 433.636C446.195 429.195 447.03 425.417 448.701 422.301C450.371 419.186 452.638 416.812 455.502 415.182C458.365 413.538 461.587 412.716 465.167 412.716C467.526 412.716 469.714 413.047 471.729 413.71C473.757 414.373 475.554 415.341 477.118 416.614C478.683 417.873 479.955 419.418 480.936 421.247C481.931 423.077 482.567 425.171 482.846 427.531ZM526.446 433.636C526.446 438.078 525.605 441.856 523.921 444.972C522.25 448.087 519.97 450.467 517.08 452.111C514.203 453.741 510.968 454.557 507.375 454.557C503.756 454.557 500.508 453.735 497.631 452.091C494.754 450.447 492.48 448.067 490.81 444.952C489.14 441.836 488.304 438.064 488.304 433.636C488.304 429.195 489.14 425.417 490.81 422.301C492.48 419.186 494.754 416.812 497.631 415.182C500.508 413.538 503.756 412.716 507.375 412.716C510.968 412.716 514.203 413.538 517.08 415.182C519.97 416.812 522.25 419.186 523.921 422.301C525.605 425.417 526.446 429.195 526.446 433.636ZM517.716 433.636C517.716 430.759 517.285 428.333 516.424 426.358C515.575 424.383 514.375 422.884 512.824 421.864C511.273 420.843 509.457 420.332 507.375 420.332C505.294 420.332 503.478 420.843 501.926 421.864C500.375 422.884 499.169 424.383 498.307 426.358C497.459 428.333 497.034 430.759 497.034 433.636C497.034 436.513 497.459 438.939 498.307 440.915C499.169 442.89 500.375 444.388 501.926 445.409C503.478 446.43 505.294 446.94 507.375 446.94C509.457 446.94 511.273 446.43 512.824 445.409C514.375 444.388 515.575 442.89 516.424 440.915C517.285 438.939 517.716 436.513 517.716 433.636ZM532.825 413.273H543.444L554.66 440.636H555.137L566.353 413.273H576.973V454H568.62V427.491H568.282L557.743 453.801H552.055L541.515 427.392H541.177V454H532.825V413.273ZM584.067 454V413.273H611.51V420.372H592.678V430.077H610.098V437.176H592.678V446.901H611.59V454H584.067ZM629.766 420.372V413.273H663.215V420.372H650.746V454H642.235V420.372H629.766ZM704.29 433.636C704.29 438.078 703.448 441.856 701.765 444.972C700.094 448.087 697.814 450.467 694.924 452.111C692.047 453.741 688.812 454.557 685.219 454.557C681.6 454.557 678.352 453.735 675.475 452.091C672.598 450.447 670.324 448.067 668.654 444.952C666.983 441.836 666.148 438.064 666.148 433.636C666.148 429.195 666.983 425.417 668.654 422.301C670.324 419.186 672.598 416.812 675.475 415.182C678.352 413.538 681.6 412.716 685.219 412.716C688.812 412.716 692.047 413.538 694.924 415.182C697.814 416.812 700.094 419.186 701.765 422.301C703.448 425.417 704.29 429.195 704.29 433.636ZM695.56 433.636C695.56 430.759 695.129 428.333 694.267 426.358C693.419 424.383 692.219 422.884 690.668 421.864C689.117 420.843 687.301 420.332 685.219 420.332C683.138 420.332 681.321 420.843 679.77 421.864C678.219 422.884 677.013 424.383 676.151 426.358C675.302 428.333 674.878 430.759 674.878 433.636C674.878 436.513 675.302 438.939 676.151 440.915C677.013 442.89 678.219 444.388 679.77 445.409C681.321 446.43 683.138 446.94 685.219 446.94C687.301 446.94 689.117 446.43 690.668 445.409C692.219 444.388 693.419 442.89 694.267 440.915C695.129 438.939 695.56 436.513 695.56 433.636ZM397.971 495.531H389.26C389.101 494.404 388.776 493.403 388.286 492.528C387.795 491.64 387.166 490.884 386.397 490.261C385.628 489.638 384.739 489.161 383.732 488.83C382.738 488.498 381.657 488.332 380.49 488.332C378.382 488.332 376.546 488.856 374.982 489.903C373.417 490.937 372.204 492.449 371.343 494.438C370.481 496.413 370.05 498.812 370.05 501.636C370.05 504.54 370.481 506.979 371.343 508.955C372.218 510.93 373.437 512.421 375.002 513.429C376.566 514.437 378.376 514.94 380.431 514.94C381.584 514.94 382.651 514.788 383.632 514.483C384.627 514.178 385.508 513.734 386.277 513.151C387.046 512.554 387.683 511.831 388.186 510.983C388.703 510.134 389.061 509.167 389.26 508.08L397.971 508.119C397.745 509.989 397.182 511.792 396.28 513.528C395.392 515.252 394.192 516.796 392.681 518.162C391.183 519.514 389.393 520.588 387.311 521.384C385.243 522.166 382.903 522.557 380.292 522.557C376.659 522.557 373.411 521.735 370.547 520.091C367.697 518.447 365.443 516.067 363.786 512.952C362.142 509.836 361.32 506.064 361.32 501.636C361.32 497.195 362.155 493.417 363.826 490.301C365.496 487.186 367.763 484.812 370.627 483.182C373.49 481.538 376.712 480.716 380.292 480.716C382.651 480.716 384.839 481.047 386.854 481.71C388.882 482.373 390.679 483.341 392.243 484.614C393.808 485.873 395.08 487.418 396.061 489.247C397.056 491.077 397.692 493.171 397.971 495.531ZM410.4 522H401.172L415.232 481.273H426.328L440.368 522H431.141L420.939 490.58H420.621L410.4 522ZM409.823 505.991H431.618V512.713H409.823V505.991ZM445.27 522V481.273H461.338C464.427 481.273 467.059 481.863 469.233 483.043C471.408 484.209 473.065 485.833 474.205 487.915C475.358 489.983 475.935 492.369 475.935 495.074C475.935 497.778 475.352 500.165 474.185 502.233C473.018 504.301 471.328 505.912 469.114 507.065C466.913 508.219 464.248 508.795 461.12 508.795H450.878V501.895H459.728C461.385 501.895 462.75 501.61 463.824 501.04C464.911 500.456 465.72 499.654 466.25 498.634C466.794 497.599 467.066 496.413 467.066 495.074C467.066 493.722 466.794 492.542 466.25 491.534C465.72 490.513 464.911 489.724 463.824 489.168C462.737 488.598 461.358 488.312 459.688 488.312H453.881V522H445.27ZM503.622 492.986C503.463 491.382 502.78 490.135 501.574 489.247C500.367 488.359 498.73 487.915 496.662 487.915C495.256 487.915 494.07 488.114 493.102 488.511C492.134 488.896 491.392 489.433 490.875 490.122C490.371 490.812 490.119 491.594 490.119 492.469C490.092 493.198 490.245 493.834 490.576 494.378C490.921 494.921 491.392 495.392 491.988 495.79C492.585 496.174 493.274 496.512 494.056 496.804C494.839 497.082 495.674 497.321 496.562 497.52L500.221 498.395C501.998 498.793 503.628 499.323 505.113 499.986C506.598 500.649 507.884 501.464 508.971 502.432C510.058 503.4 510.9 504.54 511.497 505.852C512.107 507.165 512.418 508.67 512.431 510.366C512.418 512.859 511.782 515.02 510.522 516.849C509.276 518.666 507.473 520.078 505.113 521.085C502.767 522.08 499.936 522.577 496.622 522.577C493.334 522.577 490.47 522.073 488.031 521.065C485.605 520.058 483.709 518.566 482.343 516.591C480.991 514.602 480.282 512.143 480.216 509.213H488.548C488.641 510.579 489.032 511.719 489.721 512.634C490.424 513.535 491.359 514.218 492.525 514.682C493.705 515.133 495.038 515.358 496.522 515.358C497.981 515.358 499.247 515.146 500.321 514.722C501.408 514.297 502.25 513.707 502.846 512.952C503.443 512.196 503.741 511.328 503.741 510.347C503.741 509.432 503.469 508.663 502.926 508.04C502.395 507.417 501.613 506.886 500.579 506.449C499.558 506.011 498.306 505.614 496.821 505.256L492.386 504.142C488.952 503.307 486.241 502.001 484.252 500.224C482.264 498.448 481.276 496.055 481.289 493.045C481.276 490.58 481.932 488.425 483.258 486.582C484.597 484.74 486.433 483.301 488.767 482.267C491.1 481.233 493.752 480.716 496.721 480.716C499.744 480.716 502.382 481.233 504.636 482.267C506.903 483.301 508.666 484.74 509.926 486.582C511.185 488.425 511.835 490.56 511.875 492.986H503.622ZM516.672 488.372V481.273H550.121V488.372H537.652V522H529.141V488.372H516.672ZM591.196 501.636C591.196 506.078 590.355 509.856 588.671 512.972C587 516.087 584.72 518.467 581.83 520.111C578.953 521.741 575.718 522.557 572.125 522.557C568.506 522.557 565.258 521.735 562.381 520.091C559.504 518.447 557.23 516.067 555.56 512.952C553.89 509.836 553.054 506.064 553.054 501.636C553.054 497.195 553.89 493.417 555.56 490.301C557.23 487.186 559.504 484.812 562.381 483.182C565.258 481.538 568.506 480.716 572.125 480.716C575.718 480.716 578.953 481.538 581.83 483.182C584.72 484.812 587 487.186 588.671 490.301C590.355 493.417 591.196 497.195 591.196 501.636ZM582.466 501.636C582.466 498.759 582.035 496.333 581.174 494.358C580.325 492.383 579.125 490.884 577.574 489.864C576.023 488.843 574.207 488.332 572.125 488.332C570.044 488.332 568.228 488.843 566.676 489.864C565.125 490.884 563.919 492.383 563.057 494.358C562.209 496.333 561.784 498.759 561.784 501.636C561.784 504.513 562.209 506.939 563.057 508.915C563.919 510.89 565.125 512.388 566.676 513.409C568.228 514.43 570.044 514.94 572.125 514.94C574.207 514.94 576.023 514.43 577.574 513.409C579.125 512.388 580.325 510.89 581.174 508.915C582.035 506.939 582.466 504.513 582.466 501.636ZM631.64 481.273V522H624.203L606.484 496.366H606.186V522H597.575V481.273H605.132L622.711 506.886H623.069V481.273H631.64ZM638.755 522V481.273H666.198V488.372H647.365V498.077H664.786V505.176H647.365V514.901H666.277V522H638.755Z" fill="#0CBC8B"/>
</g>
<defs>
<clipPath id="clip0_18_47">
<rect width="991.358" height="552.782" fill="white"/>
</clipPath>
</defs>
</svg>
