<svg width="158" height="158" viewBox="0 0 158 158" fill="none" xmlns="http://www.w3.org/2000/svg">
<g filter="url(#filter0_d_109_2)">
<rect x="4" width="150" height="150" rx="75" fill="#0CBC8B" shape-rendering="crispEdges"/>
<path d="M38.95 77.45C38.95 68.85 40.7 61.35 44.2 54.95C47.7 48.45 52.55 43.45 58.75 39.95C64.95 36.35 72.05 34.55 80.05 34.55C90.35 34.55 98.85 37.15 105.55 42.35C112.35 47.45 116.9 54.65 119.2 63.95H96.55C95.35 60.35 93.3 57.55 90.4 55.55C87.6 53.45 84.1 52.4 79.9 52.4C73.9 52.4 69.15 54.6 65.65 59C62.15 63.3 60.4 69.45 60.4 77.45C60.4 85.35 62.15 91.5 65.65 95.9C69.15 100.2 73.9 102.35 79.9 102.35C88.4 102.35 93.95 98.55 96.55 90.95H119.2C116.9 99.95 112.35 107.1 105.55 112.4C98.75 117.7 90.25 120.35 80.05 120.35C72.05 120.35 64.95 118.6 58.75 115.1C52.55 111.5 47.7 106.5 44.2 100.1C40.7 93.6 38.95 86.05 38.95 77.45Z" fill="#FFFFFA"/>
</g>
<defs>
<filter id="filter0_d_109_2" x="0" y="0" width="158" height="158" filterUnits="userSpaceOnUse" color-interpolation-filters="sRGB">
<feFlood flood-opacity="0" result="BackgroundImageFix"/>
<feColorMatrix in="SourceAlpha" type="matrix" values="0 0 0 0 0 0 0 0 0 0 0 0 0 0 0 0 0 0 127 0" result="hardAlpha"/>
<feOffset dy="4"/>
<feGaussianBlur stdDeviation="2"/>
<feComposite in2="hardAlpha" operator="out"/>
<feColorMatrix type="matrix" values="0 0 0 0 0 0 0 0 0 0 0 0 0 0 0 0 0 0 0.25 0"/>
<feBlend mode="normal" in2="BackgroundImageFix" result="effect1_dropShadow_109_2"/>
<feBlend mode="normal" in="SourceGraphic" in2="effect1_dropShadow_109_2" result="shape"/>
</filter>
</defs>
</svg>
