<svg id="Layer_1" data-name="Layer 1" xmlns="http://www.w3.org/2000/svg" viewBox="0 0 1127.189 699.255">
  <path d="M1127.189,699.255H0c12.351-31.5,35.16-58.217,67.313-66.143,47.036-11.581,96.812,20.258,143.743,8.288,26.663-6.794,47.654-26.6,69.711-43.039,83.214-62.042,197.249-80.379,295.716-47.54,51.47,17.156,98.373,47.159,151.1,59.919,68.179,16.5,139.479,2.817,209.59.562C1005.456,609.1,1103.3,636.927,1127.189,699.255Z" fill="#f3f5fd"></path>
  <g>
    <g>
      <rect x="527.739" y="515.352" width="142.505" height="161.31" fill="#dee8f5"></rect>
      <rect x="224.652" width="748.678" height="594.252" rx="27.504" fill="#dee8f5"></rect>
      <rect x="241.703" y="18.758" width="714.573" height="496.049" rx="12.16" fill="#fff"></rect>
      <rect x="464.218" y="662.205" width="269.545" height="37.05" rx="18.525" fill="#dee8f5"></rect>
    </g>
    <rect x="535.113" y="386.556" width="127.757" height="32.249" fill="#dee8f5"></rect>
    <g>
      <path d="M649.466,93.228v14.034a9,9,0,0,1-9,9H459.849a9,9,0,0,0-9,9V330.532a9,9,0,0,0,9,9H738.133a9,9,0,0,0,9-9V93.228a9,9,0,0,0-9-9H658.47A9,9,0,0,0,649.466,93.228Z" fill="#dee8f5"></path>
      <rect x="594.856" y="177.425" width="8.27" height="100.95" fill="#fff"></rect>
      <rect x="548.516" y="223.766" width="100.95" height="8.27" fill="#fff"></rect>
    </g>
  </g>
  <g>
    <path d="M286.047,688.436l-20.854-2.481c.939-7.892,2-17.374,2.073-18.928,0,.1,0,.181,0,.245h21C288.261,667.9,288.261,669.818,286.047,688.436Z" fill="#FAA896"></path>
    <path d="M202.371,690.946l-21-.069s.07-21.684.07-23.6h21C202.441,669.2,202.371,690.946,202.371,690.946Z" fill="#FAA896"></path>
    <path d="M293.794,681.174c-1.738-44.009-1.843-90.231-2.387-134.357-7.222-47.593-11.019-99.793-19.935-147.049l-.266.079-.782-5.33-76.077-4.695s-1.984,37.277-2.676,49.7c-3.707,66.588-11.233,173.615-15.712,241.089l36.868,3.115c6.585-66.36,15.322-172.075,21.272-237.48,6.53,33.327,14.688,70.857,20.485,104.579,1.27,43.078,2.33,87.97,2.215,130.978Z" fill="#262626"></path>
    <path d="M227.9,699.068a4.109,4.109,0,0,0,4.077-4.427h0a4.109,4.109,0,0,0-2.659-3.529l-24.443-8.187a3.465,3.465,0,0,0-2.872.319,19.1,19.1,0,0,1-11.468,3.4,17.035,17.035,0,0,1-8.82-3.222,1.547,1.547,0,0,0-2.528,1.2v11.952a2.677,2.677,0,0,0,2.689,2.678Z" fill="#c1d8ed"></path>
    <path d="M311.633,699.068a4.108,4.108,0,0,0,4.076-4.427h0a4.106,4.106,0,0,0-2.658-3.529l-24.443-8.187a3.464,3.464,0,0,0-2.872.319,19.1,19.1,0,0,1-11.468,3.4,17.038,17.038,0,0,1-8.821-3.222,1.546,1.546,0,0,0-2.527,1.2v11.952a2.677,2.677,0,0,0,2.689,2.678Z" fill="#c1d8ed"></path>
    <path d="M307.71,319.56l.465.2-5.817.939,5.71,10.9s21.173,4.955,31.08-6.191a1.887,1.887,0,0,0-1.6-3.13c-5.71.579-15.891,1.269-20.476-.54,2.016-.99,4.691-2.506,4.271-3.412C320.237,315.945,310.652,319.085,307.71,319.56Z" fill="#FAA896"></path>
    <polygon points="288.293 325.659 290.172 326.829 288.293 326.829 288.293 325.659" fill="#fd5d76"></polygon>
    <g>
      <polygon points="413.304 326.482 302.358 326.482 302.358 183.251 389.692 183.251 413.304 208.204 413.304 326.482" fill="#c1d8ed"></polygon>
      <polygon points="389.692 183.251 389.692 208.204 413.304 208.204 389.692 183.251" fill="#dee8f5"></polygon>
    </g>
    <rect x="314.943" y="244.977" width="85.776" height="4.77" fill="#dee8f5"></rect>
    <rect x="314.943" y="260.531" width="85.776" height="4.77" fill="#dee8f5"></rect>
    <rect x="314.943" y="276.086" width="85.776" height="4.77" fill="#dee8f5"></rect>
    <rect x="314.943" y="291.64" width="85.776" height="4.77" fill="#dee8f5"></rect>
    <rect x="314.943" y="307.194" width="85.776" height="4.77" fill="#dee8f5"></rect>
    <path d="M370.462,319.56l.465.2-5.817.939,5.71,10.9s21.173,4.955,31.08-6.191a1.887,1.887,0,0,0-1.6-3.13c-5.71.579-15.891,1.269-20.476-.54,2.016-.99,4.691-2.506,4.27-3.412C382.989,315.945,373.4,319.085,370.462,319.56Z" fill="#FAA896"></path>
    <g>
      <path d="M217.491,288.2s7.732-4.1,6.006-25.157l15.976-2.962s-1.8,18.878,6.288,24.872Z" fill="#FAA896"></path>
      <path d="M214.432,254.878c1.106,6.389,4.592,12.438,10.228,14.5C231.349,271.83,236.3,272,244.017,272c10.525,0,10.177-10.976,10.473-22.038.3-11.1-.586-23.018-4.746-26.888-8.3-7.725-32.673-2.833-35.638,10.087C212.573,239.838,213.379,248.8,214.432,254.878Z" fill="#FAA896"></path>
      <path d="M242.821,268.332c-1.6,2.8-16.278,2.663-20.1.4-3.759-2.227-12.21-6.088-15.089-24.282-2.581-16.3,7.476-23.026,15.495-25.425,6.914-2.069,23.048-2.494,30.619,2.07,6.526,3.933,0,13.081,0,13.081a17.331,17.331,0,0,1-3.736.468c-4.512,0-5.434,2.938-5.275,4.7C245.706,250.024,244.771,264.915,242.821,268.332Z" fill="#0f1011"></path>
      <path d="M251.883,252.054a6.143,6.143,0,1,1-12.244,1,6.04,6.04,0,0,1,5.62-6.624C249.637,246.291,251.606,248.673,251.883,252.054Z" fill="#FAA896"></path>
    </g>
    <path d="M367.435,317.081,314.48,334.228l-3.718-7.4H298.576l-26.5-34.35c-3.006-5.828-8.67-9.61-18.736-10.041-4.015-.172-23.606-.2-37.95-.2-9.636,0-17.547,2.956-22.116,7.525-15.75,15.751,3.583,42.591,3.583,63.6s-9.5,30.418-8.8,41.2c1.1,16.945,83.429,12.941,87.624,3.316,3.855-8.861-2.711-14.7-3.893-38.945l17.3-8.694,4.657,6.036a10.9,10.9,0,0,0,11.99,3.713l68.414-22.153Zm-94.661,16.944q.246-2.14.506-4.288l2.242,2.906Z" fill="#367CFF"></path>
  </g>
  <g>
    <path d="M141.044,615.416c-5-1.637-10.132.2-15.042,3.934,6.467-16.33,9.137-31.08-1.92-31.745-7.735-.464-13.662,5.47-18.164,13.908-1.582-14.835-5.668-25.9-14.818-22.231-10.046,4.027-11.575,17.829-10.051,32.271-4.425-7.376-9.191-11.49-13.517-7.163-12.913,12.913,18.782,49.3,18.782,49.3h7.872l4.492,4.878c-.909,1.922-1.407,3.067-1.407,3.067l5.706,11.612S161.795,622.208,141.044,615.416Z" fill="#8ddbe0"></path>
    <polygon points="126.93 699.255 82.38 699.255 74.923 647.247 134.388 647.247 126.93 699.255" fill="#c1d8ed"></polygon>
  </g>
  <path d="M1003.346,695.676c20.258-4.421,40.09-10.769,59.455-31.639,3.974-4.276,7.842-9.859,6.351-15.513-1.122-4.255-5.166-7.266-9.448-8.315a21.029,21.029,0,0,0-4.868-.553c-.009,0-.017,0-.019,0a41.348,41.348,0,0,0-7.511.815l-.706.137a122.149,122.149,0,0,0-33.811,11.906,4.81,4.81,0,0,1-6.116-7.1,29.121,29.121,0,0,1,3.968-4.375,46.2,46.2,0,0,1,6.974-5.07c3.3-2,6.78-3.731,10.2-5.522a268.29,268.29,0,0,0,36.328-22.852c8.2-6.127,16.285-13.013,20.722-22.236,2.038-4.242,3.229-9.231,1.611-13.65-2.673-7.259-11.774-10.006-19.478-9.209-13.5,1.4-24.945,10.228-35.186,19.124-8.5,7.393-18,15.571-29.256,15.1a9.854,9.854,0,0,1-5.431-1.583c-3.032-2.211-3.468-6.769-2.023-10.234s4.327-6.086,7.108-8.6c16.159-14.6,32.138-29.867,43.416-48.492s17.5-41.225,12.6-62.449c-1.439-6.2-3.876-12.332-8.088-17.112s-10.41-8.083-16.78-7.784c-8.679.394-15.763,7.083-20.754,14.185-17.149,24.377-18.933,55.894-25.666,84.925-1.885,8.127-4.324,16.419-9.8,22.772a5.567,5.567,0,0,1-1.857,1.456c-4.234,1.989-7.449-3.031-8.621-7.157-4.622-16.324-4.563-34.534-14.143-48.539-3.656-5.331-9.081-9.992-15.523-10.5-7.871-.621-15.17,5.371-18.112,12.7s-2.269,15.619-.452,23.3c3.376,14.247,10.49,27.394,19.192,39.164,4.589,6.213,9.834,12.543,10.713,20.21a15.332,15.332,0,0,1-6,13.67,8.985,8.985,0,0,1-6.816,1.6c-2.562-.458-4.784-1.975-6.925-3.449-.9-.619-1.8-1.246-2.708-1.863q-5.363-3.694-10.728-7.4c-9.091-6.274-20.157-12.838-30.518-9-5.292,1.964-9.021,6.4-11.052,11.683a27.544,27.544,0,0,0-1.289,15.041c2.089,10.48,18.341,40.539,25.422,48.54C905.974,671.152,934.03,710.806,1003.346,695.676Z" fill="#8ddbe0"></path>
</svg>