<svg width="1227" height="699" viewBox="0 0 1227 699" fill="none" xmlns="http://www.w3.org/2000/svg">
<g id="Upload 1" clip-path="url(#clip0_2_111)">
<path id="Vector" d="M1227 699H0C13.4447 667.511 38.2734 640.804 73.2735 632.881C124.474 621.304 178.658 653.132 229.745 641.166C258.769 634.375 281.618 614.576 305.629 598.143C396.211 536.123 520.344 517.793 627.53 550.62C683.557 567.77 734.614 597.762 792.01 610.517C866.226 627.011 943.839 613.333 1020.16 611.079C1094.49 608.878 1201 636.695 1227 699Z" fill="#F3F5FD"/>
<g id="Group">
<g id="Group_2">
<path id="Vector_2" d="M721.264 527.16H566.14V688.411H721.264V527.16Z" fill="#DEE8F5"/>
<path id="Vector_3" d="M1021.25 11.9956H266.155C249.619 11.9956 236.215 24.3051 236.215 39.4896V578.537C236.215 593.721 249.619 606.031 266.155 606.031H1021.25C1037.78 606.031 1051.19 593.721 1051.19 578.537V39.4896C1051.19 24.3051 1037.78 11.9956 1021.25 11.9956Z" fill="#DEE8F5"/>
<path id="Vector_4" d="M1017.53 33.9876H266.159C258.848 33.9876 252.922 39.4298 252.922 46.1432V517.7C252.922 524.413 258.848 529.856 266.159 529.856H1017.53C1024.84 529.856 1030.77 524.413 1030.77 517.7V46.1432C1030.77 39.4298 1024.84 33.9876 1017.53 33.9876Z" fill="white"/>
<path id="Vector_5" d="M770.242 673.959H517.16C506.023 673.959 496.994 682.25 496.994 692.477C496.994 702.705 506.023 710.996 517.16 710.996H770.242C781.379 710.996 790.407 702.705 790.407 692.477C790.407 682.25 781.379 673.959 770.242 673.959Z" fill="#DEE8F5"/>
</g>
</g>
<g id="Group_3">
<path id="Vector_6" d="M1090.3 571.633C1084.85 569.997 1079.27 571.833 1073.92 575.566C1080.96 559.242 1083.87 544.497 1071.83 543.833C1063.41 543.369 1056.96 549.301 1052.06 557.736C1050.34 542.906 1045.89 531.845 1035.93 535.513C1024.99 539.538 1023.33 553.335 1024.99 567.772C1020.17 560.399 1014.98 556.286 1010.27 560.612C996.218 573.52 1030.72 609.894 1030.72 609.894H1039.29L1044.18 614.77C1043.19 616.691 1042.65 617.836 1042.65 617.836L1048.86 629.443C1048.86 629.443 1112.88 578.423 1090.3 571.633Z" fill="#0CBC8B"/>
<path id="Vector_7" d="M1074.93 655.442H1026.44L1018.32 603.453H1083.05L1074.93 655.442Z" fill="#C1D8ED"/>
</g>
<g id="Vector_8" filter="url(#filter0_d_2_111)">
<path d="M261.854 684.975C283.906 680.556 305.494 674.21 326.574 653.347C330.9 649.073 335.11 643.492 333.487 637.84C332.266 633.587 327.864 630.577 323.203 629.528C321.466 629.155 319.688 628.969 317.904 628.975C317.894 628.975 317.885 628.975 317.883 628.975C315.136 629.017 312.4 629.29 309.707 629.79L308.938 629.927C296.1 632.21 283.698 636.221 272.134 641.829C271.086 642.333 269.883 642.497 268.721 642.294C267.559 642.09 266.506 641.532 265.734 640.709C264.962 639.886 264.517 638.847 264.47 637.761C264.423 636.676 264.777 635.608 265.476 634.731C266.751 633.143 268.198 631.677 269.795 630.358C272.148 628.455 274.69 626.758 277.387 625.29C280.979 623.29 284.767 621.56 288.49 619.77C302.315 613.137 315.539 605.498 328.035 596.926C336.961 590.801 345.762 583.918 350.592 574.698C352.81 570.458 354.107 565.47 352.345 561.053C349.436 553.797 339.529 551.051 331.143 551.847C316.447 553.247 303.989 562.072 292.841 570.965C283.588 578.355 273.247 586.53 260.994 586.059C258.898 586.073 256.842 585.523 255.082 584.477C251.782 582.266 251.307 577.71 252.88 574.246C254.453 570.783 257.591 568.163 260.618 565.649C278.208 551.055 295.601 535.793 307.878 517.175C320.155 498.557 326.928 475.965 321.594 454.749C320.027 448.551 317.375 442.421 312.79 437.643C308.205 432.865 301.458 429.563 294.524 429.862C285.076 430.256 277.365 436.942 271.932 444.042C253.265 468.41 251.323 499.915 243.993 528.936C241.942 537.06 239.287 545.349 233.326 551.699C232.773 552.312 232.084 552.808 231.304 553.155C226.695 555.143 223.196 550.125 221.92 546.001C216.889 529.683 216.953 511.479 206.525 497.479C202.545 492.15 196.639 487.491 189.627 486.983C181.059 486.362 173.114 492.352 169.911 499.678C166.709 507.005 167.441 515.292 169.419 522.97C173.094 537.212 180.838 550.354 190.311 562.12C195.306 568.33 201.015 574.658 201.972 582.322C202.242 584.922 201.783 587.543 200.64 589.934C199.497 592.326 197.707 594.409 195.441 595.987C194.384 596.696 193.182 597.203 191.908 597.478C190.633 597.753 189.312 597.79 188.021 597.587C185.232 597.129 182.814 595.612 180.483 594.139C179.503 593.52 178.524 592.893 177.535 592.277C173.643 589.815 169.751 587.349 165.857 584.879C155.961 578.608 143.916 572.046 132.637 575.883C126.876 577.846 122.817 582.28 120.606 587.561C118.623 592.355 118.137 597.563 119.203 602.597C121.477 613.073 139.168 643.121 146.876 651.119C155.86 660.46 186.401 700.099 261.854 684.975Z" fill="#0CBC8B"/>
</g>
<g id="Group_4">
<g id="Group_5">
<path id="Vector_9" d="M497.843 282.907C497.544 282.907 497.257 282.808 497.046 282.63C496.835 282.452 496.716 282.211 496.716 281.96V255.226C496.716 254.975 496.835 254.734 497.046 254.556C497.257 254.379 497.544 254.279 497.843 254.279C498.141 254.279 498.428 254.379 498.639 254.556C498.851 254.734 498.969 254.975 498.969 255.226V281.959C498.969 282.084 498.94 282.207 498.884 282.322C498.827 282.437 498.744 282.542 498.64 282.63C498.535 282.718 498.411 282.788 498.274 282.835C498.137 282.883 497.991 282.907 497.843 282.907V282.907Z" fill="#262626"/>
<g id="Group_6">
<path id="Vector_10" d="M508.214 269.541H487.47C487.171 269.541 486.885 269.441 486.673 269.263C486.462 269.086 486.343 268.845 486.343 268.593C486.343 268.342 486.462 268.101 486.673 267.924C486.885 267.746 487.171 267.646 487.47 267.646H508.214C508.513 267.646 508.8 267.746 509.011 267.924C509.223 268.101 509.341 268.342 509.341 268.593C509.341 268.845 509.223 269.086 509.011 269.263C508.8 269.441 508.513 269.541 508.214 269.541V269.541Z" fill="#262626"/>
</g>
</g>
<g id="Group_7">
<path id="Vector_11" d="M770.191 349.914C769.98 349.914 769.778 349.844 769.629 349.719C769.48 349.593 769.396 349.423 769.396 349.246V334.907C769.402 334.733 769.488 334.568 769.636 334.446C769.784 334.324 769.983 334.256 770.191 334.256C770.398 334.256 770.597 334.324 770.746 334.446C770.894 334.568 770.98 334.733 770.985 334.907V349.246C770.985 349.334 770.965 349.421 770.925 349.502C770.885 349.583 770.827 349.656 770.753 349.719C770.679 349.781 770.591 349.83 770.495 349.863C770.399 349.897 770.295 349.914 770.191 349.914V349.914Z" fill="#262626"/>
<g id="Group_8">
<path id="Vector_12" d="M775.755 342.745H764.628C764.522 342.747 764.416 342.732 764.317 342.699C764.218 342.666 764.128 342.618 764.053 342.555C763.977 342.493 763.916 342.419 763.875 342.336C763.834 342.254 763.812 342.166 763.812 342.077C763.812 341.988 763.834 341.899 763.875 341.817C763.916 341.735 763.977 341.66 764.053 341.598C764.128 341.536 764.218 341.487 764.317 341.455C764.416 341.422 764.522 341.406 764.628 341.409H775.755C775.861 341.406 775.966 341.422 776.065 341.455C776.164 341.487 776.254 341.536 776.33 341.598C776.406 341.66 776.466 341.735 776.507 341.817C776.548 341.899 776.57 341.988 776.57 342.077C776.57 342.166 776.548 342.254 776.507 342.336C776.466 342.419 776.406 342.493 776.33 342.555C776.254 342.618 776.164 342.666 776.065 342.699C775.966 342.732 775.861 342.747 775.755 342.745V342.745Z" fill="#262626"/>
</g>
</g>
<g id="Group_9">
<path id="Vector_13" d="M735.698 183.348C735.593 183.348 735.49 183.331 735.393 183.297C735.297 183.264 735.209 183.214 735.136 183.152C735.062 183.09 735.003 183.017 734.963 182.936C734.923 182.854 734.903 182.768 734.903 182.68V168.341C734.903 168.164 734.987 167.994 735.136 167.869C735.285 167.743 735.487 167.673 735.698 167.673C735.908 167.673 736.111 167.743 736.26 167.869C736.409 167.994 736.492 168.164 736.492 168.341V182.68C736.492 182.857 736.409 183.027 736.26 183.152C736.111 183.278 735.908 183.348 735.698 183.348V183.348Z" fill="#262626"/>
<g id="Group_10">
<path id="Vector_14" d="M741.261 176.179H730.134C729.927 176.174 729.73 176.102 729.585 175.977C729.44 175.852 729.359 175.685 729.359 175.51C729.359 175.336 729.44 175.169 729.585 175.044C729.73 174.919 729.927 174.847 730.134 174.842H741.261C741.367 174.84 741.473 174.856 741.571 174.888C741.67 174.921 741.76 174.97 741.836 175.032C741.912 175.094 741.973 175.169 742.014 175.251C742.055 175.333 742.076 175.421 742.076 175.51C742.076 175.6 742.055 175.688 742.014 175.77C741.973 175.852 741.912 175.927 741.836 175.989C741.76 176.051 741.67 176.1 741.571 176.133C741.473 176.165 741.367 176.181 741.261 176.179Z" fill="#262626"/>
</g>
</g>
<path id="Vector_15" d="M790.949 404H505.861C505.656 404 505.459 403.932 505.314 403.81C505.169 403.688 505.088 403.522 505.088 403.35C505.088 403.177 505.169 403.012 505.314 402.89C505.459 402.768 505.656 402.7 505.861 402.7H790.949C791.154 402.7 791.35 402.768 791.495 402.89C791.64 403.012 791.722 403.177 791.722 403.35C791.722 403.522 791.64 403.688 791.495 403.81C791.35 403.932 791.154 404 790.949 404Z" fill="#262626"/>
<g id="Group_11">
<path id="Vector_16" d="M713.193 377.187H575.858C575.617 377.186 575.383 377.114 575.198 376.984C575.013 376.853 574.888 376.672 574.846 376.471L529.98 161.73H487.372C487.111 161.715 486.866 161.618 486.688 161.457C486.509 161.296 486.41 161.085 486.41 160.865C486.41 160.645 486.509 160.433 486.688 160.273C486.866 160.112 487.111 160.015 487.372 160H530.844C531.086 160 531.32 160.072 531.505 160.203C531.69 160.334 531.814 160.515 531.857 160.715L576.721 375.457H713.191C713.452 375.472 713.696 375.569 713.875 375.73C714.054 375.89 714.153 376.102 714.153 376.322C714.153 376.542 714.054 376.753 713.875 376.914C713.696 377.074 713.452 377.172 713.191 377.187H713.193Z" fill="#262626"/>
<path id="Vector_17" d="M732.583 317.709H563.316C563.175 317.717 563.034 317.701 562.901 317.661C562.768 317.621 562.646 317.559 562.543 317.478C562.44 317.397 562.358 317.299 562.301 317.19C562.245 317.081 562.216 316.963 562.216 316.845C562.216 316.726 562.245 316.608 562.301 316.499C562.358 316.39 562.44 316.292 562.543 316.211C562.646 316.13 562.768 316.068 562.901 316.028C563.034 315.988 563.175 315.972 563.316 315.98H731.803L764.687 217.117H543.208C542.947 217.102 542.702 217.004 542.524 216.844C542.345 216.683 542.246 216.472 542.246 216.252C542.246 216.032 542.345 215.82 542.524 215.66C542.702 215.499 542.947 215.402 543.208 215.387H766.043C766.202 215.387 766.359 215.418 766.501 215.477C766.643 215.537 766.767 215.623 766.863 215.729C766.959 215.835 767.024 215.959 767.054 216.09C767.083 216.221 767.076 216.356 767.034 216.485L733.573 317.078C733.513 317.259 733.383 317.419 733.204 317.533C733.026 317.647 732.808 317.709 732.583 317.709V317.709Z" fill="#262626"/>
<path id="Vector_18" d="M651.925 316.861C651.652 316.861 651.389 316.77 651.196 316.607C651.003 316.445 650.894 316.224 650.894 315.994V217.951C650.913 217.732 651.029 217.527 651.22 217.378C651.411 217.228 651.662 217.145 651.922 217.145C652.183 217.145 652.434 217.228 652.625 217.378C652.816 217.527 652.932 217.732 652.951 217.951V315.994C652.951 316.223 652.843 316.443 652.651 316.606C652.458 316.768 652.198 316.86 651.925 316.861Z" fill="#262626"/>
<path id="Vector_19" d="M680.007 316.861C679.977 316.861 679.947 316.861 679.917 316.858C679.782 316.848 679.651 316.816 679.532 316.764C679.412 316.711 679.305 316.64 679.218 316.553C679.132 316.466 679.066 316.365 679.025 316.257C678.985 316.149 678.97 316.035 678.981 315.922L689.094 217.878C689.105 217.764 689.142 217.654 689.204 217.552C689.266 217.451 689.351 217.361 689.455 217.288C689.558 217.214 689.678 217.158 689.807 217.124C689.936 217.089 690.072 217.077 690.207 217.087C690.342 217.096 690.474 217.129 690.594 217.181C690.714 217.234 690.821 217.306 690.908 217.394C690.994 217.481 691.06 217.582 691.1 217.691C691.141 217.8 691.155 217.914 691.142 218.027L681.03 316.071C681.008 316.287 680.891 316.487 680.701 316.634C680.512 316.78 680.264 316.861 680.007 316.861V316.861Z" fill="#262626"/>
<path id="Vector_20" d="M708.088 316.861C708.029 316.861 707.969 316.857 707.911 316.848C707.778 316.829 707.65 316.788 707.536 316.727C707.422 316.666 707.324 316.587 707.246 316.494C707.168 316.401 707.113 316.296 707.083 316.186C707.054 316.075 707.051 315.96 707.074 315.848L727.298 217.805C727.346 217.58 727.498 217.381 727.721 217.25C727.943 217.119 728.218 217.068 728.485 217.107C728.753 217.146 728.991 217.272 729.148 217.459C729.305 217.645 729.368 217.875 729.324 218.101L709.1 316.144C709.058 316.345 708.934 316.526 708.749 316.657C708.564 316.788 708.33 316.861 708.088 316.861Z" fill="#262626"/>
<path id="Vector_21" d="M623.843 316.861C623.586 316.861 623.338 316.78 623.149 316.634C622.959 316.487 622.842 316.287 622.82 316.071L612.708 218.027C612.686 217.8 612.772 217.574 612.947 217.399C613.122 217.225 613.373 217.116 613.644 217.096C613.914 217.076 614.183 217.147 614.392 217.294C614.6 217.44 614.732 217.65 614.756 217.878L624.869 315.922C624.88 316.035 624.866 316.149 624.825 316.257C624.784 316.365 624.719 316.466 624.632 316.553C624.545 316.64 624.438 316.711 624.319 316.764C624.199 316.816 624.068 316.848 623.933 316.858C623.903 316.858 623.873 316.861 623.843 316.861Z" fill="#262626"/>
<path id="Vector_22" d="M595.762 316.861C595.52 316.861 595.286 316.789 595.1 316.658C594.915 316.527 594.791 316.345 594.75 316.144L574.175 216.4C574.151 216.288 574.153 216.172 574.182 216.061C574.211 215.949 574.266 215.844 574.344 215.75C574.422 215.657 574.52 215.577 574.635 215.516C574.749 215.455 574.877 215.413 575.011 215.394C575.144 215.374 575.281 215.377 575.414 215.402C575.546 215.427 575.671 215.474 575.782 215.54C575.892 215.606 575.987 215.69 576.058 215.787C576.13 215.883 576.179 215.991 576.201 216.104L596.776 315.846C596.799 315.958 596.796 316.073 596.767 316.183C596.737 316.294 596.682 316.399 596.604 316.492C596.526 316.585 596.428 316.664 596.313 316.725C596.199 316.785 596.072 316.827 595.939 316.846C595.881 316.856 595.821 316.861 595.762 316.861Z" fill="#262626"/>
<path id="Vector_23" d="M755.243 249.492H549.475C549.334 249.5 549.193 249.484 549.06 249.444C548.927 249.404 548.805 249.342 548.702 249.261C548.599 249.179 548.517 249.081 548.46 248.973C548.404 248.864 548.375 248.746 548.375 248.627C548.375 248.509 548.404 248.391 548.46 248.282C548.517 248.173 548.599 248.075 548.702 247.994C548.805 247.913 548.927 247.851 549.06 247.811C549.193 247.771 549.334 247.755 549.475 247.762H755.243C755.503 247.777 755.748 247.875 755.926 248.035C756.105 248.196 756.204 248.408 756.204 248.627C756.204 248.847 756.105 249.059 755.926 249.219C755.748 249.38 755.503 249.478 755.243 249.492Z" fill="#262626"/>
<path id="Vector_24" d="M744.265 283.507H557.242C556.981 283.492 556.737 283.395 556.558 283.234C556.38 283.073 556.28 282.862 556.28 282.642C556.28 282.422 556.38 282.21 556.558 282.05C556.737 281.889 556.981 281.792 557.242 281.777H744.265C744.526 281.792 744.771 281.889 744.949 282.05C745.128 282.21 745.227 282.422 745.227 282.642C745.227 282.862 745.128 283.073 744.949 283.234C744.771 283.395 744.526 283.492 744.265 283.507Z" fill="#262626"/>
<path id="Vector_25" d="M590.876 378.741C593.521 378.741 596.106 379.4 598.304 380.636C600.503 381.871 602.216 383.627 603.228 385.682C604.24 387.736 604.505 389.996 603.989 392.177C603.473 394.358 602.199 396.361 600.329 397.934C598.46 399.506 596.077 400.577 593.484 401.01C590.89 401.444 588.202 401.221 585.759 400.37C583.316 399.519 581.228 398.078 579.76 396.229C578.291 394.38 577.507 392.206 577.507 389.982C577.511 387.002 578.921 384.144 581.427 382.036C583.934 379.929 587.332 378.743 590.876 378.74M590.876 377.01C587.826 377.01 584.843 377.771 582.306 379.196C579.77 380.622 577.792 382.648 576.625 385.018C575.457 387.388 575.152 389.997 575.747 392.513C576.342 395.029 577.811 397.341 579.969 399.155C582.126 400.969 584.875 402.204 587.867 402.705C590.859 403.205 593.961 402.949 596.78 401.967C599.598 400.985 602.008 399.322 603.703 397.189C605.398 395.056 606.302 392.548 606.302 389.982C606.302 386.542 604.677 383.242 601.784 380.81C598.891 378.377 594.968 377.01 590.876 377.01Z" fill="#262626"/>
<path id="Vector_26" d="M696.474 378.666C699.119 378.666 701.703 379.325 703.902 380.56C706.101 381.796 707.814 383.551 708.826 385.606C709.838 387.66 710.103 389.921 709.587 392.101C709.071 394.282 707.798 396.285 705.928 397.858C704.058 399.43 701.676 400.501 699.083 400.935C696.489 401.368 693.801 401.146 691.358 400.295C688.915 399.444 686.827 398.003 685.358 396.154C683.889 394.305 683.105 392.132 683.105 389.908C683.109 386.927 684.519 384.07 687.025 381.962C689.531 379.854 692.93 378.669 696.474 378.666M696.474 376.936C693.423 376.936 690.441 377.697 687.904 379.123C685.367 380.548 683.39 382.574 682.223 384.944C681.055 387.315 680.75 389.923 681.345 392.439C681.94 394.955 683.41 397.267 685.567 399.081C687.724 400.895 690.473 402.13 693.465 402.631C696.458 403.131 699.559 402.874 702.378 401.893C705.196 400.911 707.606 399.248 709.301 397.115C710.996 394.982 711.9 392.474 711.9 389.908C711.9 388.205 711.501 386.518 710.726 384.944C709.951 383.37 708.815 381.94 707.382 380.735C705.95 379.531 704.249 378.575 702.378 377.923C700.506 377.271 698.5 376.936 696.474 376.936L696.474 376.936Z" fill="#262626"/>
</g>
<path id="Vector_27" opacity="0.1" d="M515.926 402.88C478.386 402.88 451.145 370.819 461.96 338.933C468.077 320.902 480.227 303.307 503.334 292.636C566.566 263.433 560.996 271.44 590.802 222.367C620.609 173.294 696.668 167.991 738.996 202.559C798.866 251.451 763.316 284.061 801.204 317.667C801.598 318.017 801.987 318.369 802.372 318.723C836.602 350.252 810.844 402.881 761.498 402.881L515.926 402.88Z" fill="#367CFF"/>
<path id="Vector_28" d="M533.349 349.896H441.591C441.386 349.896 441.189 349.828 441.044 349.706C440.899 349.584 440.818 349.418 440.818 349.246C440.818 349.074 440.899 348.908 441.044 348.786C441.189 348.664 441.386 348.596 441.591 348.596H533.349C533.554 348.596 533.751 348.664 533.896 348.786C534.041 348.908 534.122 349.074 534.122 349.246C534.122 349.418 534.041 349.584 533.896 349.706C533.751 349.828 533.554 349.896 533.349 349.896V349.896Z" fill="#262626"/>
<path id="Vector_29" d="M453.238 379.391H409.773C409.568 379.391 409.371 379.323 409.226 379.201C409.081 379.079 409 378.913 409 378.741C409 378.569 409.081 378.403 409.226 378.281C409.371 378.159 409.568 378.091 409.773 378.091H453.238C453.443 378.091 453.64 378.159 453.784 378.281C453.929 378.403 454.011 378.569 454.011 378.741C454.011 378.913 453.929 379.079 453.784 379.201C453.64 379.323 453.443 379.391 453.238 379.391V379.391Z" fill="#262626"/>
</g>
</g>
<defs>
<filter id="filter0_d_2_111" x="114.652" y="429.843" width="242.515" height="266.535" filterUnits="userSpaceOnUse" color-interpolation-filters="sRGB">
<feFlood flood-opacity="0" result="BackgroundImageFix"/>
<feColorMatrix in="SourceAlpha" type="matrix" values="0 0 0 0 0 0 0 0 0 0 0 0 0 0 0 0 0 0 127 0" result="hardAlpha"/>
<feOffset dy="4"/>
<feGaussianBlur stdDeviation="2"/>
<feComposite in2="hardAlpha" operator="out"/>
<feColorMatrix type="matrix" values="0 0 0 0 0 0 0 0 0 0 0 0 0 0 0 0 0 0 0.25 0"/>
<feBlend mode="normal" in2="BackgroundImageFix" result="effect1_dropShadow_2_111"/>
<feBlend mode="normal" in="SourceGraphic" in2="effect1_dropShadow_2_111" result="shape"/>
</filter>
<clipPath id="clip0_2_111">
<rect width="1227" height="699" fill="white"/>
</clipPath>
</defs>
</svg>
