<svg width="1227" height="699" viewBox="0 0 1227 699" fill="none" xmlns="http://www.w3.org/2000/svg">
<g id="Upload 1" clip-path="url(#clip0_2_111)">
<path id="Vector" d="M1227 699H0C13.4447 667.511 38.2734 640.804 73.2735 632.881C124.474 621.304 178.658 653.132 229.745 641.166C258.769 634.375 281.618 614.576 305.629 598.143C396.211 536.123 520.344 517.793 627.53 550.62C683.557 567.77 734.614 597.762 792.01 610.517C866.226 627.011 943.839 613.333 1020.16 611.079C1094.49 608.878 1201 636.695 1227 699Z" fill="#F3F5FD"/>
<g id="Group">
<g id="Group_2">
<path id="Vector_2" d="M721.264 527.16H566.14V688.411H721.264V527.16Z" fill="#DEE8F5"/>
<path id="Vector_3" d="M1021.25 11.9956H266.155C249.619 11.9956 236.215 24.3051 236.215 39.4896V578.537C236.215 593.721 249.619 606.031 266.155 606.031H1021.25C1037.78 606.031 1051.19 593.721 1051.19 578.537V39.4896C1051.19 24.3051 1037.78 11.9956 1021.25 11.9956Z" fill="#DEE8F5"/>
<path id="Vector_4" d="M1017.53 33.9876H266.159C258.848 33.9876 252.922 39.4298 252.922 46.1432V517.7C252.922 524.413 258.848 529.856 266.159 529.856H1017.53C1024.84 529.856 1030.77 524.413 1030.77 517.7V46.1432C1030.77 39.4298 1024.84 33.9876 1017.53 33.9876Z" fill="white"/>
<path id="Vector_5" d="M770.242 673.959H517.16C506.023 673.959 496.994 682.25 496.994 692.477C496.994 702.705 506.023 710.996 517.16 710.996H770.242C781.379 710.996 790.407 702.705 790.407 692.477C790.407 682.25 781.379 673.959 770.242 673.959Z" fill="#DEE8F5"/>
</g>
</g>
<g id="Group_3">
<path id="Vector_6" d="M1090.3 571.633C1084.85 569.997 1079.27 571.833 1073.92 575.566C1080.96 559.242 1083.87 544.497 1071.83 543.833C1063.41 543.369 1056.96 549.301 1052.06 557.736C1050.34 542.906 1045.89 531.845 1035.93 535.513C1024.99 539.538 1023.33 553.335 1024.99 567.772C1020.17 560.399 1014.98 556.286 1010.27 560.612C996.218 573.52 1030.72 609.894 1030.72 609.894H1039.29L1044.18 614.77C1043.19 616.691 1042.65 617.836 1042.65 617.836L1048.86 629.443C1048.86 629.443 1112.88 578.423 1090.3 571.633Z" fill="#0CBC8B"/>
<path id="Vector_7" d="M1074.93 655.442H1026.44L1018.32 603.453H1083.05L1074.93 655.442Z" fill="#C1D8ED"/>
</g>
<g id="Vector_8" filter="url(#filter0_d_2_111)">
<path d="M261.854 684.975C283.906 680.556 305.494 674.21 326.574 653.347C330.9 649.073 335.11 643.492 333.487 637.84C332.266 633.587 327.864 630.577 323.203 629.528C321.466 629.155 319.688 628.969 317.904 628.975C317.894 628.975 317.885 628.975 317.883 628.975C315.136 629.017 312.4 629.29 309.707 629.79L308.938 629.927C296.1 632.21 283.698 636.221 272.134 641.829C271.086 642.333 269.883 642.497 268.721 642.294C267.559 642.09 266.506 641.532 265.734 640.709C264.962 639.886 264.517 638.847 264.47 637.761C264.423 636.676 264.777 635.608 265.476 634.731C266.751 633.143 268.198 631.677 269.795 630.358C272.148 628.455 274.69 626.758 277.387 625.29C280.979 623.29 284.767 621.56 288.49 619.77C302.315 613.137 315.539 605.498 328.035 596.926C336.961 590.801 345.762 583.918 350.592 574.698C352.81 570.458 354.107 565.47 352.345 561.053C349.436 553.797 339.529 551.051 331.143 551.847C316.447 553.247 303.989 562.072 292.841 570.965C283.588 578.355 273.247 586.53 260.994 586.059C258.898 586.073 256.842 585.523 255.082 584.477C251.782 582.266 251.307 577.71 252.88 574.246C254.453 570.783 257.591 568.163 260.618 565.649C278.208 551.055 295.601 535.793 307.878 517.175C320.155 498.557 326.928 475.965 321.594 454.749C320.027 448.551 317.375 442.421 312.79 437.643C308.205 432.865 301.458 429.563 294.524 429.862C285.076 430.256 277.365 436.942 271.932 444.042C253.265 468.41 251.323 499.915 243.993 528.936C241.942 537.06 239.287 545.349 233.326 551.699C232.773 552.312 232.084 552.808 231.304 553.155C226.695 555.143 223.196 550.125 221.92 546.001C216.889 529.683 216.953 511.479 206.525 497.479C202.545 492.15 196.639 487.491 189.627 486.983C181.059 486.362 173.114 492.352 169.911 499.678C166.709 507.005 167.441 515.292 169.419 522.97C173.094 537.212 180.838 550.354 190.311 562.12C195.306 568.33 201.015 574.658 201.972 582.322C202.242 584.922 201.783 587.543 200.64 589.934C199.497 592.326 197.707 594.409 195.441 595.987C194.384 596.696 193.182 597.203 191.908 597.478C190.633 597.753 189.312 597.79 188.021 597.587C185.232 597.129 182.814 595.612 180.483 594.139C179.503 593.52 178.524 592.893 177.535 592.277C173.643 589.815 169.751 587.349 165.857 584.879C155.961 578.608 143.916 572.046 132.637 575.883C126.876 577.846 122.817 582.28 120.606 587.561C118.623 592.355 118.137 597.563 119.203 602.597C121.477 613.073 139.168 643.121 146.876 651.119C155.86 660.46 186.401 700.099 261.854 684.975Z" fill="#0CBC8B"/>
</g>
<g id="Group_4">
<g id="Group_5">
<path id="Vector_9" d="M497.843 198.907C497.544 198.907 497.257 198.808 497.046 198.63C496.835 198.452 496.716 198.211 496.716 197.96V171.226C496.716 170.975 496.835 170.734 497.046 170.556C497.257 170.379 497.544 170.279 497.843 170.279C498.141 170.279 498.428 170.379 498.639 170.556C498.851 170.734 498.969 170.975 498.969 171.226V197.959C498.969 198.084 498.94 198.207 498.884 198.322C498.827 198.437 498.744 198.542 498.64 198.63C498.535 198.718 498.411 198.788 498.274 198.835C498.137 198.883 497.991 198.907 497.843 198.907V198.907Z" fill="#262626"/>
<g id="Group_6">
<path id="Vector_10" d="M508.214 185.541H487.47C487.171 185.541 486.885 185.441 486.673 185.263C486.462 185.086 486.343 184.845 486.343 184.593C486.343 184.342 486.462 184.101 486.673 183.924C486.885 183.746 487.171 183.646 487.47 183.646H508.214C508.513 183.646 508.8 183.746 509.011 183.924C509.223 184.101 509.341 184.342 509.341 184.593C509.341 184.845 509.223 185.086 509.011 185.263C508.8 185.441 508.513 185.541 508.214 185.541V185.541Z" fill="#262626"/>
</g>
</g>
<g id="Group_7">
<path id="Vector_11" d="M770.191 265.914C769.98 265.914 769.778 265.844 769.629 265.719C769.48 265.593 769.396 265.423 769.396 265.246V250.907C769.402 250.733 769.488 250.568 769.636 250.446C769.784 250.324 769.983 250.256 770.191 250.256C770.398 250.256 770.597 250.324 770.746 250.446C770.894 250.568 770.98 250.733 770.985 250.907V265.246C770.985 265.334 770.965 265.421 770.925 265.502C770.885 265.583 770.827 265.656 770.753 265.719C770.679 265.781 770.591 265.83 770.495 265.863C770.399 265.897 770.295 265.914 770.191 265.914V265.914Z" fill="#262626"/>
<g id="Group_8">
<path id="Vector_12" d="M775.755 258.745H764.628C764.522 258.747 764.416 258.732 764.317 258.699C764.218 258.666 764.128 258.618 764.053 258.555C763.977 258.493 763.916 258.419 763.875 258.336C763.834 258.254 763.812 258.166 763.812 258.077C763.812 257.988 763.834 257.899 763.875 257.817C763.916 257.735 763.977 257.66 764.053 257.598C764.128 257.536 764.218 257.487 764.317 257.455C764.416 257.422 764.522 257.406 764.628 257.409H775.755C775.861 257.406 775.966 257.422 776.065 257.455C776.164 257.487 776.254 257.536 776.33 257.598C776.406 257.66 776.466 257.735 776.507 257.817C776.548 257.899 776.57 257.988 776.57 258.077C776.57 258.166 776.548 258.254 776.507 258.336C776.466 258.419 776.406 258.493 776.33 258.555C776.254 258.618 776.164 258.666 776.065 258.699C775.966 258.732 775.861 258.747 775.755 258.745V258.745Z" fill="#262626"/>
</g>
</g>
<g id="Group_9">
<path id="Vector_13" d="M735.698 99.3481C735.593 99.3481 735.49 99.3308 735.393 99.2973C735.297 99.2637 735.209 99.2144 735.136 99.1524C735.062 99.0903 735.003 99.0166 734.963 98.9355C734.923 98.8545 734.903 98.7675 734.903 98.6798V84.3412C734.903 84.164 734.987 83.994 735.136 83.8686C735.285 83.7433 735.487 83.6729 735.698 83.6729C735.908 83.6729 736.111 83.7433 736.26 83.8686C736.409 83.994 736.492 84.164 736.492 84.3412V98.6798C736.492 98.857 736.409 99.027 736.26 99.1524C736.111 99.2777 735.908 99.3481 735.698 99.3481V99.3481Z" fill="#262626"/>
<g id="Group_10">
<path id="Vector_14" d="M741.261 92.1786H730.134C729.927 92.1742 729.73 92.1018 729.585 91.977C729.44 91.8522 729.359 91.6848 729.359 91.5105C729.359 91.3362 729.44 91.1687 729.585 91.0439C729.73 90.9191 729.927 90.8468 730.134 90.8423H741.261C741.367 90.84 741.473 90.8557 741.571 90.8882C741.67 90.9208 741.76 90.9696 741.836 91.0319C741.912 91.0941 741.973 91.1686 742.014 91.2508C742.055 91.333 742.076 91.4213 742.076 91.5105C742.076 91.5997 742.055 91.688 742.014 91.7702C741.973 91.8524 741.912 91.9268 741.836 91.989C741.76 92.0513 741.67 92.1002 741.571 92.1327C741.473 92.1653 741.367 92.1809 741.261 92.1786Z" fill="#262626"/>
</g>
</g>
<path id="Vector_15" d="M790.949 320H505.861C505.656 320 505.459 319.932 505.314 319.81C505.169 319.688 505.088 319.522 505.088 319.35C505.088 319.177 505.169 319.012 505.314 318.89C505.459 318.768 505.656 318.7 505.861 318.7H790.949C791.154 318.7 791.35 318.768 791.495 318.89C791.64 319.012 791.722 319.177 791.722 319.35C791.722 319.522 791.64 319.688 791.495 319.81C791.35 319.932 791.154 320 790.949 320Z" fill="#262626"/>
<g id="Group_11">
<path id="Vector_16" d="M713.193 293.187H575.858C575.617 293.186 575.383 293.114 575.198 292.984C575.013 292.853 574.888 292.672 574.846 292.471L529.98 77.7299H487.372C487.111 77.7151 486.866 77.6176 486.688 77.457C486.509 77.2964 486.41 77.0848 486.41 76.8649C486.41 76.6451 486.509 76.4334 486.688 76.2729C486.866 76.1123 487.111 76.0147 487.372 76H530.844C531.086 76.0004 531.32 76.0723 531.505 76.203C531.69 76.3337 531.814 76.515 531.857 76.7152L576.721 291.457H713.191C713.452 291.472 713.696 291.569 713.875 291.73C714.054 291.89 714.153 292.102 714.153 292.322C714.153 292.542 714.054 292.753 713.875 292.914C713.696 293.074 713.452 293.172 713.191 293.187H713.193Z" fill="#262626"/>
<path id="Vector_17" d="M732.583 233.709H563.316C563.175 233.717 563.034 233.701 562.901 233.661C562.768 233.621 562.646 233.559 562.543 233.478C562.44 233.397 562.358 233.299 562.301 233.19C562.245 233.081 562.216 232.963 562.216 232.845C562.216 232.726 562.245 232.608 562.301 232.499C562.358 232.39 562.44 232.292 562.543 232.211C562.646 232.13 562.768 232.068 562.901 232.028C563.034 231.988 563.175 231.972 563.316 231.98H731.803L764.687 133.117H543.208C542.947 133.102 542.702 133.004 542.524 132.844C542.345 132.683 542.246 132.472 542.246 132.252C542.246 132.032 542.345 131.82 542.524 131.66C542.702 131.499 542.947 131.402 543.208 131.387H766.043C766.202 131.387 766.359 131.418 766.501 131.477C766.643 131.537 766.767 131.623 766.863 131.729C766.959 131.835 767.024 131.959 767.054 132.09C767.083 132.221 767.076 132.356 767.034 132.485L733.573 233.078C733.513 233.259 733.383 233.419 733.204 233.533C733.026 233.647 732.808 233.709 732.583 233.709V233.709Z" fill="#262626"/>
<path id="Vector_18" d="M651.925 232.861C651.652 232.861 651.389 232.77 651.196 232.607C651.003 232.445 650.894 232.224 650.894 231.994V133.951C650.913 133.732 651.029 133.527 651.22 133.378C651.411 133.228 651.662 133.145 651.922 133.145C652.183 133.145 652.434 133.228 652.625 133.378C652.816 133.527 652.932 133.732 652.951 133.951V231.994C652.951 232.223 652.843 232.443 652.651 232.606C652.458 232.768 652.198 232.86 651.925 232.861Z" fill="#262626"/>
<path id="Vector_19" d="M680.007 232.861C679.977 232.861 679.947 232.861 679.917 232.858C679.782 232.848 679.651 232.816 679.532 232.764C679.412 232.711 679.305 232.64 679.218 232.553C679.132 232.466 679.066 232.365 679.025 232.257C678.985 232.149 678.97 232.035 678.981 231.922L689.094 133.878C689.105 133.764 689.142 133.654 689.204 133.552C689.266 133.451 689.351 133.361 689.455 133.288C689.558 133.214 689.678 133.158 689.807 133.124C689.936 133.089 690.072 133.077 690.207 133.087C690.342 133.096 690.474 133.129 690.594 133.181C690.714 133.234 690.821 133.306 690.908 133.394C690.994 133.481 691.06 133.582 691.1 133.691C691.141 133.8 691.155 133.914 691.142 134.027L681.03 232.071C681.008 232.287 680.891 232.487 680.701 232.634C680.512 232.78 680.264 232.861 680.007 232.861V232.861Z" fill="#262626"/>
<path id="Vector_20" d="M708.088 232.861C708.029 232.861 707.969 232.857 707.911 232.848C707.778 232.829 707.65 232.788 707.536 232.727C707.422 232.666 707.324 232.587 707.246 232.494C707.168 232.401 707.113 232.296 707.083 232.186C707.054 232.075 707.051 231.96 707.074 231.848L727.298 133.805C727.346 133.58 727.498 133.381 727.721 133.25C727.943 133.119 728.218 133.068 728.485 133.107C728.753 133.146 728.991 133.272 729.148 133.459C729.305 133.645 729.368 133.876 729.324 134.101L709.1 232.144C709.058 232.345 708.934 232.526 708.749 232.657C708.564 232.788 708.33 232.861 708.088 232.861Z" fill="#262626"/>
<path id="Vector_21" d="M623.843 232.861C623.586 232.861 623.338 232.78 623.149 232.634C622.959 232.487 622.842 232.287 622.82 232.071L612.708 134.027C612.686 133.8 612.772 133.574 612.947 133.399C613.122 133.225 613.373 133.116 613.644 133.096C613.914 133.076 614.183 133.147 614.392 133.294C614.6 133.44 614.732 133.65 614.756 133.878L624.869 231.922C624.88 232.035 624.866 232.149 624.825 232.257C624.784 232.365 624.719 232.466 624.632 232.553C624.545 232.64 624.438 232.711 624.319 232.764C624.199 232.816 624.068 232.848 623.933 232.858C623.903 232.858 623.873 232.861 623.843 232.861Z" fill="#262626"/>
<path id="Vector_22" d="M595.762 232.861C595.52 232.861 595.286 232.789 595.1 232.658C594.915 232.527 594.791 232.345 594.75 232.144L574.175 132.4C574.151 132.288 574.153 132.172 574.182 132.061C574.211 131.949 574.266 131.844 574.344 131.75C574.422 131.657 574.52 131.577 574.635 131.516C574.749 131.455 574.877 131.413 575.011 131.394C575.144 131.374 575.281 131.377 575.414 131.402C575.546 131.427 575.671 131.474 575.782 131.54C575.892 131.606 575.987 131.69 576.058 131.787C576.13 131.883 576.179 131.991 576.201 132.104L596.776 231.846C596.799 231.958 596.796 232.073 596.767 232.183C596.737 232.294 596.682 232.399 596.604 232.492C596.526 232.585 596.428 232.664 596.313 232.725C596.199 232.785 596.072 232.827 595.939 232.846C595.881 232.856 595.821 232.861 595.762 232.861Z" fill="#262626"/>
<path id="Vector_23" d="M755.243 165.492H549.475C549.334 165.5 549.193 165.484 549.06 165.444C548.927 165.404 548.805 165.342 548.702 165.261C548.599 165.179 548.517 165.081 548.46 164.973C548.404 164.864 548.375 164.746 548.375 164.627C548.375 164.509 548.404 164.391 548.46 164.282C548.517 164.173 548.599 164.075 548.702 163.994C548.805 163.913 548.927 163.851 549.06 163.811C549.193 163.771 549.334 163.754 549.475 163.762H755.243C755.503 163.777 755.748 163.875 755.926 164.035C756.105 164.196 756.204 164.408 756.204 164.627C756.204 164.847 756.105 165.059 755.926 165.219C755.748 165.38 755.503 165.478 755.243 165.492Z" fill="#262626"/>
<path id="Vector_24" d="M744.265 199.507H557.242C556.981 199.492 556.737 199.395 556.558 199.234C556.38 199.073 556.28 198.862 556.28 198.642C556.28 198.422 556.38 198.21 556.558 198.05C556.737 197.889 556.981 197.792 557.242 197.777H744.265C744.526 197.792 744.771 197.889 744.949 198.05C745.128 198.21 745.227 198.422 745.227 198.642C745.227 198.862 745.128 199.073 744.949 199.234C744.771 199.395 744.526 199.492 744.265 199.507Z" fill="#262626"/>
<path id="Vector_25" d="M590.876 294.741C593.521 294.741 596.106 295.4 598.304 296.636C600.503 297.871 602.216 299.627 603.228 301.682C604.24 303.736 604.505 305.996 603.989 308.177C603.473 310.358 602.199 312.361 600.329 313.934C598.46 315.506 596.077 316.577 593.484 317.01C590.89 317.444 588.202 317.221 585.759 316.37C583.316 315.519 581.228 314.078 579.76 312.229C578.291 310.38 577.507 308.206 577.507 305.982C577.511 303.002 578.921 300.144 581.427 298.036C583.934 295.929 587.332 294.743 590.876 294.74M590.876 293.01C587.826 293.01 584.843 293.771 582.306 295.196C579.77 296.622 577.792 298.648 576.625 301.018C575.457 303.388 575.152 305.997 575.747 308.513C576.342 311.029 577.811 313.341 579.969 315.155C582.126 316.969 584.875 318.204 587.867 318.705C590.859 319.205 593.961 318.949 596.78 317.967C599.598 316.985 602.008 315.322 603.703 313.189C605.398 311.056 606.302 308.548 606.302 305.982C606.302 302.542 604.677 299.243 601.784 296.81C598.891 294.377 594.968 293.01 590.876 293.01Z" fill="#262626"/>
<path id="Vector_26" d="M696.474 294.666C699.119 294.666 701.703 295.325 703.902 296.56C706.101 297.796 707.814 299.551 708.826 301.606C709.838 303.66 710.103 305.921 709.587 308.101C709.071 310.282 707.798 312.285 705.928 313.858C704.058 315.43 701.676 316.501 699.083 316.935C696.489 317.368 693.801 317.146 691.358 316.295C688.915 315.444 686.827 314.003 685.358 312.154C683.889 310.305 683.105 308.132 683.105 305.908C683.109 302.927 684.519 300.07 687.025 297.962C689.531 295.854 692.93 294.669 696.474 294.666M696.474 292.936C693.423 292.936 690.441 293.697 687.904 295.123C685.367 296.548 683.39 298.574 682.223 300.944C681.055 303.315 680.75 305.923 681.345 308.439C681.94 310.955 683.41 313.267 685.567 315.081C687.724 316.895 690.473 318.13 693.465 318.631C696.458 319.131 699.559 318.874 702.378 317.893C705.196 316.911 707.606 315.248 709.301 313.115C710.996 310.982 711.9 308.474 711.9 305.908C711.9 304.205 711.501 302.518 710.726 300.944C709.951 299.37 708.815 297.94 707.382 296.735C705.95 295.531 704.249 294.575 702.378 293.923C700.506 293.271 698.5 292.936 696.474 292.936L696.474 292.936Z" fill="#262626"/>
</g>
<path id="Vector_27" opacity="0.1" d="M515.926 318.88C478.386 318.88 451.145 286.819 461.96 254.933C468.077 236.902 480.227 219.307 503.334 208.636C566.566 179.433 560.996 187.44 590.802 138.367C620.609 89.2936 696.668 83.9909 738.996 118.559C798.866 167.451 763.316 200.061 801.204 233.667C801.598 234.017 801.987 234.369 802.372 234.723C836.602 266.252 810.844 318.881 761.498 318.881L515.926 318.88Z" fill="#367CFF"/>
<path id="Vector_28" d="M533.349 265.896H441.591C441.386 265.896 441.189 265.828 441.044 265.706C440.899 265.584 440.818 265.418 440.818 265.246C440.818 265.074 440.899 264.908 441.044 264.786C441.189 264.664 441.386 264.596 441.591 264.596H533.349C533.554 264.596 533.751 264.664 533.896 264.786C534.041 264.908 534.122 265.074 534.122 265.246C534.122 265.418 534.041 265.584 533.896 265.706C533.751 265.828 533.554 265.896 533.349 265.896V265.896Z" fill="#262626"/>
<path id="Vector_29" d="M453.238 295.391H409.773C409.568 295.391 409.371 295.323 409.226 295.201C409.081 295.079 409 294.913 409 294.741C409 294.569 409.081 294.403 409.226 294.281C409.371 294.159 409.568 294.091 409.773 294.091H453.238C453.443 294.091 453.64 294.159 453.784 294.281C453.929 294.403 454.011 294.569 454.011 294.741C454.011 294.913 453.929 295.079 453.784 295.201C453.64 295.323 453.443 295.391 453.238 295.391V295.391Z" fill="#262626"/>
</g>
<text id="CAPSTONSE" fill="#0CBC8B" xml:space="preserve" style="white-space: pre" font-family="Inter" font-size="60" font-weight="bold" letter-spacing="0.11em"><tspan x="454.33" y="452.318">CAPSTONSE</tspan></text>
</g>
<defs>
<filter id="filter0_d_2_111" x="114.652" y="429.843" width="242.515" height="266.535" filterUnits="userSpaceOnUse" color-interpolation-filters="sRGB">
<feFlood flood-opacity="0" result="BackgroundImageFix"/>
<feColorMatrix in="SourceAlpha" type="matrix" values="0 0 0 0 0 0 0 0 0 0 0 0 0 0 0 0 0 0 127 0" result="hardAlpha"/>
<feOffset dy="4"/>
<feGaussianBlur stdDeviation="2"/>
<feComposite in2="hardAlpha" operator="out"/>
<feColorMatrix type="matrix" values="0 0 0 0 0 0 0 0 0 0 0 0 0 0 0 0 0 0 0.25 0"/>
<feBlend mode="normal" in2="BackgroundImageFix" result="effect1_dropShadow_2_111"/>
<feBlend mode="normal" in="SourceGraphic" in2="effect1_dropShadow_2_111" result="shape"/>
</filter>
<clipPath id="clip0_2_111">
<rect width="1227" height="699" fill="white"/>
</clipPath>
</defs>
</svg>
