<svg width="1045" height="832" viewBox="0 0 1045 832" fill="none" xmlns="http://www.w3.org/2000/svg">
<g clip-path="url(#clip0_21_857)">
<path d="M961.689 832C972.94 832 984.074 829.596 994.42 824.934C1004.77 820.272 1014.11 813.449 1021.89 804.874C1029.66 796.3 1035.71 786.154 1039.67 775.046C1043.63 763.939 1045.41 752.101 1044.92 740.247C1042.18 674.867 1002.78 581.165 895.394 496.538C746.391 379.119 836.318 104.204 640.729 76.207C319.242 30.19 347.855 337.946 149.344 447.669C22.9828 517.51 0.00825574 654.165 0 744.275C0.0203234 767.558 8.80784 789.879 24.4301 806.33C40.0524 822.781 61.2302 832.015 83.3063 832H961.689Z" fill="#F3F5FD"/>
<path d="M308.433 615.22L758.1 615.22L758.1 0L308.433 0L308.433 615.22Z" fill="#DEE8F5"/>
<path d="M449.784 92.8412C449.784 103.261 446.855 113.447 441.366 122.111C435.877 130.775 428.075 137.527 418.947 141.515C409.82 145.503 399.776 146.546 390.086 144.513C380.396 142.48 371.495 137.463 364.509 130.095C357.523 122.727 352.765 113.339 350.838 103.119C348.91 92.8997 349.9 82.3067 353.68 72.6799C357.461 63.0531 363.864 54.825 372.079 49.036C380.293 43.247 389.951 40.1571 399.831 40.1571C406.397 40.1361 412.901 41.4844 418.971 44.1246C425.04 46.7648 430.555 50.6447 435.198 55.541C439.84 60.4374 443.519 66.2536 446.022 72.655C448.526 79.0565 449.804 85.9168 449.784 92.8412Z" fill="#C1D8ED"/>
<path d="M399.831 98.2695C410.753 98.2695 419.607 88.9314 419.607 77.4123C419.607 65.8932 410.753 56.5551 399.831 56.5551C388.909 56.5551 380.055 65.8932 380.055 77.4123C380.055 88.9314 388.909 98.2695 399.831 98.2695Z" fill="white"/>
<path d="M435.829 129.372C431.167 134.48 425.577 138.544 419.392 141.319C413.206 144.095 406.554 145.525 399.832 145.525C393.11 145.525 386.457 144.095 380.272 141.319C374.087 138.544 368.496 134.48 363.835 129.372C370.57 113.497 384.168 102.647 399.831 102.647C415.495 102.647 429.093 113.497 435.829 129.372Z" fill="white"/>
<path d="M570.989 40.4843H470.139V72.6271H570.989V40.4843Z" fill="white"/>
<path d="M716.652 92.5091H470.139V104.204H716.652V92.5091Z" fill="white"/>
<path d="M716.652 124.086H470.139V135.781H716.652V124.086Z" fill="white"/>
<path d="M434.901 178.534H349.879V192.346H434.901V178.534Z" fill="white"/>
<path d="M716.653 207.705H349.879V243.623H716.653V207.705Z" fill="white"/>
<path d="M434.901 270.063H349.879V283.875H434.901V270.063Z" fill="white"/>
<path d="M716.653 299.234H349.879V335.152H716.653V299.234Z" fill="white"/>
<path d="M434.901 361.592H349.879V375.404H434.901V361.592Z" fill="white"/>
<path d="M716.653 390.763H349.879V426.681H716.653V390.763Z" fill="white"/>
<path d="M434.901 453.12H349.879V466.931H434.901V453.12Z" fill="white"/>
<path d="M716.653 482.292H349.879V518.21H716.653V482.292Z" fill="white"/>
<path d="M574.339 548.634H492.192V574.917H574.339V548.634Z" fill="#C1D8ED"/>
<path d="M151.93 727.715C146.033 725.679 139.982 727.964 134.191 732.61C141.818 712.297 144.966 693.949 131.927 693.123C122.803 692.545 115.814 699.927 110.504 710.423C108.637 691.969 103.819 678.207 93.0279 682.769C81.1797 687.779 79.3765 704.947 81.1739 722.911C75.955 713.735 70.3341 708.619 65.2308 714.002C50.0013 730.064 87.3834 775.324 87.3834 775.324H96.6675L101.965 781.391C100.893 783.783 100.306 785.207 100.306 785.207L107.036 799.651C107.036 799.651 176.405 736.165 151.93 727.715Z" fill="#0CBC8B"/>
<path d="M135.285 832H82.7435L73.9487 767.31H144.08L135.285 832Z" fill="#C1D8ED"/>
<path d="M821.169 816.159H807.543V832H821.169V816.159Z" fill="#C1D8ED"/>
<path d="M950.803 816.159H937.178V832H950.803V816.159Z" fill="#C1D8ED"/>
<path d="M962.533 635.542H905.365V817.995H962.533V635.542Z" fill="#C1D8ED"/>
<path d="M807.369 639.583H748.825V816.159H807.369V639.583Z" fill="#C1D8ED"/>
<path d="M909.216 817.995H744.975V635.542H909.216V817.995ZM752.676 809.873H901.515V643.664H752.676V809.873Z" fill="#DEE8F5"/>
<path d="M909.216 817.995H744.975V717.402H909.216V817.995ZM752.676 809.873H901.515V725.525H752.676V809.873Z" fill="#DEE8F5"/>
<path d="M819.429 658.137V669.756V717.336H889.199V669.756V658.137H819.429Z" fill="#C1D8ED"/>
<path d="M866.33 669.756H796.561V717.336H866.33V669.756Z" fill="#DEE8F5"/>
<path d="M866.33 669.756H796.561V673.322H866.33V669.756Z" fill="#C1D8ED"/>
<path d="M796.562 669.756H866.332V658.137H796.562V669.756Z" fill="#DEE8F5"/>
<path d="M839.178 679.311H823.714C822.826 679.311 822.106 680.07 822.106 681.007V684.761C822.106 685.697 822.826 686.456 823.714 686.456H839.178C840.066 686.456 840.786 685.697 840.786 684.761V681.007C840.786 680.07 840.066 679.311 839.178 679.311Z" fill="white"/>
<path d="M769.091 816.159H755.465V832H769.091V816.159Z" fill="#DEE8F5"/>
<path d="M898.725 816.159H885.1V832H898.725V816.159Z" fill="#DEE8F5"/>
<path d="M883.225 791.758H807.374V809.873H883.225V791.758Z" fill="#C1D8ED"/>
<path d="M884.529 755.57H808.677V773.685H884.529V755.57Z" fill="#C1D8ED"/>
<path d="M857.341 791.758H777.128V809.873H857.341V791.758Z" fill="#DEE8F5"/>
<g opacity="0.62">
<path d="M850.794 791.758H846.901V809.873H850.794V791.758Z" fill="#C1D8ED"/>
</g>
<g opacity="0.62">
<path d="M843.007 791.758H839.114V809.873H843.007V791.758Z" fill="#C1D8ED"/>
</g>
<path d="M786.326 806.657C789.384 806.657 791.864 804.042 791.864 800.816C791.864 797.59 789.384 794.975 786.326 794.975C783.267 794.975 780.787 797.59 780.787 800.816C780.787 804.042 783.267 806.657 786.326 806.657Z" fill="#F3F5FD"/>
<path d="M858.644 755.57H778.432V773.685H858.644V755.57Z" fill="#DEE8F5"/>
<path d="M839.572 759.65H783.597V769.605H839.572V759.65Z" fill="#F3F5FD"/>
<g opacity="0.62">
<path d="M852.098 755.57H844.73V773.685H852.098V755.57Z" fill="#C1D8ED"/>
</g>
<path d="M813.561 791.778H889.413V773.664H813.561V791.778Z" fill="#C1D8ED"/>
<path d="M783.316 791.778H863.528V773.664H783.316V791.778Z" fill="#F3F5FD"/>
<path d="M789.862 791.778H793.755V773.664H789.862V791.778Z" fill="#DEE8F5"/>
<path d="M797.65 791.778H801.543V773.664H797.65V791.778Z" fill="#DEE8F5"/>
<path d="M854.332 788.563C857.391 788.563 859.871 785.948 859.871 782.722C859.871 779.496 857.391 776.88 854.332 776.88C851.274 776.88 848.794 779.496 848.794 782.722C848.794 785.948 851.274 788.563 854.332 788.563Z" fill="#DEE8F5"/>
<path d="M842.953 778.281H807.544V787.161H842.953V778.281Z" fill="#DEE8F5"/>
<path opacity="0.1" d="M715.238 824.444C763.096 824.444 801.892 821.011 801.892 816.777C801.892 812.543 763.096 809.11 715.238 809.11C667.381 809.11 628.585 812.543 628.585 816.777C628.585 821.011 667.381 824.444 715.238 824.444Z" fill="#367CFF"/>
<path d="M363.761 392.61C362.35 389.879 354.892 372.907 354.892 372.907L342.395 340.525C342.395 340.525 333.526 326.87 333.526 324.334C333.526 321.798 317.401 311.655 317.401 311.655C317.401 311.655 304.299 307.753 303.291 307.363C302.284 306.973 286.763 301.839 286.763 301.839C286.763 301.839 280.652 293.802 279.781 295.901L279.78 295.906C279.748 295.853 279.716 295.807 279.684 295.752C278.436 293.419 277.645 290.869 277.354 288.238C277.321 288.005 277.293 287.758 277.263 287.514C281.288 284.786 284.588 281.117 286.876 276.825C289.163 272.534 290.37 267.75 290.391 262.887C290.388 261.606 290.302 260.328 290.133 259.059C290.244 258.989 290.36 258.928 290.48 258.876C290.731 258.767 290.667 258.678 290.483 258.586C290.546 258.553 290.609 258.518 290.673 258.491C291.006 258.346 290.784 258.236 290.461 258.105L290.48 258.096C290.935 257.898 290.36 257.767 289.898 257.558C289.873 257.423 289.85 257.288 289.823 257.154C289.925 256.897 289.988 256.626 290.008 256.35C290.049 256.37 290.087 256.392 290.13 256.411C290.242 255.908 290.239 255.387 290.122 254.885C290.093 254.987 290.058 255.087 290.017 255.185C290.046 254.73 289.952 254.276 289.746 253.87C289.539 253.464 289.228 253.12 288.843 252.876C288.82 252.855 288.795 252.834 288.771 252.813L289.626 244.062C302.231 243.466 304.442 222.022 301.567 220.83C298.693 219.639 301.567 217.058 301.567 211.895C301.567 206.733 292.058 200.974 292.058 200.974C292.058 200.974 288.078 202.96 281.886 193.032C275.695 183.104 252.918 181.516 251.37 184.097C249.822 186.678 239.65 190.054 226.382 193.826C213.114 197.599 215.546 213.285 217.758 216.661C219.579 219.451 220.646 222.667 220.854 225.993C220.854 227.979 225.055 236.318 225.055 236.318C223.73 239.208 227.102 255.039 228.101 259.538C228.085 259.676 228.069 259.814 228.055 259.953C228.047 259.967 228.035 259.978 228.027 259.992C227.979 260.065 227.936 260.14 227.898 260.218C227.684 260.684 227.613 261.204 227.694 261.711C227.621 262.264 227.699 262.828 227.918 263.341C227.994 267.58 228.975 271.754 230.795 275.583C232.615 279.412 235.232 282.808 238.471 285.544C238.486 285.814 238.502 286.087 238.517 286.366C238.702 290.041 238.807 294.387 238.613 298.546C238.603 298.759 238.587 298.967 238.576 299.179C237.844 299.327 237.158 299.644 236.572 300.106C235.986 300.569 235.517 301.162 235.203 301.839C233.953 304.242 226.697 307.948 226.697 307.948C226.697 307.948 213.998 308.534 212.789 310.874C211.579 313.215 193.237 321.018 193.237 321.018C193.237 321.018 183.562 326.675 184.973 333.113C185.71 336.476 183.64 341.702 181.496 345.928C177.011 344.227 172.34 343.062 167.581 342.458L177.857 352.289C177.642 352.625 177.515 352.815 177.515 352.815L171.67 373.492C171.67 373.492 169.654 380.71 167.638 382.466C165.623 384.221 169.452 400.217 169.452 400.217C169.452 400.217 167.235 411.532 165.421 414.458C163.607 417.384 168.243 424.601 168.243 424.601L177.515 445.669L202.106 451.911C202.106 451.911 203.745 452.258 206.393 452.825C206.309 453.329 206.224 453.83 206.137 454.33C204.952 461.041 203.396 467.213 201.501 468.883C196.865 472.979 197.067 491.316 197.067 491.316L197.268 517.26C197.268 517.26 198.881 549.252 198.074 550.423C197.566 551.161 198.587 552.366 201.281 553.449C201.204 553.93 201.129 554.419 201.058 554.917C200.3 560.223 199.961 566.278 201.703 568.955C202.459 570.402 202.873 572.004 202.912 573.636C202.912 576.172 206.742 581.439 206.742 581.439C206.742 581.439 203.718 603.092 208.757 610.505C213.797 617.917 218.029 631.378 215.611 634.499C215.611 634.499 211.378 643.667 213.393 647.764C215.409 651.86 213.393 654.201 210.773 655.176C208.153 656.152 208.379 664.15 208.379 664.15L213.192 702.189C213.192 702.189 215.812 709.992 213.595 712.723C211.378 715.454 211.378 729.109 214.804 733.79C218.231 738.472 209.967 747.055 209.967 747.055C209.967 747.055 204.928 754.273 212.99 756.614C212.99 756.614 214.603 757.004 211.579 760.125C208.556 763.246 207.951 767.148 209.967 768.513C210.385 768.764 210.822 768.981 211.274 769.163C211.199 769.625 211.118 770.104 211.023 770.612C210.249 774.685 208.79 779.991 206.137 782.558C200.996 787.826 196.56 793.738 192.939 800.146C190.173 805.39 188.964 810.297 192.028 812.599C199.284 818.061 208.556 819.817 213.998 817.671C219.44 815.525 227.1 808.893 227.1 808.893L228.914 801.285C228.914 801.285 227.705 796.603 233.751 794.848C239.798 793.092 245.442 786.85 245.442 786.85V776.738C246.906 775.901 248.32 774.978 249.675 773.975C249.675 773.975 252.497 764.026 249.675 760.71C246.853 757.394 245.845 756.224 249.474 754.078C253.102 751.932 253.594 747.25 250.933 743.154C248.264 739.057 244.031 733.01 247.66 724.427C251.288 715.844 252.618 689.509 252.618 689.509C252.618 689.509 250.925 671.562 252.618 667.466C254.311 663.37 250.683 655.176 250.683 655.176C250.683 655.176 251.892 645.033 254.11 640.351C256.327 635.669 258.141 610.895 258.141 610.895C258.141 610.895 262.172 600.361 262.172 593.534C262.172 586.706 255.924 570.32 265.196 566.029C265.196 566.029 269.227 569.54 267.614 583.585C267.614 583.585 272.25 599.971 272.25 605.043C272.25 610.115 275.677 628.452 275.677 628.452C275.677 628.452 276.08 634.304 277.491 636.45C278.902 638.595 277.491 644.448 277.491 644.448C277.491 644.448 282.732 649.324 281.321 652.445C279.91 655.567 281.563 662.605 281.563 662.605L280.313 706.285C280.313 706.285 276.685 725.012 285.151 736.326C285.151 736.326 282.127 752.907 280.313 754.078C278.499 755.248 286.965 765.392 286.965 765.392C286.965 765.392 284.618 771.963 289.384 772.286V783.144C291.038 786.067 293.307 788.596 296.035 790.556C300.47 793.677 298.655 804.406 298.655 804.406C298.655 804.406 304.299 818.061 319.215 815.135C334.131 812.209 336.147 810.844 335.34 805.967C335.05 804.188 334.405 801.012 333.478 797.407C331.873 791.142 329.414 783.581 326.471 779.851C321.835 773.975 318.006 761.686 318.006 761.686C318.006 761.686 316.192 757.589 318.006 756.224C319.82 754.858 319.014 752.322 319.014 752.322C319.014 752.322 320.779 747.25 319.191 744.129C317.603 741.008 322.239 734.571 322.239 734.571L320.828 704.53L322.239 660.834C322.239 660.834 315.99 653.616 318.61 649.324C321.231 645.033 315.587 638.986 315.587 638.986C315.587 638.986 314.982 638.79 316.595 633.914C317.56 631.04 317.416 627.909 316.192 625.135C316.192 625.135 312.765 613.041 318.812 603.873C318.812 603.873 321.432 591.778 322.239 585.536C322.795 581.197 326.278 564.991 328.35 555.51C328.467 554.975 328.58 554.462 328.687 553.971C331.672 554.135 333.929 554.324 333.929 554.324C333.929 554.324 329.293 522.137 333.929 515.505C338.565 508.873 330.301 458.154 330.301 458.154C330.301 458.154 328.326 449.29 327.108 440.246C327.039 439.731 326.976 439.216 326.911 438.701C330.654 438.402 334.41 438.319 338.162 438.452C347.837 439.037 357.311 435.33 357.512 431.624C357.714 427.918 362.955 413.287 363.761 409.971C364.567 406.655 365.172 395.341 363.761 392.61Z" fill="url(#paint0_linear_21_857)"/>
<path d="M246.147 768.926V786.988C246.147 786.988 240.709 793.203 234.882 794.951C229.056 796.699 230.221 801.361 230.221 801.361L228.473 808.935C228.473 808.935 221.093 815.539 215.849 817.675C210.605 819.812 201.671 818.064 194.679 812.625C191.726 810.334 192.892 805.447 195.556 800.226C199.028 793.869 203.302 787.984 208.274 782.715C210.83 780.159 212.236 774.877 212.982 770.821C213.534 767.784 213.712 765.43 213.712 765.43L246.147 768.926Z" fill="#4C495A"/>
<path opacity="0.1" d="M246.147 782.405V786.988C246.147 786.988 240.709 793.203 234.882 794.951C229.056 796.699 230.221 801.361 230.221 801.361L228.473 808.935C228.473 808.935 221.093 815.539 215.849 817.675C210.605 819.812 201.671 818.064 194.679 812.625C191.726 810.334 192.892 805.447 195.556 800.226C195.432 805.711 197.056 811.872 204.972 811.654C213.517 811.383 221.751 808.389 228.473 803.109C228.473 803.109 228.279 790.29 237.213 787.377C240.479 786.299 243.51 784.612 246.147 782.405Z" fill="black"/>
<path d="M317.233 815.15C302.86 818.064 297.422 804.468 297.422 804.468C297.422 804.468 299.17 793.786 294.897 790.678C292.255 788.708 290.069 786.19 288.488 783.298V765.43L305.968 752.999L315.43 761.374L316.067 761.934C316.067 761.934 319.757 774.17 324.225 780.019C327.06 783.733 329.43 791.261 330.976 797.499C331.869 801.089 332.491 804.251 332.77 806.022C333.547 810.877 331.605 812.237 317.233 815.15Z" fill="#4C495A"/>
<path opacity="0.1" d="M317.233 815.15C302.86 818.064 297.422 804.468 297.422 804.468C297.422 804.468 299.17 793.786 294.897 790.678C292.255 788.708 290.069 786.19 288.488 783.298V776.376C291.261 779.305 296.49 784.976 297.616 787.377C299.17 790.678 299.364 802.72 306.55 804.857C313.737 806.993 327.721 808.935 328.886 803.497C329.37 801.43 330.071 799.42 330.976 797.499C331.869 801.089 332.491 804.251 332.77 806.022C333.547 810.877 331.605 812.237 317.233 815.15Z" fill="black"/>
<path opacity="0.1" d="M213.713 765.43L246.148 768.926V778.474C242.489 780.641 237.245 782.941 234.3 780.579C229.95 777.098 217.014 772.678 212.982 770.821C213.534 767.784 213.713 765.43 213.713 765.43Z" fill="black"/>
<path opacity="0.1" d="M316.067 763.487C311.6 761.934 303.637 768.731 293.149 773.004C291.691 773.691 290.099 774.047 288.488 774.045V765.43L305.968 752.999L315.43 761.374C315.576 762.097 315.789 762.804 316.067 763.487Z" fill="black"/>
<path d="M327.526 549.65C327.526 549.65 326.913 552.509 326.035 556.657C324.038 566.096 320.682 582.232 320.146 586.552C319.369 592.767 316.844 604.808 316.844 604.808C311.018 613.937 314.319 625.979 314.319 625.979C315.5 628.749 315.638 631.854 314.708 634.719C313.154 639.574 313.737 639.768 313.737 639.768C313.737 639.768 319.175 645.789 316.65 650.062C314.125 654.335 320.146 661.521 320.146 661.521L318.786 705.027L320.146 734.937C320.146 734.937 315.679 741.346 317.209 744.454C318.74 747.561 317.038 752.611 317.038 752.611C317.038 752.611 317.815 755.136 316.067 756.495C314.319 757.855 316.067 761.934 316.067 761.934C311.6 760.38 303.637 767.178 293.149 771.451C282.661 775.723 286.157 765.624 286.157 765.624C286.157 765.624 278 755.524 279.748 754.359C281.496 753.194 284.409 736.685 284.409 736.685C276.252 725.42 279.748 706.775 279.748 706.775L280.952 663.285C280.952 663.285 279.359 656.277 280.719 653.17C282.079 650.062 277.029 645.207 277.029 645.207C277.029 645.207 278.388 639.38 277.029 637.243C275.669 635.107 275.281 629.28 275.281 629.28C275.281 629.28 271.979 611.024 271.979 605.974C271.979 600.924 267.512 584.609 267.512 584.609C269.066 570.625 265.181 567.13 265.181 567.13C256.247 571.402 262.268 587.717 262.268 594.515C262.268 601.313 258.384 611.8 258.384 611.8C258.384 611.8 256.636 636.467 254.499 641.128C252.363 645.789 251.197 655.889 251.197 655.889C251.197 655.889 254.693 664.046 253.062 668.125C251.43 672.203 253.062 690.072 253.062 690.072C253.062 690.072 251.78 716.292 248.284 724.837C244.788 733.383 248.867 739.404 251.438 743.483C254.002 747.561 253.528 752.223 250.032 754.359C246.536 756.495 247.507 757.661 250.226 760.963C252.945 764.264 250.226 774.17 250.226 774.17C250.226 774.17 239.156 782.91 234.3 779.025C229.445 775.141 213.907 770.091 211.965 768.731C210.022 767.372 210.605 763.487 213.518 760.38C216.432 757.272 214.878 756.884 214.878 756.884C207.109 754.553 211.965 747.367 211.965 747.367C211.965 747.367 219.928 738.821 216.626 734.16C213.324 729.499 213.324 715.903 215.461 713.184C217.597 710.465 215.072 702.696 215.072 702.696L210.434 664.823C210.434 664.823 210.217 656.86 212.741 655.889C215.266 654.918 217.209 652.587 215.266 648.508C213.324 644.43 217.403 635.301 217.403 635.301C219.733 632.194 215.655 618.792 210.799 611.412C205.944 604.032 208.857 582.473 208.857 582.473C208.857 582.473 205.167 577.229 205.167 574.704C205.131 573.083 204.732 571.49 204.001 570.043C202.323 567.378 202.65 561.349 203.38 556.067C204.087 550.955 205.167 546.542 205.167 546.542L327.526 549.65Z" fill="#292A2E"/>
<path d="M289.459 329.597L251.197 338.531C251.197 338.531 232.358 322.605 237.019 314.059C238.619 311.122 239.326 306.111 239.567 300.813C239.754 296.672 239.653 292.345 239.474 288.686C239.202 283.395 238.767 279.488 238.767 279.488C238.767 279.488 278 257.346 276.64 279.488C276.364 283.175 276.45 286.88 276.896 290.55C277.174 293.162 277.935 295.699 279.142 298.032C281.239 301.769 283.826 301.823 283.826 301.823L289.459 329.597Z" fill="#E98862"/>
<path opacity="0.1" d="M276.897 290.55C271.367 294.517 264.656 296.492 257.86 296.153C251.063 295.815 244.582 293.182 239.474 288.686C239.202 283.395 238.767 279.488 238.767 279.488C238.767 279.488 278 257.346 276.64 279.488C276.364 283.175 276.45 286.88 276.897 290.55Z" fill="black"/>
<path d="M259.354 295.414C275.98 295.414 289.459 281.936 289.459 265.309C289.459 248.683 275.98 235.205 259.354 235.205C242.728 235.205 229.25 248.683 229.25 265.309C229.25 281.936 242.728 295.414 259.354 295.414Z" fill="#E98862"/>
<path opacity="0.1" d="M289.459 329.597L251.197 338.531C251.197 338.531 232.358 322.605 237.019 314.059C238.619 311.122 239.326 306.111 239.567 300.813C240.412 305.42 242.885 309.57 246.536 312.505C255.276 318.332 253.916 325.518 253.916 325.518L269.648 324.935C268.677 318.526 274.504 315.03 276.446 314.253C278.388 313.476 277.417 309.98 277.417 309.98L279.142 298.032C281.239 301.769 283.826 301.823 283.826 301.823L289.459 329.597Z" fill="black"/>
<path opacity="0.1" d="M327.526 549.65C327.526 549.65 326.913 552.509 326.035 556.657C321.808 556.432 316.223 556.269 313.737 556.836C309.464 557.807 292.372 558.195 292.372 558.195L250.032 559.695V558.389C245.162 558.429 240.298 558.753 235.465 559.361C228.279 560.332 217.014 558.972 209.828 557.807C207.616 557.49 205.451 556.905 203.38 556.067C204.087 550.955 205.167 546.542 205.167 546.542L327.526 549.65Z" fill="black"/>
<path d="M324.225 426.319C323.611 429.947 324.062 435.96 324.839 441.895C326.012 450.9 327.915 459.725 327.915 459.725C327.915 459.725 335.878 510.223 331.411 516.826C326.944 523.43 331.411 555.476 331.411 555.476C331.411 555.476 318.01 554.311 313.737 555.282C309.464 556.253 292.373 556.642 292.373 556.642L250.032 558.141V556.836C245.162 556.875 240.298 557.199 235.466 557.807C228.28 558.778 217.015 557.418 209.829 556.253C202.642 555.088 199.729 552.757 200.506 551.592C201.283 550.426 199.729 518.574 199.729 518.574L199.535 492.743C199.535 492.743 199.341 474.486 203.808 470.407C205.633 468.745 207.133 462.6 208.275 455.918C209.914 446.246 210.8 435.447 210.8 435.447L181.278 356.399L180.695 354.845C180.695 354.845 189.241 341.638 187.882 335.229C186.522 328.82 195.845 323.187 195.845 323.187C195.845 323.187 213.519 315.418 214.684 313.088C215.849 310.757 228.085 310.175 228.085 310.175C228.085 310.175 235.077 306.484 236.282 304.092C236.575 303.423 237.023 302.834 237.589 302.373C238.155 301.913 238.823 301.594 239.537 301.442C240.36 306.106 242.847 310.313 246.536 313.282C255.276 319.109 253.917 326.295 253.917 326.295L269.649 325.712C268.678 319.303 274.504 315.807 276.447 315.03C278.389 314.253 277.418 310.757 277.418 310.757L279.236 298.179C280.074 296.09 285.963 304.092 285.963 304.092C285.963 304.092 300.918 309.203 301.889 309.592C302.861 309.98 315.485 313.865 315.485 313.865C315.485 313.865 331.023 323.964 331.023 326.489C331.023 329.014 339.568 342.61 339.568 342.61C339.568 342.61 339.467 343.153 339.281 344.148C337.308 354.853 325.647 417.967 324.225 426.319Z" fill="#367CFF"/>
<path d="M262.074 394.855C262.074 394.855 228.474 385.921 225.172 383.784C221.87 381.648 202.448 394.078 226.143 410.975C226.143 410.975 255.117 416.996 262.869 410.975C270.62 404.955 262.074 394.855 262.074 394.855Z" fill="#E98862"/>
<path opacity="0.1" d="M334.713 341.638L338.791 341.833L350.833 374.073C350.833 374.073 358.019 390.971 359.379 393.69C360.738 396.409 360.156 407.674 359.379 410.975C358.602 414.277 353.552 428.844 353.358 432.534C353.164 436.224 344.035 439.914 334.713 439.332C325.39 438.749 303.637 441.662 303.637 441.662C303.637 441.662 280.406 439.234 266.153 446.518C266.153 446.518 257.024 427.678 257.995 392.524C257.995 392.524 274.116 391.553 278.194 393.107C282.273 394.661 302.083 399.128 304.608 396.797C307.133 394.467 318.592 401.07 318.592 401.07C319.175 399.789 319.477 398.399 319.477 396.991C319.477 395.584 319.175 394.194 318.592 392.913C316.65 388.252 313.348 373.685 317.621 369.024C321.894 364.362 334.713 341.638 334.713 341.638Z" fill="black"/>
<path opacity="0.1" d="M324.838 441.896C315.197 442.548 304.414 443.993 304.414 443.993C304.414 443.993 281.185 441.561 266.929 448.849C266.929 448.849 257.801 430.009 258.772 394.855C258.772 394.855 274.892 393.884 278.971 395.438C283.05 396.992 302.86 401.459 305.385 399.128C307.91 396.797 319.369 403.401 319.369 403.401C319.952 402.12 320.254 400.729 320.254 399.322C320.254 397.915 319.952 396.524 319.369 395.244C317.427 390.582 314.125 376.016 318.398 371.354C322.671 366.693 335.489 343.969 335.489 343.969L339.281 344.148C337.307 354.853 325.646 417.967 324.225 426.319C323.611 429.947 324.062 435.96 324.838 441.896Z" fill="black"/>
<path d="M335.49 342.415L339.568 342.609L351.61 374.85C351.61 374.85 358.796 391.748 360.156 394.467C361.515 397.186 360.933 408.451 360.156 411.752C359.379 415.054 354.329 429.621 354.135 433.311C353.941 437.001 344.812 440.691 335.49 440.109C326.167 439.526 304.414 442.439 304.414 442.439C304.414 442.439 281.183 440.011 266.929 447.295C266.929 447.295 257.801 428.455 258.772 393.301C258.772 393.301 274.892 392.33 278.971 393.884C283.05 395.438 302.86 399.905 305.385 397.574C307.91 395.244 319.369 401.847 319.369 401.847C319.952 400.566 320.254 399.176 320.254 397.768C320.254 396.361 319.952 394.97 319.369 393.69C317.427 389.028 314.125 374.462 318.398 369.801C322.671 365.139 335.49 342.415 335.49 342.415Z" fill="#367CFF"/>
<path d="M294.456 413.755L299.302 416.756L326.308 373.14L321.462 370.139L294.456 413.755Z" fill="#DFE6F5"/>
<path d="M340.156 367.233C344.929 359.525 344.416 350.562 339.009 347.215C333.603 343.867 325.35 347.402 320.578 355.11C315.805 362.819 316.318 371.781 321.725 375.129C327.131 378.476 335.383 374.941 340.156 367.233Z" fill="#DFE6F5"/>
<path opacity="0.1" d="M337.394 365.522C340.82 359.989 340.451 353.556 336.57 351.153C332.689 348.75 326.766 351.288 323.34 356.821C319.914 362.354 320.283 368.787 324.164 371.19C328.044 373.593 333.968 371.056 337.394 365.522Z" fill="black"/>
<path d="M280.653 436.048L285.499 439.049L302.303 411.91L297.457 408.909L280.653 436.048Z" fill="#53526B"/>
<path d="M252.169 437.972L264.016 434.67C264.016 434.67 322.477 436.224 302.861 412.141C302.861 412.141 292.567 402.236 271.008 410.199C249.45 418.162 243.429 419.133 243.429 419.133L252.169 437.972Z" fill="#E98862"/>
<path opacity="0.1" d="M243.428 336.394C244.716 336.394 245.759 335.351 245.759 334.064C245.759 332.777 244.716 331.733 243.428 331.733C242.141 331.733 241.098 332.777 241.098 334.064C241.098 335.351 242.141 336.394 243.428 336.394Z" fill="black"/>
<path opacity="0.1" d="M283.438 335.035C284.725 335.035 285.769 333.991 285.769 332.704C285.769 331.417 284.725 330.374 283.438 330.374C282.151 330.374 281.107 331.417 281.107 332.704C281.107 333.991 282.151 335.035 283.438 335.035Z" fill="black"/>
<path d="M243.428 335.617C244.716 335.617 245.759 334.574 245.759 333.287C245.759 332 244.716 330.956 243.428 330.956C242.141 330.956 241.098 332 241.098 333.287C241.098 334.574 242.141 335.617 243.428 335.617Z" fill="white"/>
<path opacity="0.1" d="M246.73 368.635C248.017 368.635 249.061 367.592 249.061 366.305C249.061 365.017 248.017 363.974 246.73 363.974C245.443 363.974 244.399 365.017 244.399 366.305C244.399 367.592 245.443 368.635 246.73 368.635Z" fill="black"/>
<path opacity="0.1" d="M284.603 366.305C285.89 366.305 286.934 365.261 286.934 363.974C286.934 362.687 285.89 361.643 284.603 361.643C283.316 361.643 282.272 362.687 282.272 363.974C282.272 365.261 283.316 366.305 284.603 366.305Z" fill="black"/>
<path d="M246.73 367.858C248.017 367.858 249.061 366.815 249.061 365.528C249.061 364.24 248.017 363.197 246.73 363.197C245.443 363.197 244.399 364.24 244.399 365.528C244.399 366.815 245.443 367.858 246.73 367.858Z" fill="white"/>
<path opacity="0.1" d="M283.632 478.772C284.92 478.772 285.963 477.729 285.963 476.441C285.963 475.154 284.92 474.111 283.632 474.111C282.345 474.111 281.302 475.154 281.302 476.441C281.302 477.729 282.345 478.772 283.632 478.772Z" fill="black"/>
<path opacity="0.1" d="M252.959 478.772C254.246 478.772 255.289 477.729 255.289 476.441C255.289 475.154 254.246 474.111 252.959 474.111C251.671 474.111 250.628 475.154 250.628 476.441C250.628 477.729 251.671 478.772 252.959 478.772Z" fill="black"/>
<path d="M283.632 477.995C284.92 477.995 285.963 476.952 285.963 475.664C285.963 474.377 284.92 473.334 283.632 473.334C282.345 473.334 281.302 474.377 281.302 475.664C281.302 476.952 282.345 477.995 283.632 477.995Z" fill="white"/>
<path opacity="0.1" d="M255.29 517.797C256.577 517.797 257.62 516.754 257.62 515.467C257.62 514.179 256.577 513.136 255.29 513.136C254.002 513.136 252.959 514.179 252.959 515.467C252.959 516.754 254.002 517.797 255.29 517.797Z" fill="black"/>
<path opacity="0.1" d="M284.603 515.467C285.89 515.467 286.934 514.423 286.934 513.136C286.934 511.849 285.89 510.805 284.603 510.805C283.316 510.805 282.272 511.849 282.272 513.136C282.272 514.423 283.316 515.467 284.603 515.467Z" fill="black"/>
<path d="M255.29 517.02C256.577 517.02 257.62 515.977 257.62 514.69C257.62 513.402 256.577 512.359 255.29 512.359C254.002 512.359 252.959 513.402 252.959 514.69C252.959 515.977 254.002 517.02 255.29 517.02Z" fill="white"/>
<path d="M252.959 477.995C254.246 477.995 255.289 476.952 255.289 475.664C255.289 474.377 254.246 473.334 252.959 473.334C251.671 473.334 250.628 474.377 250.628 475.664C250.628 476.952 251.671 477.995 252.959 477.995Z" fill="white"/>
<path d="M284.603 514.69C285.89 514.69 286.934 513.646 286.934 512.359C286.934 511.072 285.89 510.028 284.603 510.028C283.316 510.028 282.272 511.072 282.272 512.359C282.272 513.646 283.316 514.69 284.603 514.69Z" fill="white"/>
<path d="M283.438 334.258C284.725 334.258 285.769 333.215 285.769 331.927C285.769 330.64 284.725 329.597 283.438 329.597C282.151 329.597 281.107 330.64 281.107 331.927C281.107 333.215 282.151 334.258 283.438 334.258Z" fill="white"/>
<path d="M284.603 365.528C285.89 365.528 286.934 364.484 286.934 363.197C286.934 361.91 285.89 360.866 284.603 360.866C283.316 360.866 282.272 361.91 282.272 363.197C282.272 364.484 283.316 365.528 284.603 365.528Z" fill="white"/>
<path opacity="0.1" d="M288.1 444.964C288.1 444.964 288.488 498.181 289.653 507.698C289.653 507.698 290.076 447.473 288.1 444.964Z" fill="black"/>
<path opacity="0.1" d="M298.004 469.63C297.204 469.63 313.931 531.975 314.707 536.443C315.484 540.91 302.666 469.63 298.004 469.63Z" fill="black"/>
<path opacity="0.1" d="M311.212 459.531C311.212 460.113 320.535 493.325 325.196 495.073C329.857 496.821 311.212 459.531 311.212 459.531Z" fill="black"/>
<path opacity="0.1" d="M347.92 394.855C347.92 394.855 328.109 395.738 327.527 398.598C326.944 401.459 347.92 394.855 347.92 394.855Z" fill="black"/>
<path opacity="0.1" d="M312.96 648.12C312.96 648.12 298.782 654.141 300.918 654.529C303.054 654.918 312.96 648.12 312.96 648.12Z" fill="black"/>
<path opacity="0.1" d="M283.632 639.186C283.08 637.943 293.149 644.235 293.149 645.012C293.149 645.789 284.409 640.934 283.632 639.186Z" fill="black"/>
<path opacity="0.1" d="M296.839 659.579C296.839 659.579 307.91 659.02 308.687 663.281C309.464 667.542 296.839 659.579 296.839 659.579Z" fill="black"/>
<path opacity="0.1" d="M217.209 659.555C217.209 659.555 229.251 657.2 230.222 659.555C231.193 661.91 217.209 659.555 217.209 659.555Z" fill="black"/>
<path opacity="0.1" d="M221.676 732.8C221.676 732.8 222.465 742.706 219.545 745.036C216.626 747.367 221.676 732.8 221.676 732.8Z" fill="black"/>
<path opacity="0.1" d="M220.205 753.776C224.006 754.165 244.011 750.669 243.817 753.776C243.623 756.884 220.205 753.776 220.205 753.776Z" fill="black"/>
<path opacity="0.1" d="M311.989 741.735C311.989 741.735 305.166 740.686 306.83 745.289L311.989 741.735Z" fill="black"/>
<path opacity="0.1" d="M185.162 354.069H181.472L175.84 374.656C175.84 374.656 173.897 381.842 171.955 383.59C170.013 385.338 173.703 401.264 173.703 401.264C173.703 401.264 171.567 412.529 169.819 415.443C168.071 418.356 172.538 425.542 172.538 425.542L181.472 446.518L205.167 452.733C205.167 452.733 246.925 461.861 248.867 463.221C250.809 464.581 252.557 462.638 253.917 450.014C255.276 437.39 258.966 412.918 261.88 411.752C261.88 411.752 238.573 414.277 236.631 413.889C234.689 413.5 225.366 414.083 225.366 414.083C225.366 414.083 213.13 413.306 211.188 414.472C209.246 415.637 213.713 408.83 213.713 408.83C214.531 405.714 214.531 402.439 213.713 399.322C212.353 394.078 211.576 334.646 185.162 354.069Z" fill="black"/>
<path opacity="0.1" d="M261.102 414.083C258.189 415.248 254.499 439.72 253.139 452.345C251.78 464.969 250.032 466.911 248.09 465.552C246.512 464.448 218.677 458.218 208.274 455.918C209.913 446.246 210.799 435.447 210.799 435.447L181.277 356.399H184.385C210.799 336.977 211.576 396.409 212.935 401.653C213.753 404.77 213.753 408.045 212.935 411.162C212.935 411.162 208.468 417.967 210.411 416.802C212.353 415.637 224.589 416.414 224.589 416.414C224.589 416.414 233.911 415.831 235.854 416.219C237.796 416.608 261.102 414.083 261.102 414.083Z" fill="black"/>
<path d="M184.385 354.845H180.695L175.062 375.433C175.062 375.433 173.12 382.619 171.178 384.367C169.236 386.115 172.926 402.041 172.926 402.041C172.926 402.041 170.789 413.306 169.041 416.219C167.293 419.133 171.761 426.319 171.761 426.319L180.695 447.295L204.39 453.51C204.39 453.51 246.147 462.638 248.09 463.998C250.032 465.358 251.78 463.415 253.139 450.791C254.499 438.167 258.189 413.695 261.102 412.529C261.102 412.529 237.796 415.054 235.854 414.666C233.911 414.277 224.589 414.86 224.589 414.86C224.589 414.86 212.353 414.083 210.411 415.248C208.468 416.414 212.935 409.607 212.935 409.607C213.753 406.491 213.753 403.216 212.935 400.099C211.576 394.855 210.799 335.423 184.385 354.845Z" fill="#367CFF"/>
<path opacity="0.1" d="M197.01 425.154C197.01 425.154 186.328 445.353 184.385 443.022C182.443 440.691 197.01 425.154 197.01 425.154Z" fill="black"/>
<path opacity="0.1" d="M185.939 413.651C185.939 413.651 176.034 421.852 180.695 423.988C185.356 426.125 185.939 413.651 185.939 413.651Z" fill="black"/>
<path opacity="0.1" d="M195.262 403.595C196.039 403.789 209.634 406.49 209.828 407.664C210.023 408.839 195.262 403.595 195.262 403.595Z" fill="black"/>
<path opacity="0.1" d="M289.545 261.316C289.122 261.465 288.762 261.751 288.521 262.128C288.28 262.505 288.173 262.953 288.216 263.398C287.424 264.097 286.313 263.274 285.668 262.38C285.015 261.495 284.277 260.399 283.291 260.524C282.822 260.673 282.367 260.863 281.931 261.091C280.377 261.588 279.064 259.762 278.194 258.162C276.679 255.357 275.164 252.555 273.649 249.756C270.612 251.52 267.023 249.671 264.008 247.845C260.994 246.019 257.405 244.163 254.359 245.926C249.892 248.505 249.729 257.105 245.099 259.226C243.607 259.91 241.875 259.762 240.492 260.702C239.125 261.635 238.387 263.429 237.773 265.146C237.546 266.124 237.012 267.003 236.25 267.656C235.766 267.909 235.227 268.039 234.681 268.036C233.308 268.27 231.897 268.071 230.641 267.469C229.983 267.056 229.486 266.43 229.231 265.695C228.977 264.961 228.981 264.161 229.243 263.429C229.279 263.352 229.321 263.276 229.367 263.204C229.865 262.602 230.312 261.961 230.703 261.285C231.169 260.05 230.501 258.613 230.649 257.276C230.89 254.992 233.306 253.788 233.718 251.543C233.888 250.665 233.71 249.725 233.873 248.839C233.896 248.723 233.927 248.609 233.966 248.498L232.544 249.476C234.137 247.62 234.937 245.04 236.103 242.787C237.397 240.321 239.179 238.142 241.339 236.383C243.5 234.625 245.994 233.323 248.673 232.556C253.738 231.08 259.091 231.484 264.203 232.735C269.064 233.946 273.72 235.864 278.023 238.429C279.561 239.253 280.926 240.364 282.048 241.7C282.987 243.085 283.786 244.561 284.433 246.105C285.94 249.228 290.057 252.118 286.779 252.553C284.052 252.918 286.538 254.829 287.968 256.119C288.29 256.372 288.568 256.676 288.791 257.02C289.028 257.511 289.137 258.055 289.107 258.6C289.077 259.144 288.91 259.673 288.62 260.135C288.068 260.834 290.306 260.974 289.545 261.316Z" fill="black"/>
<path d="M289.544 260.539C289.122 260.688 288.761 260.974 288.521 261.351C288.28 261.729 288.172 262.176 288.216 262.621C287.423 263.321 286.312 262.497 285.667 261.604C285.015 260.718 284.277 259.623 283.29 259.747C282.822 259.896 282.367 260.086 281.931 260.314C280.377 260.811 279.064 258.986 278.194 257.385C276.679 254.581 275.164 251.779 273.649 248.979C270.611 250.743 267.022 248.894 264.008 247.068C260.994 245.242 257.404 243.386 254.359 245.149C249.892 247.728 249.729 256.329 245.098 258.449C243.607 259.133 241.874 258.986 240.491 259.926C239.124 260.858 238.386 262.652 237.772 264.369C237.545 265.347 237.012 266.226 236.25 266.879C235.766 267.132 235.227 267.263 234.68 267.259C233.308 267.493 231.896 267.294 230.641 266.692C229.982 266.279 229.485 265.653 229.231 264.918C228.977 264.184 228.981 263.384 229.242 262.652C229.279 262.575 229.32 262.5 229.366 262.427C229.864 261.825 230.311 261.184 230.703 260.508C231.169 259.273 230.501 257.836 230.648 256.499C230.889 254.215 233.305 253.011 233.717 250.766C233.888 249.888 233.709 248.948 233.872 248.062C233.895 247.946 233.926 247.832 233.966 247.721L232.544 248.7C234.137 246.843 234.937 244.264 236.102 242.011C237.397 239.544 239.178 237.365 241.339 235.607C243.499 233.848 245.994 232.546 248.672 231.779C253.737 230.303 259.09 230.707 264.202 231.958C269.063 233.169 273.72 235.087 278.023 237.652C279.56 238.477 280.926 239.587 282.047 240.923C282.987 242.308 283.785 243.784 284.432 245.328C285.939 248.451 290.057 251.341 286.778 251.776C284.052 252.141 286.538 254.052 287.967 255.342C288.289 255.595 288.568 255.899 288.791 256.243C289.028 256.734 289.137 257.278 289.107 257.823C289.077 258.368 288.909 258.896 288.619 259.358C288.068 260.058 290.305 260.197 289.544 260.539Z" fill="#292A2E"/>
<path opacity="0.1" d="M287.968 255.342L287.657 258.613C287.657 258.613 255.059 217.298 229.701 263.95C229.701 263.95 229.577 263.383 229.367 262.427C229.865 261.825 230.312 261.184 230.703 260.508C231.17 259.273 230.501 257.836 230.649 256.499C230.89 254.215 233.306 253.011 233.718 250.766C233.889 249.888 233.71 248.948 233.873 248.062C233.896 247.946 233.927 247.832 233.966 247.721L232.545 248.7C234.137 246.843 234.938 244.264 236.103 242.011C237.397 239.544 239.179 237.365 241.339 235.607C243.5 233.848 245.995 232.546 248.673 231.779C253.738 230.303 259.091 230.707 264.203 231.958C269.064 233.169 273.72 235.087 278.024 237.652C279.561 238.477 280.927 239.587 282.048 240.923C282.987 242.308 283.786 243.784 284.433 245.328C285.94 248.451 290.058 251.341 286.779 251.776C284.052 252.141 286.538 254.052 287.968 255.342Z" fill="black"/>
<g opacity="0.1">
<path d="M288.771 260.116C288.611 260.297 288.494 260.512 288.429 260.745C288.365 260.978 288.356 261.223 288.402 261.461C287.609 262.16 286.498 261.337 285.854 260.443C285.201 259.557 284.463 258.462 283.476 258.586C283.008 258.736 282.553 258.926 282.117 259.153C280.563 259.651 279.25 257.825 278.38 256.225C276.865 253.42 275.35 250.618 273.835 247.819C270.797 249.582 267.208 247.733 264.194 245.908C261.18 244.082 257.59 242.225 254.545 243.989C250.078 246.568 249.915 255.168 245.285 257.289C243.793 257.973 242.06 257.825 240.678 258.765C239.31 259.697 238.572 261.492 237.958 263.209C237.731 264.186 237.198 265.065 236.436 265.718C235.952 265.971 235.413 266.102 234.866 266.099C233.494 266.332 232.082 266.134 230.827 265.532C230.074 265.033 229.535 264.271 229.313 263.396C229.158 264.092 229.221 264.818 229.491 265.478C229.762 266.137 230.228 266.698 230.827 267.085C232.082 267.688 233.494 267.886 234.866 267.653C235.413 267.656 235.952 267.525 236.436 267.272C237.198 266.619 237.731 265.74 237.958 264.763C238.572 263.046 239.31 261.251 240.678 260.319C242.06 259.379 243.793 259.526 245.285 258.843C249.915 256.722 250.078 248.122 254.545 245.542C257.59 243.779 261.18 245.636 264.194 247.461C267.208 249.287 270.797 251.136 273.835 249.372C275.35 252.169 276.865 254.971 278.38 257.778C279.25 259.379 280.563 261.204 282.117 260.707C282.553 260.479 283.008 260.29 283.476 260.14C284.463 260.016 285.201 261.111 285.854 261.997C286.498 262.89 287.609 263.714 288.402 263.015C288.359 262.569 288.466 262.122 288.707 261.744C288.948 261.367 289.308 261.081 289.73 260.933C290.336 260.661 289.048 260.516 288.771 260.116Z" fill="black"/>
<path d="M286.231 252.354C286.466 252.26 286.713 252.198 286.964 252.169C288.41 251.977 288.416 251.308 287.843 250.352C287.571 250.499 287.272 250.588 286.964 250.615C285.405 250.824 285.553 251.539 286.231 252.354Z" fill="black"/>
<path d="M289.207 258.862C289.316 258.361 289.313 257.842 289.199 257.343C289.13 257.652 288.996 257.944 288.806 258.198C288.562 258.506 288.862 258.706 289.207 258.862Z" fill="black"/>
<path d="M230.879 256.624C230.863 256.713 230.844 256.801 230.834 256.893C230.803 257.592 230.854 258.293 230.986 258.981C231.078 258.195 231.042 257.399 230.879 256.624Z" fill="black"/>
<path d="M234.033 247.146C233.668 247.838 233.231 248.491 232.73 249.093L233.984 248.229C233.978 247.867 233.994 247.505 234.033 247.146Z" fill="black"/>
</g>
<path d="M229.699 263.173C229.699 263.173 225.011 242.217 226.503 238.857C226.503 238.857 222.454 230.553 222.454 228.576C222.258 225.278 221.232 222.082 219.471 219.285C217.341 215.924 214.997 200.306 227.781 196.55C240.566 192.794 250.368 189.433 251.859 186.863C253.351 184.293 275.298 185.875 281.264 195.759C287.23 205.644 291.065 203.667 291.065 203.667C291.065 203.667 300.228 209.4 300.228 214.54C300.228 219.68 297.458 222.25 300.228 223.436C302.998 224.623 300.867 245.974 288.721 246.567L287.656 257.835C287.656 257.835 255.055 216.517 229.699 263.173Z" fill="#367CFF"/>
<path opacity="0.1" d="M231.095 200.634C231.095 200.634 228.279 217.142 233.426 222.678L231.095 200.634Z" fill="black"/>
<path opacity="0.1" d="M244.303 196.846C244.303 196.846 237.116 214.52 238.864 217.919L244.303 196.846Z" fill="black"/>
<path opacity="0.1" d="M250.517 191.214C250.517 191.214 245.662 214.229 247.992 216.074L250.517 191.214Z" fill="black"/>
<path opacity="0.1" d="M258.869 197.429C258.869 197.429 252.848 212.19 255.276 214.229L258.869 197.429Z" fill="black"/>
<path opacity="0.1" d="M270.231 199.177C270.231 199.177 263.142 211.219 264.599 213.355L270.231 199.177Z" fill="black"/>
<path opacity="0.1" d="M284.797 210.927C284.797 210.927 277.223 212.967 278.776 215.394L284.797 210.927Z" fill="black"/>
<path opacity="0.1" d="M291.984 223.455C291.984 223.455 285.186 226.756 286.448 228.504L291.984 223.455Z" fill="black"/>
<path opacity="0.1" d="M226.503 238.857C226.503 238.857 269.921 221.22 288.721 246.567C288.721 246.567 265.902 227.165 226.503 238.857Z" fill="black"/>
<path d="M210.813 383.768L216.863 377.648L233.968 394.556L227.918 400.677L212.187 385.127L210.813 383.768Z" fill="#53526B"/>
<path d="M171.123 344.534C171.123 344.534 197.602 346.787 222.247 374.526L211.975 384.917L171.123 344.534Z" fill="#DFE6F5"/>
<path d="M250.547 394.132C250.547 394.132 225.096 384.855 222.595 382.636C220.094 380.418 205.383 393.326 223.331 410.873C223.331 410.873 245.277 417.125 251.148 410.873C257.02 404.62 250.547 394.132 250.547 394.132Z" fill="#E98862"/>
<path d="M248.647 269.366C249.655 269.366 250.472 268.548 250.472 267.541C250.472 266.533 249.655 265.716 248.647 265.716C247.639 265.716 246.822 266.533 246.822 267.541C246.822 268.548 247.639 269.366 248.647 269.366Z" fill="#0C0C0C"/>
<path d="M271.647 269.366C272.655 269.366 273.472 268.548 273.472 267.541C273.472 266.533 272.655 265.716 271.647 265.716C270.639 265.716 269.822 266.533 269.822 267.541C269.822 268.548 270.639 269.366 271.647 269.366Z" fill="#0C0C0C"/>
<path d="M250.822 279.716C250.822 279.716 256.13 282.716 260.322 282.716C264.515 282.716 269.822 279.716 269.822 279.716" stroke="black"/>
<path d="M808.009 513H792.991C792.463 513 791.957 513.205 791.583 513.57C791.21 513.935 791 514.431 791 514.947V521.394C791 521.91 791.21 522.405 791.583 522.771C791.957 523.136 792.463 523.341 792.991 523.341H795.48V533H805.52V523.341H808.009C808.537 523.341 809.043 523.136 809.417 522.771C809.79 522.405 810 521.91 810 521.394V514.947C810 514.431 809.79 513.935 809.417 513.57C809.043 513.205 808.537 513 808.009 513Z" fill="#0CBC8B"/>
<path d="M912.009 513H896.991C896.463 513 895.957 513.205 895.583 513.57C895.21 513.935 895 514.431 895 514.947V521.394C895 521.91 895.21 522.405 895.583 522.771C895.957 523.136 896.463 523.341 896.991 523.341H899.48V533H909.52V523.341H912.009C912.537 523.341 913.043 523.136 913.417 522.771C913.79 522.405 914 521.91 914 521.394V514.947C914 514.431 913.79 513.935 913.417 513.57C913.043 513.205 912.537 513 912.009 513Z" fill="#0CBC8B"/>
<path d="M861.009 513H845.991C845.463 513 844.957 513.205 844.583 513.57C844.21 513.935 844 514.431 844 514.947V521.394C844 521.91 844.21 522.405 844.583 522.771C844.957 523.136 845.463 523.341 845.991 523.341H848.48V533H858.52V523.341H861.009C861.537 523.341 862.043 523.136 862.417 522.771C862.79 522.405 863 521.91 863 521.394V514.947C863 514.431 862.79 513.935 862.417 513.57C862.043 513.205 861.537 513 861.009 513Z" fill="#0CBC8B"/>
<path d="M823.367 573.579C814.071 560.032 809.318 543.903 809.791 527.503C809.799 527.124 809.676 526.754 809.442 526.456C809.207 526.158 808.877 525.95 808.506 525.867V523H792.475V525.827H792.255C792.028 525.827 791.805 525.874 791.598 525.964C791.391 526.055 791.204 526.186 791.051 526.351C790.897 526.516 790.779 526.711 790.704 526.924C790.63 527.136 790.6 527.362 790.616 527.587C791.879 545.119 787.615 560.841 777.823 574.754C777.259 575.554 776.971 576.514 777.002 577.49L778.755 631.488C778.797 632.693 779.305 633.835 780.172 634.675C781.039 635.516 782.199 635.99 783.409 636H819.668C820.891 635.99 822.063 635.505 822.933 634.647C823.803 633.789 824.302 632.628 824.324 631.409L824.999 578.981C825.019 577.057 824.45 575.172 823.367 573.579Z" fill="#DFE6F5"/>
<path d="M927.367 573.579C918.071 560.032 913.318 543.903 913.791 527.503C913.799 527.124 913.676 526.754 913.442 526.456C913.207 526.158 912.877 525.95 912.506 525.867V523H896.475V525.827H896.255C896.028 525.827 895.805 525.874 895.598 525.964C895.391 526.055 895.204 526.186 895.051 526.351C894.897 526.516 894.779 526.711 894.704 526.924C894.63 527.136 894.6 527.362 894.616 527.587C895.879 545.119 891.615 560.841 881.823 574.754C881.259 575.554 880.971 576.514 881.002 577.49L882.755 631.488C882.797 632.693 883.305 633.835 884.172 634.675C885.039 635.516 886.199 635.99 887.409 636H923.668C924.891 635.99 926.063 635.505 926.933 634.647C927.803 633.789 928.302 632.628 928.324 631.409L928.999 578.981C929.019 577.057 928.45 575.172 927.367 573.579Z" fill="#DFE6F5"/>
<path d="M876.367 573.579C867.071 560.032 862.318 543.903 862.791 527.503C862.799 527.124 862.676 526.754 862.442 526.456C862.207 526.158 861.877 525.95 861.506 525.867V523H845.475V525.827H845.255C845.028 525.827 844.805 525.874 844.598 525.964C844.391 526.055 844.204 526.186 844.051 526.351C843.897 526.516 843.779 526.711 843.704 526.924C843.63 527.136 843.6 527.362 843.616 527.587C844.879 545.119 840.615 560.841 830.823 574.754C830.259 575.554 829.971 576.514 830.002 577.49L831.755 631.488C831.797 632.693 832.305 633.835 833.172 634.675C834.039 635.516 835.199 635.99 836.409 636H872.668C873.891 635.99 875.063 635.505 875.933 634.647C876.803 633.789 877.302 632.628 877.324 631.409L877.999 578.981C878.019 577.057 877.45 575.172 876.367 573.579Z" fill="#DFE6F5"/>
<path opacity="0.2" d="M805 515C805 516.326 804.526 517.598 803.682 518.536C802.838 519.473 801.693 520 800.5 520C799.307 520 798.162 519.473 797.318 518.536C796.474 517.598 796 516.326 796 515" fill="black"/>
<path opacity="0.2" d="M909 515C909 516.326 908.526 517.598 907.682 518.536C906.838 519.473 905.693 520 904.5 520C903.307 520 902.162 519.473 901.318 518.536C900.474 517.598 900 516.326 900 515" fill="black"/>
<path opacity="0.2" d="M859 516C859 517.326 858.526 518.598 857.682 519.536C856.838 520.473 855.693 521 854.5 521C853.307 521 852.162 520.473 851.318 519.536C850.474 518.598 850 517.326 850 516" fill="black"/>
<path d="M816.848 591.439H812.578C812.17 588.811 810.829 586.414 808.797 584.683C806.765 582.952 804.177 582 801.5 582C798.823 582 796.235 582.952 794.203 584.683C792.171 586.414 790.83 588.811 790.422 591.439H786.152C785.697 591.439 785.248 591.537 784.835 591.725C784.422 591.914 784.056 592.189 783.76 592.531C783.464 592.874 783.246 593.276 783.121 593.71C782.996 594.144 782.968 594.6 783.037 595.046L787.675 625H814.312L819.946 595.147C820.031 594.695 820.015 594.229 819.899 593.784C819.783 593.339 819.569 592.924 819.274 592.57C818.978 592.216 818.607 591.932 818.188 591.736C817.769 591.54 817.312 591.439 816.848 591.439Z" fill="#C1D8ED"/>
<path d="M920.848 591.439H916.578C916.17 588.811 914.829 586.414 912.797 584.683C910.765 582.952 908.177 582 905.5 582C902.823 582 900.235 582.952 898.203 584.683C896.171 586.414 894.83 588.811 894.422 591.439H890.152C889.697 591.439 889.248 591.537 888.835 591.725C888.422 591.914 888.056 592.189 887.76 592.531C887.464 592.874 887.246 593.276 887.121 593.71C886.996 594.144 886.968 594.6 887.037 595.046L891.675 625H918.312L923.946 595.147C924.031 594.695 924.015 594.229 923.899 593.784C923.783 593.339 923.569 592.924 923.274 592.57C922.978 592.216 922.607 591.932 922.188 591.736C921.769 591.54 921.312 591.439 920.848 591.439Z" fill="#C1D8ED"/>
<path d="M870.848 591.439H866.578C866.17 588.811 864.829 586.414 862.797 584.683C860.765 582.952 858.177 582 855.5 582C852.823 582 850.235 582.952 848.203 584.683C846.171 586.414 844.83 588.811 844.422 591.439H840.152C839.697 591.439 839.248 591.537 838.835 591.725C838.422 591.914 838.056 592.189 837.76 592.531C837.464 592.874 837.246 593.276 837.121 593.71C836.996 594.144 836.968 594.6 837.037 595.046L841.675 625H868.312L873.946 595.147C874.031 594.695 874.015 594.229 873.899 593.784C873.783 593.339 873.569 592.924 873.274 592.57C872.978 592.216 872.607 591.932 872.188 591.736C871.769 591.54 871.312 591.439 870.848 591.439Z" fill="#C1D8ED"/>
</g>
<defs>
<linearGradient id="paint0_linear_21_857" x1="264.804" y1="818.56" x2="264.804" y2="183" gradientUnits="userSpaceOnUse">
<stop stop-color="#808080" stop-opacity="0.25"/>
<stop offset="0.53514" stop-color="#808080" stop-opacity="0.12"/>
<stop offset="1" stop-color="#808080" stop-opacity="0.1"/>
</linearGradient>
<clipPath id="clip0_21_857">
<rect width="1045" height="832" fill="white"/>
</clipPath>
</defs>
</svg>
