<svg width="1045" height="832" viewBox="0 0 1045 832" fill="none" xmlns="http://www.w3.org/2000/svg">
<g clip-path="url(#clip0_18_188)">
<path d="M961.689 832C972.94 832 984.074 829.596 994.42 824.934C1004.77 820.272 1014.11 813.449 1021.89 804.874C1029.66 796.3 1035.71 786.154 1039.67 775.046C1043.63 763.939 1045.41 752.101 1044.92 740.247C1042.18 674.867 1002.78 581.165 895.394 496.538C746.391 379.119 836.318 104.204 640.729 76.207C319.242 30.19 347.855 337.946 149.344 447.669C22.9828 517.51 0.00825574 654.165 0 744.275C0.0203234 767.558 8.80784 789.879 24.4301 806.33C40.0524 822.781 61.2302 832.015 83.3063 832H961.689Z" fill="#F3F5FD"/>
<path d="M308.433 615.22L758.1 615.22L758.1 0L308.433 0L308.433 615.22Z" fill="#DEE8F5"/>
<path d="M449.785 92.8412C449.785 103.261 446.855 113.447 441.366 122.111C435.877 130.775 428.076 137.527 418.948 141.515C409.82 145.503 399.776 146.546 390.086 144.513C380.396 142.48 371.495 137.463 364.509 130.095C357.523 122.727 352.766 113.339 350.838 103.119C348.911 92.8997 349.9 82.3067 353.681 72.6799C357.462 63.0531 363.864 54.825 372.079 49.036C380.294 43.247 389.952 40.1571 399.832 40.1571C406.397 40.1361 412.902 41.4844 418.971 44.1246C425.041 46.7648 430.556 50.6447 435.198 55.541C439.841 60.4374 443.52 66.2536 446.023 72.655C448.526 79.0565 449.805 85.9168 449.785 92.8412Z" fill="#C1D8ED"/>
<path d="M399.831 98.2695C410.753 98.2695 419.607 88.9314 419.607 77.4123C419.607 65.8932 410.753 56.5551 399.831 56.5551C388.909 56.5551 380.055 65.8932 380.055 77.4123C380.055 88.9314 388.909 98.2695 399.831 98.2695Z" fill="white"/>
<path d="M435.829 129.372C431.168 134.48 425.577 138.544 419.392 141.319C413.207 144.095 406.554 145.525 399.832 145.525C393.11 145.525 386.458 144.095 380.272 141.319C374.087 138.544 368.496 134.48 363.835 129.372C370.571 113.497 384.168 102.647 399.831 102.647C415.495 102.647 429.093 113.497 435.829 129.372Z" fill="white"/>
<path d="M570.99 40.4843H470.14V72.6271H570.99V40.4843Z" fill="white"/>
<path d="M716.653 92.5091H470.14V104.204H716.653V92.5091Z" fill="white"/>
<path d="M716.653 124.086H470.14V135.781H716.653V124.086Z" fill="white"/>
<path d="M434.902 178.534H349.879V192.346H434.902V178.534Z" fill="white"/>
<path d="M716.654 207.705H349.879V243.623H716.654V207.705Z" fill="white"/>
<path d="M434.902 270.063H349.879V283.875H434.902V270.063Z" fill="white"/>
<path d="M716.654 299.234H349.879V335.152H716.654V299.234Z" fill="white"/>
<path d="M434.902 361.592H349.879V375.404H434.902V361.592Z" fill="white"/>
<path d="M716.654 390.763H349.879V426.681H716.654V390.763Z" fill="white"/>
<path d="M434.902 453.12H349.879V466.931H434.902V453.12Z" fill="white"/>
<path d="M716.654 482.292H349.879V518.21H716.654V482.292Z" fill="white"/>
<path d="M574.339 548.634H492.192V574.917H574.339V548.634Z" fill="#C1D8ED"/>
<path d="M237.252 277.08C237.252 277.08 246.372 271.98 244.336 245.789L263.178 242.103C263.178 242.103 261.061 265.586 270.594 273.042L237.252 277.08Z" fill="#E98862"/>
<path d="M233.645 235.633C234.949 243.578 239.06 251.104 245.706 253.669C253.596 256.716 259.44 256.923 268.537 256.923C280.95 256.923 280.54 243.269 280.889 229.51C281.243 215.696 280.196 200.878 275.29 196.064C265.501 186.456 236.756 192.541 233.26 208.612C231.452 216.931 232.403 228.069 233.645 235.633Z" fill="#E98862"/>
<path d="M287.542 204.052C287.542 204.052 292.625 202.854 291.233 197.508C290.311 193.962 286.004 194.749 286.004 194.749C286.004 194.749 290.082 193.962 290.082 190.206C290.082 187.843 288.358 183.833 283.158 186.124C277.056 188.812 270.097 188.466 264.805 187.528C261.812 186.837 258.774 186.385 255.716 186.175H255.699C252.184 186.11 248.68 186.605 245.304 187.642C235.845 190.627 221.31 199.609 224.574 219.849C228.101 241.724 240.732 251.336 242.47 252.667C245.737 255.173 265.822 255.68 267.813 253.582C270.792 250.44 272.412 237.807 271.807 215.8C280.04 214.426 285.695 213.84 285.695 213.84C285.695 213.84 292.535 214.111 292.535 208.837C292.535 203.563 287.542 204.052 287.542 204.052Z" fill="#0F1011"/>
<path d="M277.814 232.12C277.958 234.133 277.341 236.124 276.098 237.658C274.855 239.193 273.087 240.146 271.179 240.31C269.272 240.475 267.38 239.836 265.918 238.535C264.455 237.233 263.54 235.374 263.372 233.364C263.278 232.36 263.376 231.347 263.661 230.384C263.946 229.422 264.411 228.529 265.03 227.761C265.648 226.992 266.407 226.362 267.262 225.909C268.116 225.456 269.048 225.188 270.002 225.123C275.165 224.951 277.486 227.913 277.814 232.12Z" fill="#E98862"/>
<path d="M321.756 817.427L295.11 814.087C296.309 803.449 297.662 790.674 297.756 788.579C297.756 788.711 297.756 788.828 297.756 788.909H324.59C324.584 789.757 324.584 792.338 321.756 817.427Z" fill="#E98862"/>
<path d="M214.837 820.81L188.003 820.718C188.003 820.718 188.093 791.497 188.093 788.909H214.927C214.927 791.505 214.837 820.81 214.837 820.81Z" fill="#E98862"/>
<path d="M331.657 807.645C329.435 749.105 329.424 685.248 328.609 626.602C319.528 562.437 314.474 492.117 303.134 428.411L302.794 428.517L301.795 421.334L204.584 419.357L181.087 806.885L228.197 811.083L257.766 490.099C267.159 537.422 273.461 586.492 281.773 633.341C281.773 633.341 284.571 750.796 284.383 808.492L331.657 807.645Z" fill="#262626"/>
<path d="M247.455 831.756C248.145 831.753 248.826 831.607 249.462 831.326C250.098 831.045 250.675 830.635 251.16 830.119C251.645 829.602 252.03 828.99 252.291 828.318C252.552 827.645 252.684 826.924 252.681 826.197C252.681 826.061 252.675 825.922 252.665 825.786C252.587 824.734 252.226 823.727 251.624 822.884C251.022 822.042 250.204 821.398 249.267 821.029L218.035 809.997C217.43 809.786 216.789 809.715 216.156 809.789C215.522 809.864 214.911 810.081 214.365 810.428C210.072 813.57 204.935 815.177 199.711 815.011C195.643 814.706 191.738 813.201 188.441 810.669C188.151 810.419 187.8 810.26 187.428 810.212C187.056 810.164 186.679 810.229 186.341 810.398C186.002 810.568 185.716 810.835 185.516 811.169C185.317 811.504 185.211 811.891 185.212 812.286V828.393C185.212 829.349 185.572 830.267 186.213 830.943C186.855 831.62 187.725 832 188.632 832H188.647L247.455 831.756Z" fill="#C1D8ED"/>
<path d="M354.449 831.756C355.138 831.753 355.82 831.607 356.456 831.326C357.091 831.045 357.668 830.635 358.154 830.119C358.639 829.602 359.023 828.99 359.284 828.318C359.545 827.645 359.678 826.924 359.675 826.197C359.675 826.061 359.675 825.922 359.658 825.786C359.58 824.734 359.219 823.727 358.617 822.884C358.015 822.042 357.198 821.398 356.26 821.029L325.029 809.997C324.424 809.786 323.782 809.715 323.149 809.789C322.516 809.864 321.905 810.081 321.358 810.428C317.065 813.57 311.928 815.177 306.705 815.011C302.636 814.706 298.731 813.201 295.434 810.669C295.144 810.419 294.793 810.26 294.421 810.212C294.049 810.164 293.672 810.229 293.334 810.398C292.996 810.568 292.71 810.835 292.51 811.169C292.31 811.504 292.204 811.891 292.205 812.286V828.393C292.205 829.349 292.565 830.267 293.207 830.943C293.848 831.62 294.718 832 295.625 832H295.641L354.449 831.756Z" fill="#C1D8ED"/>
<path d="M175.977 463.563C175.977 467.58 177.982 481.006 174.754 481.965C172.815 482.54 170.525 472.534 170.525 472.534" fill="#E98862"/>
<path d="M160.708 461.455C160.708 461.455 150.149 488.561 162.192 504.134C162.5 504.531 162.913 504.82 163.379 504.965C163.844 505.11 164.34 505.103 164.802 504.945C165.264 504.788 165.67 504.487 165.967 504.082C166.264 503.678 166.439 503.188 166.468 502.677C167.057 492.177 169.062 470.611 175.625 473.13V456.198" fill="#E98862"/>
<path d="M398.811 317.036C398.811 317.036 413.554 304.682 414.602 300.244C415.651 295.806 405.259 287.079 405.259 287.079C405.259 287.079 419.07 272.401 416.316 270.268C413.065 267.756 397.04 289.11 397.04 289.11C397.04 289.11 399.305 281.427 396.483 280.923C395.324 280.717 394.405 281.918 392.591 287.354C390.524 293.55 386.391 302.874 386.391 302.874L398.811 317.036Z" fill="#E98862"/>
<path d="M383.286 300.61L339.665 352.37L305.503 287.875C302.257 277.753 294.915 270.959 279.962 270.289C274.833 270.057 249.799 270.016 231.471 270.016C219.157 270.016 209.048 273.996 203.212 280.157C200.272 283.213 198.072 286.97 196.797 291.11L196.621 291.042L167.291 375.151C166.961 376.095 166.724 377.071 166.583 378.066L154.748 462.182L182.307 466.496L193.935 383.878L205.778 349.911C207.011 355.131 207.683 360.482 207.783 365.861C207.783 394.168 195.648 406.854 196.536 421.379C197.943 444.215 303.14 438.819 308.501 425.848C314.019 412.47 302.818 404.229 303.311 360.474C303.364 355.713 303.713 350.732 304.193 345.66L324.894 384.742C325.978 386.788 327.511 388.531 329.364 389.826C331.217 391.12 333.337 391.928 335.547 392.182C337.756 392.436 339.992 392.129 342.066 391.286C344.14 390.443 345.992 389.088 347.469 387.336L404.82 316.58L383.286 300.61Z" fill="#367CFF"/>
<path d="M151.931 727.715C146.034 725.679 139.982 727.964 134.191 732.61C141.818 712.297 144.966 693.949 131.927 693.123C122.803 692.545 115.814 699.927 110.504 710.423C108.637 691.969 103.82 678.207 93.0282 682.769C81.18 687.779 79.3767 704.947 81.1741 722.911C75.9553 713.735 70.3343 708.619 65.2311 714.002C50.0016 730.064 87.3836 775.324 87.3836 775.324H96.6678L101.966 781.391C100.894 783.783 100.306 785.207 100.306 785.207L107.036 799.651C107.036 799.651 176.405 736.165 151.931 727.715Z" fill="#0CBC8B"/>
<path d="M135.286 832H82.7439L73.9492 767.31H144.081L135.286 832Z" fill="#C1D8ED"/>
<path d="M878.047 584.069C875.177 583.074 872.233 584.194 869.416 586.45C873.126 576.569 874.658 567.643 868.314 567.241C863.875 566.96 860.475 570.552 857.892 575.657C856.984 566.68 854.64 559.984 849.39 562.203C843.626 564.641 842.749 572.994 843.623 581.732C841.081 577.269 838.349 574.78 835.867 577.396C828.458 585.21 846.644 607.233 846.644 607.233H851.16L853.738 610.183C853.216 611.346 852.93 612.04 852.93 612.04L856.204 619.066C856.204 619.066 889.956 588.18 878.047 584.069Z" fill="#0CBC8B"/>
<path d="M869.951 634.803H844.39L840.111 603.332H874.23L869.951 634.803Z" fill="#C1D8ED"/>
<path d="M821.169 816.159H807.543V832H821.169V816.159Z" fill="#C1D8ED"/>
<path d="M950.803 816.159H937.178V832H950.803V816.159Z" fill="#C1D8ED"/>
<path d="M962.533 635.542H905.365V817.995H962.533V635.542Z" fill="#C1D8ED"/>
<path d="M807.369 639.583H748.825V816.159H807.369V639.583Z" fill="#C1D8ED"/>
<path d="M909.216 817.995H744.975V635.542H909.216V817.995ZM752.676 809.873H901.515V643.664H752.676V809.873Z" fill="#DEE8F5"/>
<path d="M909.216 817.995H744.975V717.402H909.216V817.995ZM752.676 809.873H901.515V725.525H752.676V809.873Z" fill="#DEE8F5"/>
<path d="M819.43 658.137V669.756V717.336H889.199V669.756V658.137H819.43Z" fill="#C1D8ED"/>
<path d="M866.331 669.756H796.561V717.336H866.331V669.756Z" fill="#DEE8F5"/>
<path d="M866.331 669.756H796.561V673.322H866.331V669.756Z" fill="#C1D8ED"/>
<path d="M796.562 669.756H866.332V658.137H796.562V669.756Z" fill="#DEE8F5"/>
<path d="M839.179 679.311H823.714C822.827 679.311 822.107 680.07 822.107 681.007V684.761C822.107 685.697 822.827 686.456 823.714 686.456H839.179C840.066 686.456 840.786 685.697 840.786 684.761V681.007C840.786 680.07 840.066 679.311 839.179 679.311Z" fill="white"/>
<path d="M769.091 816.159H755.465V832H769.091V816.159Z" fill="#DEE8F5"/>
<path d="M898.725 816.159H885.1V832H898.725V816.159Z" fill="#DEE8F5"/>
<path d="M883.225 791.758H807.374V809.873H883.225V791.758Z" fill="#C1D8ED"/>
<path d="M884.529 755.57H808.677V773.685H884.529V755.57Z" fill="#C1D8ED"/>
<path d="M857.341 791.758H777.128V809.873H857.341V791.758Z" fill="#DEE8F5"/>
<g opacity="0.62">
<path d="M850.794 791.758H846.901V809.873H850.794V791.758Z" fill="#C1D8ED"/>
</g>
<g opacity="0.62">
<path d="M843.007 791.758H839.114V809.873H843.007V791.758Z" fill="#C1D8ED"/>
</g>
<path d="M786.325 806.657C789.384 806.657 791.864 804.042 791.864 800.816C791.864 797.59 789.384 794.975 786.325 794.975C783.266 794.975 780.787 797.59 780.787 800.816C780.787 804.042 783.266 806.657 786.325 806.657Z" fill="#F3F5FD"/>
<path d="M858.645 755.57H778.432V773.685H858.645V755.57Z" fill="#DEE8F5"/>
<path d="M839.573 759.65H783.598V769.605H839.573V759.65Z" fill="#F3F5FD"/>
<g opacity="0.62">
<path d="M852.098 755.57H844.73V773.685H852.098V755.57Z" fill="#C1D8ED"/>
</g>
<path d="M813.561 791.778H889.413V773.664H813.561V791.778Z" fill="#C1D8ED"/>
<path d="M783.316 791.778H863.528V773.664H783.316V791.778Z" fill="#F3F5FD"/>
<path d="M789.862 791.778H793.755V773.664H789.862V791.778Z" fill="#DEE8F5"/>
<path d="M797.65 791.778H801.543V773.664H797.65V791.778Z" fill="#DEE8F5"/>
<path d="M854.332 788.563C857.391 788.563 859.871 785.948 859.871 782.722C859.871 779.496 857.391 776.88 854.332 776.88C851.274 776.88 848.794 779.496 848.794 782.722C848.794 785.948 851.274 788.563 854.332 788.563Z" fill="#DEE8F5"/>
<path d="M842.953 778.281H807.544V787.161H842.953V778.281Z" fill="#DEE8F5"/>
</g>
<defs>
<clipPath id="clip0_18_188">
<rect width="1045" height="832" fill="white"/>
</clipPath>
</defs>
</svg>
